<?xml version="1.0" encoding="UTF-8"?>
<svg xmlns="http://www.w3.org/2000/svg" xmlns:xlink="http://www.w3.org/1999/xlink" viewBox="0 0 1920 1080">
  <defs>
    <style>
      .cls-1 {
        opacity: .6;
      }

      .cls-2 {
        fill: url(#linear-gradient-15);
      }

      .cls-3 {
        fill: url(#linear-gradient-13);
      }

      .cls-4 {
        fill: url(#radial-gradient-9);
      }

      .cls-4, .cls-5, .cls-6, .cls-7, .cls-8, .cls-9, .cls-10, .cls-11, .cls-12, .cls-13, .cls-14, .cls-15, .cls-16, .cls-17 {
        mix-blend-mode: color-burn;
        opacity: .7;
      }

      .cls-4, .cls-5, .cls-6, .cls-7, .cls-8, .cls-10, .cls-11, .cls-12, .cls-13, .cls-15, .cls-16, .cls-17 {
        fill-rule: evenodd;
      }

      .cls-18 {
        letter-spacing: -.04em;
      }

      .cls-5 {
        fill: url(#radial-gradient-6);
      }

      .cls-19 {
        fill: #e75e28;
      }

      .cls-20 {
        fill: url(#linear-gradient-2);
      }

      .cls-21 {
        letter-spacing: 0em;
      }

      .cls-22 {
        fill: url(#linear-gradient-10);
      }

      .cls-23 {
        fill: url(#linear-gradient-25);
      }

      .cls-23, .cls-24, .cls-25, .cls-26, .cls-27, .cls-28, .cls-29, .cls-30 {
        mix-blend-mode: screen;
      }

      .cls-31 {
        fill: url(#linear-gradient-12);
      }

      .cls-6 {
        fill: url(#radial-gradient-8);
      }

      .cls-24 {
        fill: url(#linear-gradient-18);
      }

      .cls-7 {
        fill: url(#radial-gradient-5);
      }

      .cls-32 {
        letter-spacing: -.05em;
      }

      .cls-33 {
        fill: none;
      }

      .cls-34 {
        fill: url(#linear-gradient-4);
      }

      .cls-8 {
        fill: url(#radial-gradient-12);
      }

      .cls-35 {
        filter: url(#drop-shadow-1);
      }

      .cls-35, .cls-36 {
        opacity: .5;
      }

      .cls-37 {
        letter-spacing: 0em;
      }

      .cls-38 {
        fill: url(#linear-gradient-3);
      }

      .cls-39 {
        fill: #f2efe4;
      }

      .cls-40 {
        fill: url(#linear-gradient-5);
      }

      .cls-25 {
        fill: url(#radial-gradient);
      }

      .cls-26 {
        fill: url(#linear-gradient-23);
      }

      .cls-41 {
        fill: url(#linear-gradient-24);
      }

      .cls-42 {
        letter-spacing: 0em;
      }

      .cls-43 {
        isolation: isolate;
      }

      .cls-9 {
        fill: url(#radial-gradient-15);
      }

      .cls-44 {
        fill: url(#linear-gradient-8);
      }

      .cls-45 {
        font-family: Montserrat-Bold, Montserrat;
        font-weight: 700;
      }

      .cls-45, .cls-46 {
        font-size: 48px;
      }

      .cls-45, .cls-47 {
        fill: url(#Flame);
      }

      .cls-10 {
        fill: url(#radial-gradient-3);
      }

      .cls-11 {
        fill: url(#radial-gradient-10);
      }

      .cls-48 {
        letter-spacing: 0em;
      }

      .cls-49 {
        letter-spacing: -.01em;
      }

      .cls-27 {
        fill: url(#linear-gradient-22);
      }

      .cls-50 {
        fill: url(#linear-gradient-20);
      }

      .cls-51 {
        fill: #404040;
      }

      .cls-12 {
        fill: url(#radial-gradient-11);
      }

      .cls-52 {
        fill: url(#linear-gradient-9);
      }

      .cls-46 {
        fill: #f2efe4;
        font-family: Montserrat-Italic, Montserrat;
      }

      .cls-53 {
        fill: #eee;
      }

      .cls-28 {
        fill: url(#linear-gradient-11);
      }

      .cls-54 {
        fill: url(#linear-gradient-19);
      }

      .cls-13 {
        fill: url(#radial-gradient-7);
      }

      .cls-55 {
        fill: url(#linear-gradient-6);
      }

      .cls-14 {
        fill: url(#radial-gradient-14);
      }

      .cls-29 {
        fill: url(#linear-gradient-17);
      }

      .cls-15 {
        fill: url(#radial-gradient-13);
      }

      .cls-56 {
        fill: url(#linear-gradient-21);
      }

      .cls-30 {
        fill: url(#linear-gradient-7);
      }

      .cls-57 {
        fill: url(#linear-gradient-16);
      }

      .cls-58 {
        fill: url(#linear-gradient);
      }

      .cls-59 {
        fill: url(#linear-gradient-14);
        mix-blend-mode: multiply;
      }

      .cls-16 {
        fill: url(#radial-gradient-2);
      }

      .cls-17 {
        fill: url(#radial-gradient-4);
      }

      .cls-60 {
        fill: #0c0c0c;
      }
    </style>
    <filter id="drop-shadow-1" x="-5.16" y="-9" width="1261.68" height="1112.16" filterUnits="userSpaceOnUse">
      <feOffset dx="7" dy="7"/>
      <feGaussianBlur result="blur" stdDeviation="5"/>
      <feFlood flood-color="#000" flood-opacity=".85"/>
      <feComposite in2="blur" operator="in"/>
      <feComposite in="SourceGraphic"/>
    </filter>
    <pattern id="Flame" x="0" y="0" width="291.76" height="291.76" patternUnits="userSpaceOnUse" viewBox="0 0 291.76 291.76">
      <g>
        <rect class="cls-33" width="291.76" height="291.76"/>
        <rect class="cls-19" width="291.76" height="291.76"/>
      </g>
    </pattern>
    <radialGradient id="radial-gradient" cx="1144.34" cy="90.96" fx="1144.34" fy="90.96" r="264.22" gradientTransform="translate(-1731.1 410.43) scale(2.37 1.51)" gradientUnits="userSpaceOnUse">
      <stop offset=".35" stop-color="#bababa"/>
      <stop offset=".42" stop-color="#939393"/>
      <stop offset=".52" stop-color="#676767"/>
      <stop offset=".62" stop-color="#414141"/>
      <stop offset=".71" stop-color="#252525"/>
      <stop offset=".81" stop-color="#101010"/>
      <stop offset=".91" stop-color="#040404"/>
      <stop offset="1" stop-color="#000"/>
    </radialGradient>
    <radialGradient id="radial-gradient-2" cx="2161.62" cy="1336.13" fx="2161.62" fy="1336.13" r="35.92" gradientTransform="translate(-12151.27 295.61) scale(6.06 .33)" gradientUnits="userSpaceOnUse">
      <stop offset=".52" stop-color="#333"/>
      <stop offset=".64" stop-color="#8f8f8f"/>
      <stop offset=".64" stop-color="#909090"/>
      <stop offset=".76" stop-color="#bfbfbf"/>
      <stop offset=".86" stop-color="#e2e2e2"/>
      <stop offset=".94" stop-color="#f7f7f7"/>
      <stop offset="1" stop-color="#fff"/>
    </radialGradient>
    <radialGradient id="radial-gradient-3" cx="2147.82" cy="1336.13" fx="2147.82" fy="1336.13" r="24.16" xlink:href="#radial-gradient-2"/>
    <radialGradient id="radial-gradient-4" cx="2169.5" cy="1336.13" fx="2169.5" fy="1336.13" r="24.16" xlink:href="#radial-gradient-2"/>
    <radialGradient id="radial-gradient-5" cx="2160.13" cy="1336.13" fx="2160.13" fy="1336.13" r="24.16" xlink:href="#radial-gradient-2"/>
    <linearGradient id="linear-gradient" x1="932.88" y1="672.03" x2="932.88" y2="761" gradientUnits="userSpaceOnUse">
      <stop offset="0" stop-color="#c9cacc"/>
      <stop offset=".06" stop-color="#c5c6c8"/>
      <stop offset=".12" stop-color="#babbbd"/>
      <stop offset=".17" stop-color="#a8a9aa"/>
      <stop offset=".22" stop-color="#8f9090"/>
      <stop offset=".23" stop-color="#8c8c8c"/>
      <stop offset=".66" stop-color="#cfcfcf"/>
      <stop offset=".73" stop-color="#d3d3d3"/>
      <stop offset="1" stop-color="#e0e0e0"/>
    </linearGradient>
    <linearGradient id="linear-gradient-2" x1="850.72" y1="738.12" x2="986.38" y2="738.98" gradientUnits="userSpaceOnUse">
      <stop offset="0" stop-color="#d7d8db"/>
      <stop offset=".06" stop-color="#d3d4d7"/>
      <stop offset=".11" stop-color="#c8c9cc"/>
      <stop offset=".17" stop-color="#b7b7b9"/>
      <stop offset=".22" stop-color="#9e9e9f"/>
      <stop offset=".23" stop-color="#969696"/>
      <stop offset=".31" stop-color="#a4a4a4"/>
      <stop offset=".72" stop-color="#e7e7e7"/>
      <stop offset=".9" stop-color="#dedede"/>
      <stop offset=".92" stop-color="#e3e3e3"/>
      <stop offset="1" stop-color="#f0f0f0"/>
    </linearGradient>
    <linearGradient id="linear-gradient-3" x1="634.14" y1="695.51" x2="1082.76" y2="380.3" gradientUnits="userSpaceOnUse">
      <stop offset="0" stop-color="#333"/>
      <stop offset="0" stop-color="#323232"/>
      <stop offset=".07" stop-color="#1b1b1b"/>
      <stop offset=".14" stop-color="#0c0c0c"/>
      <stop offset=".23" stop-color="#020202"/>
      <stop offset=".34" stop-color="#000"/>
      <stop offset="1" stop-color="#141414"/>
    </linearGradient>
    <linearGradient id="linear-gradient-4" x1="610.83" y1="825.92" x2="1248.65" y2="467.32" gradientUnits="userSpaceOnUse">
      <stop offset=".03" stop-color="#535353"/>
      <stop offset=".89" stop-color="#bcbcbc"/>
    </linearGradient>
    <linearGradient id="linear-gradient-5" x1="610.83" y1="823.96" x2="1248.65" y2="465.36" gradientUnits="userSpaceOnUse">
      <stop offset=".03" stop-color="#a2a2a2"/>
      <stop offset=".89" stop-color="#e0e0e0"/>
    </linearGradient>
    <linearGradient id="linear-gradient-6" x1="1173.62" y1="252.69" x2="708.35" y2="666.66" gradientUnits="userSpaceOnUse">
      <stop offset=".01" stop-color="#5c5c5c"/>
      <stop offset="1" stop-color="#000"/>
    </linearGradient>
    <linearGradient id="linear-gradient-7" x1="808.89" y1="729.94" x2="1123.74" y2="334.64" gradientUnits="userSpaceOnUse">
      <stop offset="0" stop-color="#4a4a4a"/>
      <stop offset=".1" stop-color="#3a3a3a"/>
      <stop offset=".31" stop-color="#212121"/>
      <stop offset=".53" stop-color="#0e0e0e"/>
      <stop offset=".75" stop-color="#030303"/>
      <stop offset="1" stop-color="#000"/>
    </linearGradient>
    <radialGradient id="radial-gradient-6" cx="1504.47" cy="-3559.6" fx="1562.12" fy="-3559.6" r="199.93" gradientTransform="translate(-940.81 1058.36) scale(1.44 .09)" xlink:href="#radial-gradient-2"/>
    <radialGradient id="radial-gradient-7" cx="770.53" cy="-2769.08" fx="828.22" fy="-2769.08" r="200.04" gradientTransform="translate(440.96 956.92) scale(.84 .08)" xlink:href="#radial-gradient-2"/>
    <radialGradient id="radial-gradient-8" cx="1065.17" cy="-2769.08" fx="1122.86" fy="-2769.08" r="200.04" gradientTransform="translate(440.96 956.92) scale(.84 .08)" xlink:href="#radial-gradient-2"/>
    <radialGradient id="radial-gradient-9" cx="911.15" cy="-2769.08" fx="968.84" fy="-2769.08" r="200.04" gradientTransform="translate(440.96 956.92) scale(.84 .08)" xlink:href="#radial-gradient-2"/>
    <linearGradient id="linear-gradient-8" x1="1030.69" y1="632.34" x2="1475.74" y2="632.34" gradientUnits="userSpaceOnUse">
      <stop offset="0" stop-color="#333"/>
      <stop offset="0" stop-color="#323232"/>
      <stop offset=".07" stop-color="#1b1b1b"/>
      <stop offset=".14" stop-color="#0c0c0c"/>
      <stop offset=".23" stop-color="#020202"/>
      <stop offset=".34" stop-color="#000"/>
      <stop offset=".7" stop-color="#000"/>
      <stop offset=".78" stop-color="#040404"/>
      <stop offset=".87" stop-color="#121212"/>
      <stop offset=".97" stop-color="#2a2a2a"/>
      <stop offset="1" stop-color="#333"/>
    </linearGradient>
    <linearGradient id="linear-gradient-9" x1="1197.57" y1="495.25" x2="1247.47" y2="730.63" xlink:href="#linear-gradient-6"/>
    <linearGradient id="linear-gradient-10" x1="1415.59" y1="319.93" x2="1114.7" y2="808.03" xlink:href="#linear-gradient-6"/>
    <linearGradient id="linear-gradient-11" x1="1135.18" y1="784.92" x2="1362" y2="545.01" xlink:href="#linear-gradient-7"/>
    <linearGradient id="linear-gradient-12" x1="992.89" y1="746.62" x2="1461.85" y2="746.62" gradientUnits="userSpaceOnUse">
      <stop offset=".02" stop-color="#444"/>
      <stop offset=".03" stop-color="#545454"/>
      <stop offset=".04" stop-color="#6f6f6f"/>
      <stop offset=".05" stop-color="#828282"/>
      <stop offset=".05" stop-color="#8e8e8e"/>
      <stop offset=".06" stop-color="#929292"/>
      <stop offset=".07" stop-color="#8e8e8e"/>
      <stop offset=".13" stop-color="#828282"/>
      <stop offset=".84" stop-color="#828282"/>
      <stop offset=".85" stop-color="#848484"/>
      <stop offset=".93" stop-color="#939393"/>
      <stop offset=".94" stop-color="#8d8d8d"/>
      <stop offset=".95" stop-color="#7c7c7c"/>
      <stop offset=".96" stop-color="#616161"/>
      <stop offset=".98" stop-color="#444"/>
    </linearGradient>
    <linearGradient id="linear-gradient-13" x1="990.48" y1="737.2" x2="1464.27" y2="737.2" gradientUnits="userSpaceOnUse">
      <stop offset=".02" stop-color="#7c7c7c"/>
      <stop offset=".03" stop-color="#8d8d8d"/>
      <stop offset=".03" stop-color="#afafaf"/>
      <stop offset=".04" stop-color="#cacaca"/>
      <stop offset=".05" stop-color="#ddd"/>
      <stop offset=".06" stop-color="#e9e9e9"/>
      <stop offset=".06" stop-color="#ededed"/>
      <stop offset=".09" stop-color="#e1e1e1"/>
      <stop offset=".13" stop-color="#d5d5d5"/>
      <stop offset=".84" stop-color="#d5d5d5"/>
      <stop offset=".87" stop-color="#dfdfdf"/>
      <stop offset=".93" stop-color="#eee"/>
      <stop offset=".93" stop-color="#e8e8e8"/>
      <stop offset=".95" stop-color="#d7d7d7"/>
      <stop offset=".96" stop-color="#bcbcbc"/>
      <stop offset=".97" stop-color="#979797"/>
      <stop offset=".98" stop-color="#7c7c7c"/>
    </linearGradient>
    <linearGradient id="linear-gradient-14" x1="1261.51" y1="759.55" x2="1182.88" y2="698.19" gradientUnits="userSpaceOnUse">
      <stop offset="0" stop-color="#6c6c6c"/>
      <stop offset="0" stop-color="#6f6f70"/>
      <stop offset=".01" stop-color="#878889"/>
      <stop offset=".02" stop-color="#989a9c"/>
      <stop offset=".03" stop-color="#a2a5a7"/>
      <stop offset=".04" stop-color="#a6a9ab"/>
      <stop offset=".21" stop-color="#aaadae"/>
      <stop offset="1" stop-color="#bfbfbf"/>
    </linearGradient>
    <radialGradient id="radial-gradient-10" cx="1932.46" cy="1289.62" fx="1932.46" fy="1289.62" r="30.5" gradientTransform="translate(-6731.26 202.32) scale(3.82 .42)" xlink:href="#radial-gradient-2"/>
    <radialGradient id="radial-gradient-11" cx="1918.01" cy="1289.62" fx="1918.01" fy="1289.62" r="20.51" gradientTransform="translate(-6731.26 202.32) scale(3.82 .42)" xlink:href="#radial-gradient-2"/>
    <radialGradient id="radial-gradient-12" cx="1945.71" cy="1289.62" fx="1945.71" fy="1289.62" r="20.51" gradientTransform="translate(-6731.26 202.32) scale(3.82 .42)" xlink:href="#radial-gradient-2"/>
    <radialGradient id="radial-gradient-13" cx="1931.19" cy="1289.62" fx="1931.19" fy="1289.62" r="20.51" gradientTransform="translate(-6731.26 202.32) scale(3.82 .42)" xlink:href="#radial-gradient-2"/>
    <linearGradient id="linear-gradient-15" x1="541.66" y1="622.02" x2="760.98" y2="622.02" xlink:href="#linear-gradient-8"/>
    <linearGradient id="linear-gradient-16" x1="803.56" y1="504.28" x2="601.55" y2="649.35" xlink:href="#linear-gradient-6"/>
    <linearGradient id="linear-gradient-17" x1="592.24" y1="521.52" x2="725.78" y2="804.86" xlink:href="#linear-gradient-7"/>
    <linearGradient id="linear-gradient-18" x1="559.42" y1="723.82" x2="726.37" y2="547.22" xlink:href="#linear-gradient-7"/>
    <radialGradient id="radial-gradient-14" cx="1866.65" cy="1327.07" fx="1866.65" fy="1327.07" r="21.63" gradientTransform="translate(-6120.46 179.96) scale(3.56 .44)" xlink:href="#radial-gradient-2"/>
    <radialGradient id="radial-gradient-15" cx="1865.75" cy="1327.07" fx="1865.75" fy="1327.07" r="14.55" gradientTransform="translate(-6120.46 179.96) scale(3.56 .44)" xlink:href="#radial-gradient-2"/>
    <linearGradient id="linear-gradient-19" x1="4264.33" y1="661.91" x2="4264.33" y2="632.71" gradientTransform="translate(4745.07) rotate(-180) scale(1 -1)" gradientUnits="userSpaceOnUse">
      <stop offset="0" stop-color="gray"/>
      <stop offset=".01" stop-color="#717171"/>
      <stop offset=".06" stop-color="#4f4f4f"/>
      <stop offset=".1" stop-color="#323232"/>
      <stop offset=".15" stop-color="#1c1c1c"/>
      <stop offset=".2" stop-color="#0c0c0c"/>
      <stop offset=".26" stop-color="#020202"/>
      <stop offset=".34" stop-color="#000"/>
      <stop offset=".7" stop-color="#000"/>
      <stop offset=".75" stop-color="#040404"/>
      <stop offset=".8" stop-color="#121212"/>
      <stop offset=".86" stop-color="#2a2a2a"/>
      <stop offset=".92" stop-color="#4a4a4a"/>
      <stop offset=".98" stop-color="#747474"/>
      <stop offset="1" stop-color="gray"/>
    </linearGradient>
    <linearGradient id="linear-gradient-20" y1="677.25" y2="665.27" xlink:href="#linear-gradient-19"/>
    <linearGradient id="linear-gradient-21" x1="4183.12" y1="687.54" x2="4264.96" y2="687.54" gradientTransform="translate(4745.07) rotate(-180) scale(1 -1)" xlink:href="#linear-gradient-8"/>
    <linearGradient id="linear-gradient-22" x1="4224.04" y1="609.95" x2="4224.04" y2="604.08" gradientTransform="translate(4745.07) rotate(-180) scale(1 -1)" gradientUnits="userSpaceOnUse">
      <stop offset="0" stop-color="#000"/>
      <stop offset=".16" stop-color="#040404"/>
      <stop offset=".34" stop-color="#121212"/>
      <stop offset=".53" stop-color="#2a2a2a"/>
      <stop offset=".74" stop-color="#4a4a4a"/>
      <stop offset=".95" stop-color="#747474"/>
      <stop offset="1" stop-color="gray"/>
    </linearGradient>
    <linearGradient id="linear-gradient-23" x1="-2397.6" y1="245.54" x2="-2397.6" y2="239.66" gradientTransform="translate(2918.63 1010.63) scale(1 -1)" xlink:href="#linear-gradient-22"/>
    <linearGradient id="linear-gradient-24" x1="671.94" y1="487.86" x2="489.67" y2="729.04" xlink:href="#linear-gradient-6"/>
    <linearGradient id="linear-gradient-25" x1="480.32" y1="732.04" x2="559.3" y2="617.54" xlink:href="#linear-gradient-7"/>
  </defs>
  <g class="cls-43">
    <g id="bg1">
      <g>
        <g>
          <rect class="cls-60" width="1920" height="1080"/>
          <g class="cls-35">
            <path class="cls-51" d="M1192.92-.94h-38.95c24.38,16.68,43.32,34.77,48.25,57.1,6.13,27.8-4.53,53.44-40.33,72.37-63.55,33.6-103.74,79.09-174.87,108.43-53.24,21.96-110.54,16.25-164.45,2.13-64.06-16.78-124.77-13.69-186.29,2.33-3.84,1-8.29,1.23-12.46,1.82,1.12-2.43,1.64-5.01,3.44-7.27,21.41-26.88,105.43-37.42,169.62-21.88,64.3,15.57,128.66,35.86,196.4,4.32,46.21-21.52,73.16-51.61,109.06-77.73,27.29-19.85,65.16-36.59,67.16-64.13,2.66-36.59-32.12-60.38-83.75-77.48h-259.22c24.49,4.77,48.89,9.72,73.77,13.72,47.12,7.57,93.96-4.23,141.02-1.85,45.98,2.33,79.98,16.15,102.06,38.61,13.57,13.79,13.14,28.11-3.32,41.73-6.46,5.35-14.88,8.64-25.86,7.71-13.13-1.11-18.5-7.3-21.38-13.88-19.46-44.62-42.17-54.02-120.62-41.75-51.23,8.01-89.21-7.08-130.49-16.56-89.73-20.62-178.38,11.67-178.79,66.05-.1,13.12-1.61,26.27-3.78,39.33-1.52,9.1-4.66,19.56-26.8,17.8-20.24-1.61-27.7-12.17-27.08-21.7,3.44-52.72,21.36-113.98,131-129.2h-81.45c-56.6,40.4-80.82,86.76-71.94,138.06,3.32,19.17,22.02,37.11,62.14,33.78,43.43-3.6,37.7-27.02,42.3-44.62,8.32-31.88.27-67.9,64.16-85.77,42.19-11.8,82.47-3.7,116.72,11.12,29.54,12.78,57.95,17.53,96.23,15.27,84.59-5.02,114.91,18.71,94.41,68.94-18.73,45.86-84.7,85.31-142.9,84.61-43.45-.53-75.35-17.78-113.27-26.34-73.94-16.69-133.51,1.38-189.58,26.51-85.18,38.17-176.4,68.92-287.97,74.4-10.36.51-22.67-.36-25.03-6.83-2.64-7.24,10.17-9.25,19.63-11.14,52.03-10.38,106.54-16.88,155.15-32.57,72.78-23.5,80.92-59.33,68.65-102.19-14.47-50.56,5.83-98.64,50.84-143.21h-42.82c-34.49,48.59-29.4,100.08-33.71,150.94-2.51,29.61-13.84,58.05-51.98,80.14-78.87,45.68-197.44,43.76-285.05-3.23-11.92-6.39-27.59-19.3-45.08-11.04-17.69,8.36-.03,18.99,10.73,27.38,7.35,5.73,14.61,11.58,23.11,16.75,45.13,27.43,85.53,59.58,164.11,55.28,47.7-2.61,84.93-19.27,126.07-30.54,89.05-24.4,178.89,7.07,178.89,63.09,0,69.27-125.75,118.12-252.51,103.16-87.71-10.35-165.41-35.75-252.48-46.04-49.01-5.79-108.02,13.11-120.23,40.76-10.23,23.16,18.33,42.76,70.86,50.76,74.51,11.35,143.97,27.3,193.04,64.16,51.59,38.76,70.02,40.08,142.94,11.44,60.58-23.8,122.84-34.62,195.88-19.58,66.8,13.75,94.54,3.65,95.18-36.41.82-51.41,42.8-84.43,125.96-102.65,71.53-15.67,108.99-53.77,91.03-95.01-9.58-22-40.84-30.61-77.33-25.92-32.56,4.19-20.62,20.63-16.05,32.68,12.4,32.7,8.06,61.91-45.13,83.13-33.66,13.43-65.49,27.91-81.46,50.55-12.17,17.26-25.12,34.44-48.21,48.06-50.94,30.07-119.77,25.01-183.7,28.65-136.26,7.74-248.88-28.65-361.84-63.57-22-6.8-48.3-16.54-30.68-32.94,16.71-15.55,45.83-10.34,68.72-2.58,76.29,25.84,150.39,53.06,240.67,63.01,77.12,8.5,155.22-2.24,191.01-29.8,68.87-53.04,86.74-113.06,83.02-176.96-2.28-39.2,37.64-56.89,103.53-44.42,105.52,19.97,201.76,18.59,281.52-31.21,41.29-25.78,73.57-56.23,124.06-77.24,44.12-18.35,64.68-41.79,56.09-73.23-6.53-23.9-24.09-45.48-39.56-67.55Z"/>
            <path class="cls-51" d="M1184.26,359.41c-.97-2.79-10.15-5.96-16.4-6.65-52.43-5.81-107-4.79-157.56-16.98-17.99-4.34-27.07,3.1-28.51,12.21-7,44.25-41.74,75.85-119.57,91.02-45.45,8.86-90.63,21.75-101.32,51.39-7.48,20.73-4.63,42.71-5.32,64.14-.88,27.37-26.16,40.4-72.89,35.31-41.34-4.5-81.83-13.65-123.33-15.15-89.22-3.23-143.55,30.9-193.37,65.85-23.6,16.56-19.53,35.2,10.36,49.66,19.74,9.55,40.88,6.07,59.63-1.49,22.39-9.02,41.33-22.06,65.83-27.93,127.36-30.5,251.03-15.9,364.65,20.52,101.18,32.43,123.24,76.57,77.16,120.12-42.66,40.31-115.97,51.92-187.79,65.53-96.01,18.19-180.22,43.57-206.2,106.09-14.01,33.72-44.11,62.1-110.8,67.97-60.29,5.3-98.47-17.26-136.24-39.51-31.93-18.8-61.55-39.99-106.71-49.35-78.84-16.32-137.37,5.95-193.02,32.61v38.83c16.5-13.6,31.7-27.8,56.54-37.48,73.64-28.68,136.55-21.88,192.14,18.83,37.69,27.61,78.17,54.01,126.54,75.99h180.93c-26.81-63.65,23.67-112.79,100.56-155.65,49.1-27.37,117.18-37.44,176.67-55.37,78.89-23.78,145.42-54.31,163.03-107.51,12.92-39.01-36.1-57.99-82.63-77.68-33.68-14.25-76.69-24.16-84.11-51.86-1.18-4.4,3.06-9.27,4.8-13.92,3.89,1.05,8.79,1.59,11.46,3.26,6.11,3.82,10.83,8.34,16.65,12.32,36.73,25.13,83.72,43.7,128.09,63.97,60.65,27.71,58.78,61.22,10.34,109.37-63.4,63.02-168.88,94.37-274.13,126.89-77.38,23.91-149.39,91.35-106.86,146.18h60.05c-54.12-63.59,6.08-130.53,117.28-151.84,48.94-9.38,102.8-14.08,136.31-40.4,39.02-30.65,60.07-67.63,106.96-95.63,22.2-13.26,45.93-27.43,42.08-47.78-5.08-26.89-46.83-37.77-77.84-52.98-57.36-28.13-127.12-51.43-151.18-94.6-32.43-58.19,22.47-102.63,87.38-143.25,61.35-38.39,147.97-54.9,223.91-80.65,9.27-3.14,18.79-7.69,16.45-14.39ZM872.55,485.9c-31.37,32.05-42.48,66.97-51.96,102.71-11.23,42.36-66.96,62.11-140.91,44.97-98-22.72-179.52-16.44-252.38,27.04-8.24,4.92-25.4,12.1-32.53,4.98-12.32-12.32,6.8-22.76,20.44-31.65,69.53-45.34,151.4-52.8,248.72-29.26,37.38,9.04,89.53,21.64,112.37-13.14,11.67-17.77,10.48-38.23,15.11-57.48,1.97-23.03-.59-47.17,32.3-64.95,13.93-7.53,32.71-14.83,50.66-8.28,17.62,6.42,5.91,17.16-1.82,25.06Z"/>
            <path class="cls-51" d="M901.32,759.7c-12.87-6.99-29.61,11.83-43.01,19.92-28.84,17.41-62.23,27.48-103.86,17.75-39.03-9.12-76.93-14.5-118.29-5.48-85.13,18.55-158.05,51.9-251.48,61.23-79.89,7.98-171.57-16.82-196.43-60.38-19.49-34.15-3.62-70.59-18.78-105.2-24.25-55.34-69.82-101.29-166.62-125.1v25.7c73.16,20.26,106.41,57.83,124.81,99.59,24.88,56.48,39.22,114.46,6.74,171.29-19.93,34.87-72.33,52.97-131.55,64.37v22.16c135.98-57.27,243.15-38.46,343.87,27.06,53.18,34.59,108.6,34.72,138.46-7.73,44.66-63.51,113.87-109.65,233.44-128.98,57.25-9.25,121.62-9.85,164.99-38.03,17-11.04,38.14-27.05,17.71-38.15ZM685.39,823.51c-78.59,23.31-139.66,60.6-215.67,85.86-27.12,9.01-57.05,13.45-92.52,13.55-51.13-1.11-100.38-12.15-145.46-29.23-9.64-3.65-23-9.14-15.19-17.48,10.31-11.02,29.44-9.8,45.74-6.02,121.33,28.1,216.65-4.32,311.05-41.2,31.81-12.43,64.8-24.95,107.09-22.97,8.96.42,17.1,2.73,17.04,6.81-.05,3.66-6.1,8.92-12.08,10.69Z"/>
            <path class="cls-51" d="M814.98,696.4c-91.71-22.08-188.62-14.11-283.92-9.93-19.4.85-39.79,10.98-35.98,24.2,2.52,8.75,23.48,7.4,35.78,5.71,69.04-9.44,138.52-15.32,209.34-8.99,20.99,1.88,53.31.48,53.24,17.35-.08,17.56-30.71,16.23-52.69,15.13-64.98-3.24-129.03-7.25-193.34,5.33-134.86,26.37-214.16,6.9-247.66-71.4-39.58-92.48-139.83-140.65-296.9-157.8v14.75c1.07.09,2.13.21,3.15.4,132.39,23.8,238.09,112.06,244.81,202.72,2.15,28.99,11.81,57.97,61.29,73.94,56.6,18.28,109.64,4.47,157.41-12.66,88.5-31.74,174.4-61.82,287.07-35.85,30.54,7.04,69.92-1.11,86.42-21.24,14.2-17.33.34-34.85-28.02-41.68Z"/>
            <path class="cls-51" d="M572.37,312.66c-24.13-19.84-74.72-22.28-118.77-4.64-35.93,14.38-65.94,34.3-114.36,36.07-75.95,2.79-124.49-23.66-172.55-51-65.34-37.17-84.43-39.38-163.84-16.47v36.2c75.32-21.09,131.3,5.96,191.33,25.73,106.58,35.1,175.27,30.92,279.29-14.41,14.53-6.33,34.28-15.18,49.21-5.58,18.07,11.63,2.64,24.85-13.37,33.73-71.8,39.86-159.05,40.88-251.02,30.97-61.72-6.65-111.03-30.11-171.21-38.42-30.89-4.27-57.93,1.67-84.23,9.45v33.25c29.38-13.5,62.15-24.5,100.68-17.83,61.55,10.66,120.11,27.04,182.03,36.76,85.83,13.46,173.44,23.79,255.46-9.1,46.07-18.48,61.97-59.53,31.36-84.7Z"/>
            <path class="cls-51" d="M394.17-.94h-80.75c-15.48,16.44-32.68,32.48-45.11,49.63-21.14,29.17-5.11,52.52,41.32,69.89,17.74,6.63,39.52,12.43,39.95,26.9.11,3.6-7.22,9.56-13.13,10.53-27.34,4.48-49.6-3.24-67.79-13.31C195.18,102.03,183.2,51.67,233.44,1.04c.63-.63,1.15-1.3,1.64-1.97h-36.39c-36.5,44.17-18.82,115.67,39.8,151.17,28.93,17.52,63.14,31.63,108.1,20.96,38.54-9.14,40.63-30.43,39.03-50.2-3.3-40.86-8.18-81.63,8.54-121.93Z"/>
            <path class="cls-51" d="M495.35-.94h-37.65c-2.01,3.28-4.08,6.56-5.58,9.91-20.71,46.31-3.83,94.07-16.86,140.72-8.9,31.87-51.96,62.08-103.35,67.16-46.6,4.61-86.24-6.38-111.56-28.11C153.22,131.15,121.01,68.3,138.42-.94h-39.72c-1.35,3.9-3.04,7.81-2.54,11.64,9.04,69.11,45.92,134.89,109.98,192.24,51.88,46.44,146.09,60.41,221.83,8.41,49.72-34.13,55.86-74.61,56.47-116.42.47-32.03-7.27-64.51,10.91-95.86Z"/>
            <path class="cls-51" d="M76.93,699.42c-9.34-28.04-28.63-54.2-74.08-70.46v38.02c38.34,28.56,42.95,62.45,43.87,96.74.64,23.69-11.72,44.55-43.87,60.32v57.77c28.54-6.09,47.62-18.45,60.71-33.32,42.59-48.4,30.04-99.05,13.38-149.08Z"/>
            <path class="cls-51" d="M106.57,125.43C88.68,83.28,45.24,44.47,52.02-.94h-28.6c-7.64,31.43,17.29,59.08,34.3,87.56,28.66,47.98,10.07,89.64-54.88,120.95v32.68c70.24-8.56,123.35-68.58,103.72-114.82Z"/>
            <path class="cls-51" d="M67.82,1080.94c12.23-28.4,38.89-49.9,97.35-48.46,51.1,1.26,73.31,28.65,105.91,46.18,1.33.72,2.58,1.48,3.79,2.27h34.05c-14.95-10.54-29.57-21.24-45.55-31.26-33-20.68-59.11-48.13-115.06-50.43-74.48-3.06-106.27,39.8-123.78,81.69h43.29Z"/>
            <path class="cls-51" d="M21.68,99.98c-3.12-13.44-5.73-27.4-18.83-39.36v106.06c.23-.13.44-.27.6-.42,21.81-20.68,23.53-43.46,18.23-66.28Z"/>
            <path class="cls-51" d="M212.98,1080.94c-10.99-9.86-25.33-18.1-46.69-18.55-22.04-.47-34.96,7.86-42.63,18.55h89.32Z"/>
            <path class="cls-51" d="M789.39,348.4c1.5,22.09-9.95,39.57-52,45.79-25.99,3.85-30.88-6.66-30.47-16.78,1.18-29.61,3.97-59.21,7.48-88.76.86-7.26,4.78-16.27,21.46-16.73,23.91-.66,29.59,11.36,35.98,20.75,12.11,17.8,17.94,36.51,17.56,55.72Z"/>
            <path class="cls-51" d="M900.66,192.45c-43.84-15.41-98.92-29.99-143-51.7-39.25-19.32-27.27-65.97,12.16-75.17,37.97-8.86,62.24,8.25,88.32,19.08,30.13,12.51,61.21,17.45,99.14,13.85,53.13-5.04,66.89,5.62,50.22,39.01-13.73,27.49-42.28,48.13-106.84,54.93Z"/>
          </g>
        </g>
        <g>
          <path class="cls-39" d="M1634.01,91.94l-24.95-9.05v-8.71l24.95-9.05v8.32l-21.82,7.48v-4.79l21.82,7.48v8.32Z"/>
          <path class="cls-39" d="M1634.75,100.55l16.14-46.08h9.78l-16.14,46.08h-9.78Z"/>
          <path class="cls-47" d="M1677.75,96.44c-2.74,0-5.28-.43-7.61-1.3-2.33-.86-4.35-2.1-6.07-3.69-1.71-1.6-3.04-3.49-3.99-5.68-.95-2.18-1.42-4.6-1.42-7.24s.47-5.05,1.42-7.24c.95-2.18,2.28-4.08,3.99-5.68,1.71-1.6,3.73-2.83,6.07-3.69,2.33-.86,4.87-1.3,7.61-1.3,3.36,0,6.34.59,8.93,1.76,2.59,1.17,4.74,2.87,6.43,5.09l-7.29,6.51c-1.01-1.27-2.13-2.26-3.35-2.96-1.22-.7-2.6-1.05-4.13-1.05-1.21,0-2.3.2-3.28.59-.98.39-1.82.96-2.52,1.71-.7.75-1.25,1.66-1.64,2.72-.39,1.06-.59,2.24-.59,3.55s.2,2.49.59,3.55c.39,1.06.94,1.97,1.64,2.72.7.75,1.54,1.32,2.52,1.71.98.39,2.07.59,3.28.59,1.53,0,2.91-.35,4.13-1.05,1.22-.7,2.34-1.69,3.35-2.96l7.29,6.51c-1.7,2.19-3.84,3.87-6.43,5.06s-5.57,1.79-8.93,1.79Z"/>
          <path class="cls-47" d="M1709.16,96.15c-3.03,0-5.72-.59-8.05-1.79-2.33-1.19-4.17-2.83-5.5-4.92-1.34-2.09-2.01-4.48-2.01-7.19s.67-5.1,2.01-7.19c1.34-2.09,3.17-3.72,5.5-4.89,2.33-1.17,5.01-1.76,8.05-1.76s5.72.59,8.07,1.76c2.35,1.17,4.18,2.81,5.5,4.89,1.32,2.09,1.98,4.48,1.98,7.19s-.66,5.1-1.98,7.19c-1.32,2.09-3.16,3.73-5.5,4.92-2.35,1.19-5.04,1.79-8.07,1.79ZM1709.16,87.54c.81,0,1.55-.2,2.2-.59.65-.39,1.17-.99,1.57-1.79.39-.8.59-1.77.59-2.91s-.2-2.14-.59-2.91c-.39-.77-.91-1.35-1.57-1.74-.65-.39-1.39-.59-2.2-.59s-1.55.2-2.2.59c-.65.39-1.17.97-1.57,1.74-.39.77-.59,1.74-.59,2.91s.2,2.11.59,2.91c.39.8.91,1.39,1.57,1.79.65.39,1.39.59,2.2.59Z"/>
          <path class="cls-47" d="M1739.93,96.15c-2.32,0-4.46-.56-6.43-1.69-1.97-1.12-3.55-2.72-4.72-4.79-1.17-2.07-1.76-4.54-1.76-7.41s.59-5.34,1.76-7.41c1.17-2.07,2.75-3.66,4.72-4.77,1.97-1.11,4.12-1.66,6.43-1.66s4.27.5,5.77,1.49c1.5,1,2.61,2.51,3.33,4.55.72,2.04,1.08,4.64,1.08,7.8s-.33,5.82-1,7.88c-.67,2.05-1.75,3.57-3.23,4.55-1.48.98-3.47,1.47-5.94,1.47ZM1742.57,87.54c.81,0,1.55-.2,2.2-.59.65-.39,1.17-.99,1.57-1.79.39-.8.59-1.77.59-2.91s-.2-2.14-.59-2.91c-.39-.77-.91-1.35-1.57-1.74-.65-.39-1.39-.59-2.2-.59s-1.55.2-2.2.59c-.65.39-1.17.97-1.57,1.74-.39.77-.59,1.74-.59,2.91s.2,2.11.59,2.91c.39.8.91,1.39,1.57,1.79.65.39,1.39.59,2.2.59ZM1747.27,95.66v-3.62l-.05-9.78-.49-9.78v-13.11h11.06v36.3h-10.52Z"/>
          <path class="cls-47" d="M1762.68,95.66v-26.76h10.52v8.07l-1.71-2.3c.82-2.09,2.12-3.65,3.91-4.7,1.79-1.04,3.95-1.57,6.46-1.57v9.78c-.49-.07-.92-.11-1.3-.15-.38-.03-.76-.05-1.15-.05-1.66,0-3.03.43-4.08,1.3-1.06.86-1.59,2.36-1.59,4.48v11.89h-11.06Z"/>
          <path class="cls-47" d="M1793.45,96.88l-11.64-27.98h11.35l8.02,20.84-7.73,7.14ZM1790.85,105.64c-1.47,0-2.96-.22-4.48-.66s-2.73-1.02-3.64-1.74l3.67-7.58c.55.42,1.18.77,1.88,1.03.7.26,1.38.39,2.03.39.98,0,1.73-.2,2.25-.61.52-.41.95-1.02,1.27-1.83l1.13-2.84.78-1.08,8.56-21.82h10.47l-11.01,27.3c-.98,2.45-2.11,4.35-3.4,5.72-1.29,1.37-2.72,2.33-4.31,2.89-1.58.55-3.32.83-5.21.83Z"/>
          <path class="cls-47" d="M1824.12,96.15c-2.19,0-4.01-.38-5.48-1.13-1.47-.75-2.58-1.75-3.33-3.01-.75-1.26-1.13-2.65-1.13-4.18,0-1.73.44-3.2,1.32-4.4.88-1.21,2.23-2.12,4.04-2.74,1.81-.62,4.1-.93,6.87-.93h5.58v5.33h-3.82c-1.17,0-2.03.19-2.57.56-.54.38-.81.94-.81,1.69,0,.62.24,1.13.71,1.54.47.41,1.12.61,1.93.61.75,0,1.44-.2,2.08-.61.64-.41,1.1-1.05,1.39-1.93l1.42,3.28c-.42,1.99-1.32,3.47-2.69,4.45-1.37.98-3.21,1.47-5.53,1.47ZM1831.7,95.66v-4.75l-.78-1.27v-9c0-1.3-.4-2.3-1.2-2.98-.8-.68-2.1-1.03-3.89-1.03-1.21,0-2.43.19-3.67.56-1.24.38-2.3.89-3.18,1.54l-3.52-7.29c1.57-.98,3.44-1.73,5.63-2.25,2.18-.52,4.32-.78,6.41-.78,4.6,0,8.16,1.03,10.69,3.08,2.53,2.05,3.79,5.32,3.79,9.78v14.38h-10.27Z"/>
          <path class="cls-39" d="M1847.02,91.94v-8.32l21.82-7.48v4.79l-21.82-7.48v-8.32l24.95,9.05v8.71l-24.95,9.05Z"/>
        </g>
        <text class="cls-45" transform="translate(42.05 88.26)"><tspan class="cls-32" x="0" y="0">W</tspan><tspan x="53.18" y="0">eb D</tspan><tspan class="cls-21" x="169.82" y="0">e</tspan><tspan class="cls-49" x="199.63" y="0">v</tspan><tspan x="227.61" y="0">elop</tspan><tspan class="cls-37" x="336.91" y="0">m</tspan><tspan class="cls-48" x="387.45" y="0">ent</tspan></text>
        <text class="cls-46" transform="translate(43.11 146.6)"><tspan x="0" y="0">Gü</tspan><tspan class="cls-49" x="69.36" y="0">v</tspan><tspan x="94.66" y="0">enli, Sağlam </tspan><tspan x="0" y="57.6">Mode</tspan><tspan class="cls-42" x="137.47" y="57.6">r</tspan><tspan x="156.33" y="57.6">n Al</tspan><tspan class="cls-18" x="248.69" y="57.6">t</tspan><tspan class="cls-49" x="266.49" y="57.6">y</tspan><tspan class="cls-48" x="291.79" y="57.6">apı</tspan></text>
      </g>
    </g>
    <g id="katman_4" data-name="katman 4">
      <ellipse class="cls-25" cx="976.07" cy="547.82" rx="625.07" ry="399.07"/>
    </g>
    <g id="katman_2" data-name="katman 2">
      <g>
        <g>
          <g class="cls-36">
            <path class="cls-16" d="M1159.88,739.21c0,6.59-97.42,11.93-217.59,11.93s-217.59-5.34-217.59-11.93,97.42-11.93,217.59-11.93,217.59,5.34,217.59,11.93Z"/>
            <path class="cls-10" d="M1005.08,739.21c0,4.43-65.51,8.02-146.33,8.02s-146.33-3.59-146.33-8.02,65.51-8.02,146.33-8.02,146.33,3.59,146.33,8.02Z"/>
            <path class="cls-17" d="M1136.38,739.21c0,4.43-65.51,8.02-146.33,8.02s-146.33-3.59-146.33-8.02,65.51-8.02,146.33-8.02,146.33,3.59,146.33,8.02Z"/>
            <path class="cls-7" d="M1079.59,739.21c0,4.43-65.51,8.02-146.33,8.02s-146.33-3.59-146.33-8.02,65.51-8.02,146.33-8.02,146.33,3.59,146.33,8.02Z"/>
          </g>
          <path class="cls-58" d="M1009.72,723.03c-9.25-9.14-14.76-24.08-14.76-40.04v-15.97h-124.16v15.97c0,15.96-5.51,30.91-14.77,40.04l-14.54,14.35h182.77l-14.54-14.35Z"/>
          <rect class="cls-20" x="841.49" y="737.38" width="182.77" height="2.52"/>
          <path class="cls-38" d="M1193.84,647.95v-319.36c0-5.66-4.59-10.26-10.26-10.26h-501.4c-5.67,0-10.26,4.6-10.26,10.26v319.36h521.93Z"/>
          <path class="cls-34" d="M671.92,618.88v45.95c0,5.67,4.59,10.27,10.26,10.27h501.4c5.67,0,10.26-4.6,10.26-10.27v-45.95h-521.93Z"/>
          <path class="cls-40" d="M671.92,616.91v45.95c0,5.67,4.59,10.27,10.26,10.27h501.4c5.67,0,10.26-4.6,10.26-10.27v-45.95h-521.93Z"/>
          <rect class="cls-55" x="687.8" y="334.51" width="489.73" height="265.12"/>
          <path class="cls-30" d="M1183.58,318.33h-366.51l195.87,329.62h180.91v-319.36c0-5.66-4.59-10.26-10.26-10.26Z"/>
        </g>
        <g>
          <g class="cls-36">
            <path class="cls-5" d="M1508.04,746.89c0,9.86-106.4,17.87-268.96,17.87s-294.35-8.01-294.35-17.87,131.79-17.87,294.35-17.87,268.96,8,268.96,17.87Z"/>
            <path class="cls-13" d="M1256.6,748.4c0,8.5-62.36,15.39-157.64,15.39s-172.52-6.9-172.52-15.39,77.24-15.4,172.52-15.4,157.64,6.89,157.64,15.4Z"/>
            <path class="cls-6" d="M1505.37,748.4c0,8.5-62.36,15.39-157.64,15.39s-172.52-6.9-172.52-15.39,77.24-15.4,172.52-15.4,157.64,6.89,157.64,15.4Z"/>
            <path class="cls-4" d="M1375.33,748.4c0,8.5-62.36,15.39-157.64,15.39s-172.52-6.9-172.52-15.39,77.24-15.4,172.52-15.4,157.64,6.89,157.64,15.4Z"/>
          </g>
          <g>
            <g>
              <path class="cls-44" d="M1403,744.36v-216.68c0-4.07-3.3-7.37-7.36-7.37h-336.54c-4.07,0-7.36,3.3-7.36,7.37v216.68h351.25Z"/>
              <path class="cls-52" d="M1403.44,744.81h-352.14v-217.13c0-4.31,3.5-7.81,7.81-7.81h336.54c4.3,0,7.8,3.51,7.8,7.81v217.13ZM1052.19,743.92h350.37v-216.24c0-3.82-3.1-6.92-6.91-6.92h-336.54c-3.81,0-6.92,3.11-6.92,6.92v216.24Z"/>
              <rect class="cls-22" x="1058.58" y="527.87" width="337.28" height="195.27"/>
              <path class="cls-28" d="M1403,744.36v-216.68c0-4.07-3.3-7.37-7.36-7.37h-239.77l133.13,224.05h113.99Z"/>
            </g>
            <g>
              <path class="cls-31" d="M1461.85,740.74c-.75.71-1.6,1.28-2.56,1.71-.32.14-.64.25-.92.32l-14.12,4.87c-9.37,3.23-19.2,4.88-29.11,4.88h-375.57c-9.9,0-19.72-1.64-29.08-4.87l-14.07-4.84-1-.36c-.96-.43-1.81-1-2.52-1.71h468.96Z"/>
              <path class="cls-3" d="M1464.27,731.31v3.63c0,2.28-.92,4.34-2.42,5.8-.75.71-1.6,1.28-2.56,1.71-.32.14-.64.25-.92.32-.71.21-1.49.32-2.28.32h-457.47c-.75,0-1.49-.11-2.21-.28l-1-.36c-.96-.43-1.81-1-2.52-1.71-1.49-1.46-2.42-3.52-2.42-5.8v-3.63h473.79Z"/>
              <path class="cls-53" d="M1279.42,731.31v.21c0,3.38-2.74,6.12-6.12,6.12h-97.9c-3.38,0-6.12-2.74-6.12-6.12v-.21h110.14Z"/>
              <path class="cls-59" d="M1282.44,731.31v.21c0,3.38-2.74,6.12-6.12,6.12h-97.9c-3.38,0-6.12-2.74-6.12-6.12v-.21h110.14Z"/>
            </g>
          </g>
        </g>
        <g>
          <g class="cls-1">
            <path class="cls-11" d="M760.77,743.7c0,7.07-52.12,12.81-116.42,12.81s-116.42-5.73-116.42-12.81,52.12-12.81,116.42-12.81,116.42,5.73,116.42,12.81Z"/>
            <path class="cls-12" d="M667.48,743.7c0,4.76-35.05,8.61-78.29,8.61s-78.29-3.86-78.29-8.61,35.05-8.61,78.29-8.61,78.29,3.86,78.29,8.61Z"/>
            <path class="cls-8" d="M773.23,743.7c0,4.76-35.05,8.61-78.29,8.61s-78.29-3.86-78.29-8.61,35.05-8.61,78.29-8.61,78.29,3.86,78.29,8.61Z"/>
            <path class="cls-15" d="M717.81,743.7c0,4.76-35.05,8.61-78.29,8.61s-78.29-3.86-78.29-8.61,35.05-8.61,78.29-8.61,78.29,3.86,78.29,8.61Z"/>
          </g>
          <g>
            <rect class="cls-2" x="541.66" y="499.33" width="195.9" height="245.38" rx="3.37" ry="3.37"/>
            <path class="cls-57" d="M732.06,510.63v222.79c0,2.12-1.72,3.84-3.87,3.84h-177.16c-2.15,0-3.87-1.72-3.87-3.84v-222.79c0-2.12,1.72-3.84,3.87-3.84h177.16c2.15,0,3.87,1.72,3.87,3.84Z"/>
            <path class="cls-29" d="M728.32,745.16h-177.43c-5.34,0-9.68-4.34-9.68-9.68v-226.91c0-5.34,4.34-9.68,9.68-9.68h177.43c5.34,0,9.69,4.34,9.69,9.68v226.91c0,5.34-4.35,9.68-9.69,9.68ZM550.89,499.78c-4.84,0-8.79,3.94-8.79,8.79v226.91c0,4.84,3.94,8.79,8.79,8.79h177.43c4.85,0,8.79-3.94,8.79-8.79v-226.91c0-4.84-3.94-8.79-8.79-8.79h-177.43Z"/>
            <path class="cls-24" d="M732.06,510.63v222.79c0,2.12-1.72,3.84-3.87,3.84h-9.76l-136.99-230.46h146.74c2.15,0,3.87,1.72,3.87,3.84Z"/>
          </g>
        </g>
        <g>
          <g class="cls-1">
            <ellipse class="cls-14" cx="521.07" cy="767.72" rx="76.97" ry="9.58"/>
            <ellipse class="cls-9" cx="517.88" cy="767.72" rx="51.76" ry="6.44"/>
          </g>
          <g>
            <g>
              <path class="cls-54" d="M480.06,632.71h1.34c.41,0,.74.33.74.74v27.73c0,.41-.33.74-.74.74h-1.34c-.41,0-.74-.33-.74-.74v-27.73c0-.41.33-.74.74-.74Z"/>
              <path class="cls-50" d="M480.06,665.27h1.34c.41,0,.74.33.74.74v10.5c0,.41-.33.74-.74.74h-1.34c-.41,0-.74-.33-.74-.74v-10.5c0-.41.33-.74.74-.74Z"/>
              <rect class="cls-56" x="480.11" y="604.66" width="81.84" height="165.76" rx="11.43" ry="11.43"/>
              <path class="cls-27" d="M492.5,605.53h57.05c6.31,0,11.43,5.12,11.43,11.43v1.63c0-6.31-5.12-11.43-11.43-11.43h-57.05c-6.31,0-11.43,5.12-11.43,11.43v-1.63c0-6.31,5.12-11.43,11.43-11.43Z"/>
              <path class="cls-26" d="M549.56,769.51h-57.05c-6.31,0-11.43-5.12-11.43-11.43v-1.63c0,6.31,5.12,11.43,11.43,11.43h57.05c6.31,0,11.43-5.12,11.43-11.43v1.63c0,6.31-5.12,11.43-11.43,11.43Z"/>
              <path class="cls-41" d="M559.85,617.06v140.98c0,4.79-3.89,8.64-8.68,8.64h-60.29c-4.79,0-8.68-3.85-8.68-8.64v-140.98c0-4.3,3.14-7.82,7.22-8.49.49-.11.97-.15,1.46-.15h10.58c1.35,0,2.43,1.08,2.43,2.43s1.08,2.47,2.43,2.47h29.4c1.35,0,2.43-1.12,2.43-2.47s1.08-2.43,2.43-2.43h10.58c4.79,0,8.68,3.85,8.68,8.64Z"/>
            </g>
            <path class="cls-23" d="M559.85,617.06v109.96l-70.42-118.45c.49-.11.97-.15,1.46-.15h10.58c1.35,0,2.43,1.08,2.43,2.43s1.08,2.47,2.43,2.47h29.4c1.35,0,2.43-1.12,2.43-2.47s1.08-2.43,2.43-2.43h10.58c4.79,0,8.68,3.85,8.68,8.64Z"/>
          </g>
        </g>
      </g>
    </g>
  </g>
</svg>