<svg width="85" height="85" viewBox="0 0 85 85" fill="none" xmlns="http://www.w3.org/2000/svg">
<circle cx="42.5" cy="42.5" r="42.5" fill="#E85E28"/>
<path d="M43 54.3985V29.6999M43 54.3985C43.0011 55.4373 43.2152 56.4648 43.629 57.4176C44.0428 58.3704 44.6475 59.2282 45.4059 59.9382C46.1643 60.6481 47.0601 61.195 48.0382 61.5452C49.0162 61.8954 50.0556 62.0413 51.0923 61.974C52.1289 61.9068 53.1408 61.6277 54.0654 61.1541C54.9899 60.6805 55.8076 60.0224 56.4678 59.2204C57.1281 58.4184 57.6169 57.4896 57.9041 56.4913C58.1913 55.493 58.2707 54.4465 58.1376 53.4163M43 54.3985C42.9989 55.4373 42.7848 56.4648 42.371 57.4176C41.9572 58.3704 41.3525 59.2282 40.5941 59.9382C39.8357 60.6481 38.9399 61.195 37.9618 61.5452C36.9838 61.8954 35.9444 62.0413 34.9077 61.974C33.8711 61.9068 32.8592 61.6277 31.9346 61.1541C31.0101 60.6805 30.1924 60.0224 29.5322 59.2204C28.8719 58.4184 28.3831 57.4896 28.0959 56.4913C27.8087 55.493 27.7293 54.4465 27.8624 53.4163M43 29.6999C43 28.8256 43.2011 27.9631 43.5878 27.1789C43.9744 26.3948 44.5363 25.7101 45.23 25.1779C45.9237 24.6456 46.7305 24.2801 47.588 24.1095C48.4456 23.939 49.3309 23.9679 50.1754 24.1942C51.02 24.4205 51.8011 24.838 52.4585 25.4145C53.1159 25.991 53.6318 26.7109 53.9664 27.5186C54.3009 28.3264 54.4452 29.2003 54.388 30.0727C54.3308 30.9451 54.0736 31.7926 53.6364 32.5498M43 29.6999C43 28.8256 42.7989 27.9631 42.4122 27.1789C42.0256 26.3948 41.4636 25.7101 40.77 25.1779C40.0763 24.6456 39.2695 24.2801 38.412 24.1095C37.5544 23.939 36.6691 23.9679 35.8246 24.1942C34.98 24.4205 34.1989 24.838 33.5415 25.4145C32.8841 25.991 32.3682 26.7109 32.0336 27.5186C31.6991 28.3264 31.5548 29.2003 31.612 30.0727C31.6692 30.9451 31.9264 31.7926 32.3636 32.5498M48.7001 44.8991C47.0562 44.4186 45.6122 43.4183 44.5846 42.0483C43.557 40.6782 43.001 39.0121 43 37.2995C42.999 39.0121 42.443 40.6782 41.4154 42.0483C40.3877 43.4183 38.9438 44.4186 37.2999 44.8991M54.3945 29.9374C55.5113 30.2246 56.5482 30.7621 57.4265 31.5092C58.3048 32.2564 59.0016 33.1936 59.4641 34.2499C59.9265 35.3062 60.1426 36.4539 60.0958 37.606C60.049 38.7581 59.7406 39.8845 59.194 40.8998M54.4002 54.3985C56.0732 54.3985 57.6994 53.8464 59.0267 52.828C60.3539 51.8096 61.308 50.3818 61.741 48.7659C62.174 47.15 62.0617 45.4365 61.4215 43.8909C60.7814 42.3454 59.6491 41.0542 58.2003 40.2177M31.5998 54.3985C29.9268 54.3985 28.3006 53.8464 26.9733 52.828C25.6461 51.8096 24.692 50.3818 24.259 48.7659C23.826 47.15 23.9383 45.4365 24.5784 43.8909C25.2186 42.3454 26.3509 41.0542 27.7997 40.2177M31.6055 29.9374C30.4887 30.2246 29.4518 30.7621 28.5735 31.5092C27.6952 32.2564 26.9984 33.1936 26.5359 34.2499C26.0735 35.3062 25.8574 36.4539 25.9042 37.606C25.951 38.7581 26.2594 39.8845 26.806 40.8998" stroke="#FFFEFB" stroke-width="3.5" stroke-linecap="round" stroke-linejoin="round"/>
</svg>
