<svg width="85" height="85" viewBox="0 0 85 85" fill="none" xmlns="http://www.w3.org/2000/svg">
<circle cx="42.5" cy="42.5" r="42.5" fill="#E85E28"/>
<path d="M23.6398 58.167L32.1732 49.63C29.6146 46.2959 28.4201 42.1133 28.8319 37.9308C29.2437 33.7483 31.2311 29.8791 34.3908 27.108C37.5505 24.3368 41.646 22.8714 45.8465 23.0089C50.047 23.1463 54.0379 24.8764 57.0097 27.8482C59.9814 30.82 61.7115 34.8109 61.849 39.0114C61.9865 43.2119 60.521 47.3073 57.7499 50.4671C54.9788 53.6268 51.1096 55.6141 46.9271 56.026C42.7446 56.4378 38.562 55.2433 35.2279 52.6847L26.6873 61.227C26.4868 61.4276 26.2486 61.5867 25.9866 61.6953C25.7245 61.8038 25.4436 61.8597 25.16 61.8597C24.8763 61.8597 24.5955 61.8038 24.3334 61.6953C24.0713 61.5867 23.8332 61.4276 23.6326 61.227C23.4321 61.0265 23.273 60.7883 23.1644 60.5263C23.0559 60.2642 23 59.9833 23 59.6997C23 59.416 23.0559 59.1352 23.1644 58.8731C23.273 58.611 23.4321 58.3729 23.6326 58.1723L23.6398 58.167ZM57.5091 39.5675C57.5091 37.1509 56.7925 34.7885 55.4499 32.7791C54.1073 30.7698 52.199 29.2037 49.9663 28.2789C47.7336 27.354 45.2768 27.1121 42.9066 27.5835C40.5364 28.055 38.3592 29.2187 36.6504 30.9275C34.9416 32.6364 33.7779 34.8135 33.3064 37.1837C32.8349 39.5539 33.0769 42.0107 34.0017 44.2434C34.9265 46.4761 36.4926 48.3844 38.502 49.727C40.5114 51.0696 42.8737 51.7863 45.2904 51.7863C48.53 51.7829 51.6359 50.4945 53.9267 48.2038C56.2174 45.913 57.5058 42.8071 57.5091 39.5675Z" fill="#FFFEFB"/>
</svg>
