<svg width="248" height="137" viewBox="0 0 248 137" fill="none" xmlns="http://www.w3.org/2000/svg">
<path d="M248 0.119141H0V136.881H248V0.119141Z" fill="#0C0C0C"/>
<g opacity="0.5">
<path d="M153.641 0H148.613C151.76 2.11221 154.206 4.40298 154.842 7.23066C155.633 10.751 154.257 13.9978 149.635 16.395C141.431 20.6498 136.242 26.4103 127.059 30.1256C120.186 32.9064 112.788 32.1834 105.829 30.3953C97.5583 28.2705 89.7206 28.6618 81.7782 30.6904C81.2825 30.817 80.708 30.8462 80.1696 30.9209C80.3142 30.6132 80.3813 30.2864 80.6137 30.0003C83.3778 26.5964 94.2249 25.2617 102.512 27.2296C110.813 29.2012 119.122 31.7706 127.868 27.7766C133.833 25.0515 137.313 21.2412 141.947 17.9335C145.471 15.4199 150.36 13.3001 150.618 9.81267C150.961 5.17923 146.471 2.16666 139.806 0.00126631H106.34C109.502 0.605298 112.652 1.23212 115.864 1.73865C121.947 2.69725 127.994 1.203 134.07 1.50438C140.006 1.79943 144.395 3.54948 147.246 6.39362C148.998 8.13987 148.942 9.95323 146.817 11.678C145.983 12.3554 144.896 12.772 143.479 12.6543C141.783 12.5137 141.09 11.7299 140.718 10.8966C138.206 5.24634 135.274 4.05601 125.146 5.60977C118.532 6.62409 113.629 4.71322 108.3 3.51276C96.7153 0.901616 85.2704 4.99054 85.2175 11.8768C85.2046 13.5382 85.0096 15.2034 84.7295 16.8572C84.5332 18.0095 84.1279 19.3341 81.2696 19.1112C78.6565 18.9073 77.6934 17.5701 77.7735 16.3633C78.2176 9.68731 80.5311 1.92986 94.6858 0.00253263H84.1705C76.8633 5.11844 73.7365 10.9891 74.8829 17.4853C75.3115 19.9128 77.7257 22.1846 82.9053 21.7629C88.5122 21.307 87.7724 18.3413 88.3663 16.1126C89.4404 12.0756 88.4011 7.51431 96.6494 5.25141C102.096 3.75715 107.296 4.78287 111.718 6.65955C115.532 8.2779 119.2 8.8794 124.142 8.59321C135.062 7.95752 138.977 10.9625 136.33 17.3232C133.912 23.1305 125.395 28.1261 117.882 28.0375C112.272 27.9704 108.154 25.786 103.258 24.702C93.7124 22.5885 86.0218 24.8767 78.7831 28.059C67.7862 32.8925 56.0095 36.7864 41.6056 37.4804C40.2681 37.545 38.6789 37.4348 38.3742 36.6155C38.0334 35.6987 39.6872 35.4441 40.9085 35.2048C47.6256 33.8904 54.663 33.0673 60.9386 31.0804C70.3346 28.1046 71.3855 23.5674 69.8014 18.14C67.9333 11.7375 70.5541 5.64903 76.365 0.00506526H70.8368C66.3841 6.15809 67.0412 12.6783 66.4848 19.1188C66.1608 22.8684 64.698 26.4698 59.7741 29.2671C49.5919 35.0516 34.2843 34.8084 22.9737 28.858C21.4348 28.0489 19.4117 26.4141 17.1537 27.46C14.8699 28.5187 17.1499 29.8648 18.539 30.9272C19.4879 31.6528 20.4252 32.3936 21.5226 33.0483C27.3489 36.5218 32.5646 40.593 42.7094 40.0485C48.8676 39.718 53.674 37.6083 58.9853 36.1811C70.4818 33.0913 82.0803 37.0764 82.0803 44.1703C82.0803 52.9421 65.8458 59.128 49.4808 57.2336C38.1573 55.923 28.1261 52.7065 16.8852 51.4035C10.5579 50.6703 2.93965 53.0636 1.36331 56.565C0.0426036 59.4978 3.72975 61.9798 10.5115 62.9928C20.1308 64.4301 29.0982 66.4498 35.4333 71.1175C42.0936 76.0257 44.473 76.1929 53.8871 72.5661C61.708 69.5523 69.7459 68.1822 79.1755 70.0867C87.7995 71.8279 91.3808 70.5489 91.4634 65.4761C91.5693 58.9659 96.989 54.7846 107.725 52.4773C116.96 50.493 121.796 45.6684 119.477 40.4461C118.24 37.6602 114.205 36.5699 109.494 37.1638C105.29 37.6944 106.832 39.7762 107.422 41.3021C109.023 45.443 108.462 49.1419 101.595 51.829C97.2498 53.5296 93.1405 55.3633 91.0787 58.2302C89.5075 60.4159 87.8357 62.5914 84.8547 64.3161C78.2783 68.1239 69.3922 67.4832 61.1387 67.9441C43.5473 68.9242 29.0079 64.3161 14.4245 59.8941C11.5843 59.033 8.18892 57.7997 10.4637 55.7229C12.621 53.7538 16.3804 54.4135 19.3356 55.3962C29.1847 58.6683 38.7512 62.1153 50.4065 63.3752C60.3628 64.4516 70.4457 63.0916 75.0662 59.6016C83.9574 52.8851 86.2645 45.2847 85.7842 37.1929C85.4899 32.229 90.6436 29.9889 99.1501 31.568C112.773 34.0968 125.198 33.922 135.495 27.6158C140.825 24.3512 144.993 20.4953 151.511 17.8348C157.207 15.5111 159.862 12.5428 158.753 8.56155C157.91 5.53506 155.642 2.80235 153.645 0.00759789L153.641 0Z" fill="#404040"/>
<path d="M152.523 45.6316C152.398 45.2783 151.213 44.8769 150.406 44.7895C143.637 44.0538 136.592 44.183 130.065 42.6393C127.742 42.0898 126.57 43.0319 126.384 44.1855C125.48 49.7889 120.995 53.7905 110.947 55.7115C105.08 56.8335 99.247 58.4657 97.8669 62.2191C96.9012 64.8442 97.2691 67.6275 97.18 70.3412C97.0664 73.8071 93.8027 75.4571 87.7698 74.8126C82.4328 74.2427 77.2054 73.0841 71.8477 72.8941C60.3292 72.4851 53.3151 76.807 46.8833 81.2328C43.8365 83.3298 44.3619 85.6902 48.2208 87.5213C50.7693 88.7307 53.4985 88.29 55.9191 87.3326C58.8097 86.1904 61.2549 84.5391 64.4179 83.7958C80.8603 79.9336 96.8263 81.7824 111.495 86.3943C124.557 90.501 127.405 96.0905 121.456 101.605C115.949 106.71 106.484 108.18 97.2123 109.903C84.8173 112.207 73.9456 115.421 70.5915 123.338C68.7828 127.608 64.8969 131.202 56.2871 131.945C48.5035 132.616 43.5744 129.759 38.6982 126.942C34.576 124.561 30.752 121.878 24.9218 120.692C14.7434 118.626 7.18709 121.446 0.00258203 124.822V129.739C2.13276 128.017 4.09511 126.219 7.30199 124.993C16.809 121.361 24.9308 122.222 32.1076 127.377C36.9734 130.874 42.1995 134.217 48.4441 137H71.8025C68.3413 128.94 74.8584 122.717 84.785 117.29C91.1239 113.824 99.9131 112.549 107.593 110.278C117.778 107.267 126.367 103.401 128.641 96.6641C130.309 91.7242 123.98 89.3207 117.973 86.8274C113.625 85.0229 108.072 83.768 107.114 80.2603C106.962 79.7031 107.509 79.0864 107.734 78.4976C108.236 78.6305 108.869 78.6989 109.214 78.9104C110.002 79.3941 110.612 79.9665 111.363 80.4705C116.105 83.6527 122.172 86.0043 127.9 88.5711C135.73 92.08 135.488 96.3235 129.235 102.421C121.05 110.401 107.432 114.371 93.8441 118.489C83.8542 121.517 74.5575 130.057 80.0482 137H87.8008C80.8138 128.948 88.5857 120.471 102.942 117.772C109.26 116.584 116.214 115.989 120.54 112.656C125.577 108.775 128.295 104.092 134.348 100.547C137.214 98.8675 140.278 97.0731 139.781 94.4962C139.125 91.0911 133.735 89.7133 129.732 87.7872C122.326 84.2251 113.32 81.2746 110.214 75.8079C106.027 68.4392 113.115 62.8117 121.495 57.668C129.415 52.8066 140.598 50.7159 150.402 47.4551C151.599 47.0575 152.828 46.4813 152.526 45.6329L152.523 45.6316ZM112.281 61.6493C108.231 65.7078 106.797 70.1298 105.573 74.6556C104.123 80.0197 96.9283 82.5206 87.3812 80.3502C74.7293 77.4731 64.2049 78.2684 54.7985 83.7743C53.7347 84.3973 51.5193 85.3065 50.5988 84.4049C49.0083 82.8448 51.4767 81.5228 53.2377 80.397C62.2141 74.6556 72.7837 73.7109 85.3479 76.6918C90.1737 77.8365 96.9063 79.4321 99.855 75.0279C101.362 72.7776 101.208 70.1867 101.806 67.7491C102.06 64.8328 101.73 61.7759 105.976 59.5244C107.774 58.5708 110.199 57.6464 112.516 58.4759C114.791 59.2888 113.279 60.6489 112.281 61.6493Z" fill="#404040"/>
<path d="M115.995 96.3209C114.334 95.4358 112.173 97.819 110.443 98.8434C106.719 101.048 102.409 102.323 97.0342 101.091C91.9953 99.9363 87.1024 99.255 81.7627 100.397C70.7723 102.746 61.3582 106.969 49.2962 108.151C38.9823 109.161 27.1462 106.021 23.9368 100.505C21.4206 96.1804 23.4694 91.5659 21.5122 87.1832C18.3815 80.1754 12.4983 74.3567 0.00129102 71.3416V74.596C9.44637 77.1616 13.739 81.9191 16.1145 87.2073C19.3265 94.3594 21.1778 101.702 16.9846 108.898C14.4116 113.314 7.6467 115.606 0.00129102 117.049V119.855C17.5565 112.603 31.3924 114.985 44.3955 123.282C51.2611 127.662 58.416 127.679 62.2709 122.303C68.0366 114.261 76.9717 108.418 92.4084 105.97C99.7995 104.799 108.11 104.723 113.709 101.154C115.904 99.7564 118.633 97.7291 115.995 96.3235V96.3209ZM88.1184 104.401C77.9723 107.353 70.088 112.075 60.275 115.274C56.7738 116.415 52.9098 116.977 48.3305 116.99C41.7296 116.849 35.3713 115.451 29.5514 113.288C28.3068 112.826 26.582 112.131 27.5903 111.075C28.9214 109.679 31.3911 109.834 33.4954 110.312C49.1594 113.871 61.4653 109.765 73.6525 105.095C77.7593 103.521 82.0183 101.936 87.4781 102.187C88.6348 102.24 89.6857 102.532 89.6779 103.049C89.6715 103.512 88.8904 104.178 88.1184 104.403V104.401Z" fill="#404040"/>
<path d="M104.849 88.3052C93.0088 85.5091 80.4975 86.5184 68.1941 87.0477C65.6896 87.1553 63.0572 88.4381 63.549 90.1122C63.8744 91.2202 66.5804 91.0493 68.1683 90.8353C77.0815 89.6399 86.0515 88.8953 95.1945 89.6968C97.9043 89.9349 102.077 89.7576 102.068 91.8939C102.058 94.1175 98.1031 93.9491 95.2655 93.8098C86.8764 93.3996 78.6075 92.8918 70.3049 94.4848C52.8943 97.8241 42.6565 95.3585 38.3316 85.4433C33.2218 73.7324 20.2793 67.6326 0.00129102 65.4609V67.3287C0.13943 67.3401 0.276278 67.3553 0.407962 67.3793C17.4997 70.3932 31.1458 81.5696 32.0134 93.05C32.2909 96.7211 33.5381 100.391 39.926 102.413C47.2332 104.728 54.0807 102.979 60.2479 100.81C71.6734 96.7907 82.7633 92.9817 97.3092 96.2703C101.252 97.1618 106.336 96.1297 108.466 93.5806C110.299 91.3861 108.51 89.1675 104.849 88.3026V88.3052Z" fill="#404040"/>
<path d="M73.5273 39.7116C70.4121 37.1993 63.8808 36.8903 58.1939 39.124C53.5553 40.945 49.6809 43.4675 43.4298 43.6916C33.6245 44.0449 27.3579 40.6955 21.1533 37.2334C12.7178 32.5266 10.2533 32.2467 0.00129102 35.1478V39.7319C9.72523 37.0612 16.9523 40.4866 24.7023 42.9901C38.462 47.4349 47.33 46.9056 60.7592 41.1654C62.635 40.3638 65.1848 39.2431 67.1123 40.4587C69.4451 41.9315 67.4531 43.6055 65.3862 44.73C56.1167 49.7776 44.8525 49.9067 32.979 48.6518C25.0109 47.8097 18.6449 44.8389 10.8755 43.7866C6.88758 43.2459 3.39667 43.9981 0.00129102 44.9833V49.1938C3.7943 47.4843 8.02496 46.0913 12.9993 46.9359C20.9455 48.2858 28.5057 50.3601 36.4996 51.5909C47.5804 53.2954 58.8911 54.6035 69.48 50.4386C75.4277 48.0984 77.4804 42.9002 73.5286 39.7129L73.5273 39.7116Z" fill="#404040"/>
<path d="M50.5214 0H40.0964C38.0979 2.08182 35.8774 4.11299 34.2726 6.28472C31.5434 9.97856 33.6129 12.9354 39.6071 15.135C41.8974 15.9746 44.7092 16.709 44.7647 18.5414C44.7789 18.9972 43.8326 19.752 43.0696 19.8748C39.54 20.4421 36.6662 19.4645 34.3178 18.1893C24.8314 13.0392 23.2848 6.66208 29.7709 0.25073C29.8522 0.170952 29.9193 0.0861094 29.9826 0.00126631H25.2846C20.5724 5.59458 22.8549 14.6487 30.4228 19.1441C34.1577 21.3627 38.5743 23.1495 44.3787 21.7983C49.3543 20.6409 49.6241 17.9449 49.4176 15.4414C48.9915 10.2673 48.3615 5.10451 50.5201 0.00126631L50.5214 0Z" fill="#404040"/>
<path d="M63.5839 0H58.7232C58.4637 0.415351 58.1965 0.830702 58.0028 1.25492C55.3291 7.11922 57.5084 13.1671 55.8262 19.0745C54.6772 23.1102 49.118 26.9358 42.4835 27.5791C36.4674 28.1628 31.3498 26.7712 28.0809 24.0195C19.4143 16.7267 15.256 8.76796 17.5036 0H12.3757C12.2014 0.493863 11.9832 0.988991 12.0478 1.47399C13.2149 10.2255 17.9761 18.5553 26.2464 25.8176C32.9442 31.6984 45.1069 33.4674 54.885 26.8826C61.304 22.5607 62.0966 17.4346 62.1754 12.1402C62.2361 8.08415 61.2368 3.97116 63.5839 0.00126631V0Z" fill="#404040"/>
<path d="M9.56515 88.6876C8.35934 85.1368 5.86897 81.8242 0.00129102 79.7651V84.5797C4.95105 88.1963 5.54621 92.4878 5.66498 96.83C5.74761 99.8299 4.15191 102.471 0.00129102 104.468V111.784C3.68585 111.013 6.14912 109.448 7.83906 107.565C13.3375 101.436 11.7173 95.0217 9.56644 88.6863L9.56515 88.6876Z" fill="#404040"/>
<path d="M13.3917 16.0024C11.0821 10.6649 5.47391 5.75033 6.34922 0H2.65691C1.67058 3.98003 4.88908 7.48139 7.0851 11.0878C10.7852 17.1636 8.38516 22.4391 0 26.4039V30.5422C9.06811 29.4583 15.9247 21.8579 13.3904 16.0024H13.3917Z" fill="#404040"/>
<path d="M8.38903 137C9.96795 133.404 13.4098 130.681 20.9571 130.863C27.5542 131.023 30.4215 134.491 34.6302 136.711C34.802 136.802 34.9633 136.899 35.1195 136.999H39.5155C37.5854 135.664 35.6979 134.309 33.6349 133.04C29.3745 130.422 26.0037 126.945 18.7804 126.654C9.16493 126.267 5.06079 131.694 2.80022 136.999H8.38903V137Z" fill="#404040"/>
<path d="M2.43228 12.7796C2.02948 11.0777 1.69252 9.30994 0.00129102 7.79543V21.226C0.0309844 21.2095 0.0580958 21.1918 0.0787521 21.1728C2.89446 18.554 3.11652 15.6694 2.43228 12.7796Z" fill="#404040"/>
<path d="M27.1294 137C25.7106 135.751 23.8593 134.708 21.1017 134.651C18.2563 134.591 16.5883 135.646 15.5981 137H27.1294Z" fill="#404040"/>
<path d="M101.545 44.2374C101.739 47.0347 100.26 49.2482 94.8317 50.0359C91.4763 50.5234 90.845 49.1925 90.8979 47.911C91.0503 44.1614 91.4105 40.4132 91.8636 36.6712C91.9747 35.7519 92.4807 34.6109 94.6341 34.5527C97.721 34.4691 98.4543 35.9912 99.2792 37.1803C100.843 39.4343 101.595 41.8036 101.546 44.2362L101.545 44.2374Z" fill="#404040"/>
<path d="M115.91 24.4893C110.25 22.5379 103.139 20.6916 97.4486 17.9424C92.3813 15.4959 93.928 9.58853 99.0184 8.42352C103.92 7.30157 107.054 9.46823 110.421 10.8397C114.311 12.4238 118.323 13.0494 123.22 12.5935C130.079 11.9553 131.855 13.3052 129.703 17.5334C127.931 21.0145 124.245 23.6282 115.91 24.4893Z" fill="#404040"/>
</g>
</svg>
