<svg width="85" height="85" viewBox="0 0 85 85" fill="none" xmlns="http://www.w3.org/2000/svg">
<circle cx="42.5" cy="42.5" r="42.5" fill="#E85E28"/>
<path d="M51.1694 25.7813C51.1694 25.3088 51.3571 24.8558 51.6911 24.5217C52.0252 24.1877 52.4783 24 52.9507 24H58.8882C59.3606 24 59.8137 24.1877 60.1477 24.5217C60.4818 24.8558 60.6694 25.3088 60.6694 25.7813V31.7188C60.6694 32.1912 60.4818 32.6442 60.1477 32.9783C59.8137 33.3123 59.3606 33.5 58.8882 33.5C58.4158 33.5 57.9627 33.3123 57.6286 32.9783C57.2946 32.6442 57.1069 32.1912 57.1069 31.7188V30.08L46.4907 40.6962C46.1567 41.0298 45.704 41.2172 45.2319 41.2172C44.7599 41.2172 44.3072 41.0298 43.9732 40.6962L38.1069 34.83L28.0844 44.8525C27.9214 45.0275 27.7247 45.1679 27.5062 45.2652C27.2877 45.3626 27.0518 45.4149 26.8127 45.4192C26.5735 45.4234 26.3359 45.3794 26.1141 45.2898C25.8923 45.2002 25.6909 45.0669 25.5217 44.8977C25.3526 44.7286 25.2192 44.5271 25.1296 44.3053C25.0401 44.0835 24.9961 43.8459 25.0003 43.6068C25.0045 43.3676 25.0568 43.1317 25.1542 42.9132C25.2516 42.6947 25.3919 42.4981 25.5669 42.335L36.8482 31.0538C37.1822 30.7202 37.6349 30.5328 38.1069 30.5328C38.579 30.5328 39.0317 30.7202 39.3657 31.0538L45.2319 36.92L54.5894 27.5625H52.9507C52.4783 27.5625 52.0252 27.3748 51.6911 27.0408C51.3571 26.7067 51.1694 26.2537 51.1694 25.7813ZM26.8257 52.5C27.2981 52.5 27.7512 52.6877 28.0852 53.0217C28.4193 53.3558 28.6069 53.8088 28.6069 54.2813V60.2188C28.6069 60.6912 28.4193 61.1442 28.0852 61.4783C27.7512 61.8123 27.2981 62 26.8257 62C26.3533 62 25.9002 61.8123 25.5661 61.4783C25.2321 61.1442 25.0444 60.6912 25.0444 60.2188V54.2813C25.0444 53.8088 25.2321 53.3558 25.5661 53.0217C25.9002 52.6877 26.3533 52.5 26.8257 52.5ZM38.1069 47.1562C38.1069 46.6838 37.9193 46.2308 37.5852 45.8967C37.2512 45.5627 36.7981 45.375 36.3257 45.375C35.8533 45.375 35.4002 45.5627 35.0661 45.8967C34.7321 46.2308 34.5444 46.6838 34.5444 47.1562V60.2188C34.5444 60.6912 34.7321 61.1442 35.0661 61.4783C35.4002 61.8123 35.8533 62 36.3257 62C36.7981 62 37.2512 61.8123 37.5852 61.4783C37.9193 61.1442 38.1069 60.6912 38.1069 60.2188V47.1562ZM45.8257 50.125C46.2981 50.125 46.7512 50.3127 47.0852 50.6467C47.4193 50.9808 47.6069 51.4338 47.6069 51.9063V60.2188C47.6069 60.6912 47.4193 61.1442 47.0852 61.4783C46.7512 61.8123 46.2981 62 45.8257 62C45.3533 62 44.9002 61.8123 44.5661 61.4783C44.2321 61.1442 44.0444 60.6912 44.0444 60.2188V51.9063C44.0444 51.4338 44.2321 50.9808 44.5661 50.6467C44.9002 50.3127 45.3533 50.125 45.8257 50.125ZM57.1069 42.4063C57.1069 41.9338 56.9193 41.4808 56.5852 41.1467C56.2512 40.8127 55.7981 40.625 55.3257 40.625C54.8533 40.625 54.4002 40.8127 54.0661 41.1467C53.7321 41.4808 53.5444 41.9338 53.5444 42.4063V60.2188C53.5444 60.6912 53.7321 61.1442 54.0661 61.4783C54.4002 61.8123 54.8533 62 55.3257 62C55.7981 62 56.2512 61.8123 56.5852 61.4783C56.9193 61.1442 57.1069 60.6912 57.1069 60.2188V42.4063Z" fill="#FFFEFB"/>
</svg>
