<svg width="605" height="374" viewBox="0 0 605 374" fill="none" xmlns="http://www.w3.org/2000/svg">
<path d="M514.26 104.825C516.155 103.677 518.172 102.808 520.259 102.217L521.493 96.2789L531.517 96.105L532.96 101.991C535.064 102.512 537.108 103.304 539.046 104.382L544.115 101.061L551.331 108.024L548.192 113.206C549.34 115.101 550.209 117.118 550.801 119.205L556.73 120.439L556.904 130.464L551.018 131.907C550.496 134.011 549.705 136.054 548.627 137.993L551.948 143.061L544.984 150.277L539.803 147.139C537.907 148.286 535.89 149.156 533.804 149.747L532.569 155.685L522.545 155.859L521.102 149.973C518.998 149.451 516.955 148.66 515.016 147.582L509.947 150.903L502.731 143.939L505.87 138.758C504.722 136.862 503.853 134.845 503.262 132.759L497.324 131.524L497.15 121.5L503.036 120.057C503.557 117.953 504.348 115.91 505.427 113.971L502.105 108.903L509.069 101.687L514.251 104.825H514.26ZM519.606 118.179C515.477 122.456 515.599 129.264 519.876 133.394C524.153 137.523 530.961 137.401 535.09 133.124C539.22 128.847 539.098 122.039 534.821 117.91C530.544 113.78 523.736 113.902 519.606 118.179Z" fill="#404040"/>
<path d="M305.195 68.0224C306.847 67.0226 308.603 66.2662 310.42 65.7532L311.498 60.5803L320.235 60.4238L321.496 65.5533C323.33 66.0054 325.113 66.7009 326.799 67.6398L331.216 64.7447L337.502 70.8218L334.763 75.334C335.763 76.9859 336.519 78.7508 337.032 80.5591L342.205 81.6372L342.362 90.3747L337.232 91.6353C336.78 93.4697 336.085 95.252 335.146 96.9386L338.041 101.355L331.972 107.641L327.451 104.902C325.8 105.902 324.035 106.659 322.226 107.171L321.148 112.344L312.411 112.501L311.15 107.371C309.316 106.919 307.533 106.224 305.847 105.285L301.43 108.18L295.144 102.103L297.883 97.5907C296.883 95.9388 296.127 94.1739 295.614 92.3656L290.441 91.2875L290.285 82.5501L295.414 81.2894C295.866 79.455 296.562 77.6727 297.501 75.9861L294.605 71.5695L300.674 65.2838L305.195 68.0224ZM309.855 79.6636C306.255 83.3934 306.36 89.3314 310.089 92.922C313.819 96.5213 319.757 96.417 323.348 92.6872C326.947 88.9575 326.843 83.0195 323.113 79.4289C319.383 75.8296 313.445 75.9339 309.855 79.6636Z" fill="#EBEBEB"/>
<path d="M123.968 196.503C126.046 195.251 128.246 194.303 130.524 193.651L131.871 187.157L142.843 186.965L144.425 193.408C146.72 193.973 148.963 194.842 151.076 196.024L156.623 192.39L164.517 200.006L161.083 205.675C162.335 207.753 163.283 209.961 163.935 212.239L170.429 213.586L170.62 224.558L164.178 226.14C163.613 228.436 162.743 230.679 161.561 232.791L165.195 238.338L157.579 246.232L151.911 242.798C149.833 244.05 147.625 244.998 145.355 245.65L144.008 252.144L133.045 252.336L131.462 245.893C129.167 245.328 126.924 244.459 124.812 243.276L119.265 246.91L111.371 239.295L114.805 233.626C113.553 231.548 112.605 229.349 111.953 227.071L105.459 225.723L105.267 214.751L111.71 213.169C112.275 210.874 113.153 208.631 114.327 206.518L110.693 200.971L118.308 193.077L123.977 196.511L123.968 196.503ZM129.811 211.117C125.298 215.795 125.429 223.245 130.106 227.758C134.784 232.27 142.234 232.139 146.747 227.462C151.259 222.785 151.128 215.334 146.451 210.822C141.774 206.309 134.323 206.44 129.811 211.117Z" fill="#404040"/>
<path d="M524.657 300.318C526.735 299.066 528.935 298.118 531.213 297.466L532.56 290.972L543.532 290.78L545.114 297.223C547.41 297.788 549.653 298.657 551.765 299.839L557.312 296.205L565.206 303.821L561.772 309.49C563.024 311.568 563.972 313.776 564.624 316.054L571.118 317.401L571.309 328.373L564.867 329.955C564.302 332.251 563.433 334.494 562.25 336.606L565.884 342.153L558.268 350.047L552.6 346.613C550.522 347.865 548.314 348.813 546.045 349.465L544.697 355.959L533.734 356.15L532.152 349.708C529.856 349.143 527.613 348.274 525.501 347.091L519.954 350.725L512.06 343.109L515.494 337.441C514.242 335.363 513.294 333.155 512.642 330.886L506.148 329.538L505.957 318.566L512.399 316.984C512.964 314.689 513.842 312.446 515.016 310.333L511.382 304.786L518.998 296.892L524.666 300.326L524.657 300.318ZM530.5 314.932C525.987 319.61 526.118 327.06 530.795 331.573C535.473 336.085 542.923 335.954 547.436 331.277C551.948 326.6 551.817 319.149 547.14 314.637C542.463 310.124 535.012 310.255 530.5 314.932Z" fill="#404040"/>
<path d="M552.765 248.763C553.921 248.067 555.156 247.537 556.425 247.172L557.181 243.546L563.302 243.442L564.18 247.033C565.458 247.346 566.71 247.832 567.892 248.493L570.987 246.467L575.387 250.719L573.474 253.883C574.169 255.04 574.7 256.274 575.065 257.544L578.682 258.3L578.786 264.421L575.195 265.299C574.882 266.577 574.395 267.829 573.735 269.011L575.76 272.106L571.509 276.505L568.344 274.593C567.188 275.288 565.954 275.818 564.684 276.183L563.928 279.809L557.807 279.913L556.929 276.323C555.651 276.01 554.399 275.523 553.217 274.862L550.122 276.888L545.723 272.636L547.635 269.472C546.94 268.315 546.409 267.081 546.044 265.812L542.428 265.055L542.323 258.935L545.914 258.057C546.227 256.778 546.714 255.527 547.374 254.344L545.349 251.249L549.6 246.85L552.765 248.763ZM556.025 256.909C553.504 259.517 553.582 263.673 556.19 266.194C558.798 268.715 562.954 268.637 565.475 266.029C567.997 263.421 567.918 259.265 565.31 256.744C562.702 254.222 558.546 254.301 556.025 256.909Z" fill="#F5F5F5"/>
<path d="M460.279 239.19C461.435 238.495 462.67 237.964 463.939 237.599L464.695 233.974L470.816 233.87L471.694 237.46C472.972 237.773 474.224 238.26 475.406 238.921L478.501 236.895L482.901 241.147L480.988 244.311C481.683 245.467 482.214 246.702 482.579 247.971L486.196 248.728L486.3 254.848L482.709 255.726C482.396 257.004 481.909 258.256 481.249 259.439L483.274 262.534L479.023 266.933L475.858 265.02C474.702 265.716 473.468 266.246 472.198 266.611L471.442 270.237L465.321 270.341L464.443 266.75C463.165 266.437 461.913 265.95 460.731 265.29L457.636 267.315L453.237 263.064L455.149 259.899C454.454 258.743 453.923 257.509 453.558 256.239L449.942 255.483L449.837 249.362L453.428 248.484C453.741 247.206 454.228 245.954 454.888 244.772L452.863 241.677L457.114 237.278L460.279 239.19ZM463.539 247.337C461.018 249.945 461.096 254.101 463.704 256.622C466.312 259.143 470.468 259.065 472.989 256.457C475.511 253.848 475.432 249.693 472.824 247.171C470.216 244.65 466.06 244.728 463.539 247.337Z" fill="#F5F5F5"/>
<path d="M440.969 73.9525C441.925 73.3787 442.942 72.9353 443.985 72.6397L444.611 69.649L449.663 69.562L450.393 72.5267C451.453 72.7875 452.479 73.1874 453.453 73.7351L456.009 72.0659L459.643 75.5783L458.061 78.1865C458.635 79.1428 459.078 80.16 459.374 81.2033L462.364 81.8293L462.451 86.8805L459.487 87.6108C459.226 88.6714 458.826 89.6973 458.278 90.671L459.948 93.2271L456.444 96.8612L453.836 95.2789C452.879 95.8527 451.862 96.2961 450.819 96.5917L450.193 99.5824L445.142 99.6693L444.411 96.7047C443.351 96.4439 442.325 96.0439 441.351 95.4962L438.795 97.1655L435.161 93.6531L436.743 91.0449C436.169 90.0885 435.726 89.0713 435.43 88.0281L432.44 87.4021L432.353 82.3509L435.317 81.6206C435.578 80.5599 435.978 79.534 436.526 78.5603L434.857 76.0043L438.369 72.3702L440.977 73.9525H440.969ZM443.664 80.6816C441.586 82.8377 441.647 86.2632 443.794 88.341C445.95 90.4189 449.376 90.3581 451.454 88.202C453.531 86.0458 453.471 82.6204 451.323 80.5425C449.167 78.4647 445.742 78.5255 443.664 80.6729V80.6816Z" fill="#EBEBEB"/>
<path d="M283.851 30.8299C284.807 30.2561 285.825 29.8127 286.868 29.5171L287.494 26.5264L292.545 26.4395L293.275 29.4041C294.336 29.6649 295.362 30.0649 296.336 30.6126L298.892 28.9433L302.526 32.4557L300.944 35.0639C301.517 36.0202 301.961 37.0374 302.256 38.0807L305.247 38.7067L305.334 43.7579L302.369 44.4882C302.109 45.5489 301.709 46.5747 301.161 47.5485L302.83 50.1045L299.326 53.7386L296.718 52.1563C295.762 52.7301 294.745 53.1735 293.701 53.4691L293.075 56.4598L288.024 56.5468L287.294 53.5821C286.233 53.3213 285.207 52.9214 284.234 52.3736L281.678 54.0429L278.044 50.5305L279.626 47.9223C279.052 46.966 278.609 45.9488 278.313 44.9055L275.322 44.2795L275.235 39.2283L278.2 38.498C278.461 37.4374 278.861 36.4115 279.408 35.4377L277.739 32.8817L281.243 29.2476L283.851 30.8299ZM286.546 37.5591C284.468 39.7152 284.529 43.1406 286.677 45.2185C288.833 47.2964 292.258 47.2355 294.336 45.0794C296.414 42.9233 296.353 39.4978 294.206 37.42C292.058 35.3421 288.624 35.403 286.546 37.5504V37.5591Z" fill="#F5F5F5"/>
<path d="M301.405 142.93C302.361 142.356 303.378 141.913 304.422 141.617L305.047 138.626L310.099 138.54L310.829 141.504C311.89 141.765 312.916 142.165 313.889 142.713L316.445 141.043L320.079 144.556L318.497 147.164C319.071 148.12 319.514 149.138 319.81 150.181L322.801 150.807L322.888 155.858L319.923 156.588C319.662 157.649 319.262 158.675 318.714 159.649L320.384 162.205L316.88 165.839L314.272 164.256C313.315 164.83 312.298 165.274 311.255 165.569L310.629 168.56L305.578 168.647L304.848 165.682C303.787 165.421 302.761 165.021 301.787 164.474L299.231 166.143L295.597 162.631L297.179 160.022C296.606 159.066 296.162 158.049 295.867 157.006L292.876 156.38L292.789 151.328L295.754 150.598C296.014 149.537 296.414 148.512 296.962 147.538L295.293 144.982L298.796 141.348L301.405 142.93ZM304.1 149.659C302.022 151.815 302.083 155.241 304.23 157.319C306.386 159.396 309.812 159.336 311.89 157.179C313.968 155.023 313.907 151.598 311.759 149.52C309.603 147.442 306.178 147.503 304.1 149.65V149.659Z" fill="#F5F5F5"/>
<path d="M8.616 251.014C9.57234 250.44 10.5895 249.997 11.6328 249.701L12.2588 246.71L17.31 246.624L18.0403 249.588C19.101 249.849 20.1269 250.249 21.1006 250.797L23.6566 249.127L27.2907 252.64L25.7084 255.248C26.2822 256.204 26.7256 257.222 27.0212 258.265L30.0119 258.891L30.0989 263.942L27.1342 264.672C26.8734 265.733 26.4735 266.759 25.9257 267.733L27.595 270.289L24.0913 273.923L21.4831 272.34C20.5268 272.914 19.5096 273.358 18.4663 273.653L17.8403 276.644L12.7891 276.731L12.0588 273.766C10.9982 273.505 9.97226 273.105 8.99853 272.558L6.4425 274.227L2.80841 270.715L4.39071 268.106C3.81691 267.15 3.37352 266.133 3.07792 265.09L0.0871845 264.464L0.000244141 259.412L2.9649 258.682C3.22572 257.621 3.62564 256.596 4.17336 255.622L2.50412 253.066L6.0078 249.432L8.616 251.014ZM11.3111 257.743C9.23327 259.899 9.29413 263.325 11.4415 265.403C13.5977 267.48 17.0231 267.42 19.101 265.263C21.1788 263.107 21.118 259.682 18.9705 257.604C16.8144 255.526 13.389 255.587 11.3111 257.734V257.743Z" fill="#F5F5F5"/>
<path d="M99.1122 95.3831C99.9381 94.8788 100.825 94.505 101.738 94.2442L102.277 91.6446L106.667 91.5664L107.302 94.1398C108.224 94.3659 109.119 94.7136 109.962 95.1831L112.179 93.7312L115.335 96.7828L113.962 99.0519C114.466 99.8779 114.84 100.765 115.1 101.678L117.7 102.217L117.778 106.607L115.205 107.242C114.979 108.163 114.631 109.059 114.162 109.902L115.613 112.119L112.571 115.275L110.301 113.901C109.475 114.406 108.589 114.779 107.676 115.04L107.137 117.64L102.746 117.718L102.112 115.145C101.19 114.918 100.295 114.571 99.4513 114.101L97.2343 115.553L94.0784 112.502L95.452 110.232C94.9478 109.406 94.5739 108.52 94.3131 107.607L91.7136 107.068L91.6354 102.677L94.2088 102.043C94.4348 101.121 94.7826 100.226 95.2521 99.3823L93.8002 97.1653L96.8431 94.0094L99.1122 95.3831ZM101.451 101.225C99.6426 103.095 99.6947 106.077 101.564 107.876C103.433 109.685 106.415 109.633 108.215 107.763C110.023 105.894 109.971 102.912 108.102 101.112C106.233 99.3128 103.251 99.3562 101.451 101.225Z" fill="#EBEBEB"/>
<path d="M50.8862 100.651C52.5989 99.6168 54.4159 98.8343 56.2938 98.304L57.4067 92.9485L66.4484 92.792L67.7525 98.104C69.6478 98.5735 71.4909 99.2864 73.2384 100.26L77.8115 97.2607L84.3146 103.546L81.4804 108.215C82.5149 109.928 83.2974 111.745 83.8277 113.623L89.1832 114.736L89.3397 123.777L84.0277 125.082C83.5582 126.977 82.8453 128.82 81.8716 130.567L84.8623 135.14L78.5852 141.644L73.9166 138.809C72.2038 139.844 70.3868 140.626 68.5089 141.157L67.3961 146.512L58.3543 146.669L57.0502 141.357C55.1549 140.887 53.3118 140.174 51.5643 139.201L46.9913 142.2L40.4881 135.914L43.3224 131.246C42.2878 129.533 41.5053 127.716 40.975 125.838L35.6195 124.725L35.463 115.683L40.775 114.379C41.2445 112.484 41.9574 110.641 42.9312 108.893L39.9317 104.32L46.2175 97.8171L50.8949 100.651H50.8862ZM55.7026 112.701C51.9816 116.553 52.0859 122.699 55.9461 126.42C59.7975 130.141 65.9442 130.037 69.6652 126.177C73.3862 122.325 73.2819 116.179 69.4218 112.458C65.5703 108.737 59.4237 108.841 55.7026 112.701Z" fill="#404040"/>
<path d="M596.843 373.382C596.843 373.504 463.416 373.608 298.874 373.608C134.331 373.608 0.869385 373.504 0.869385 373.382C0.869385 373.26 134.261 373.156 298.874 373.156C463.486 373.156 596.843 373.26 596.843 373.382Z" fill="#404040"/>
<path d="M441.586 58.1553L451.854 56.8078C456.062 60.9548 461.426 64.0325 467.607 65.4583C485.378 69.5532 503.096 58.4683 507.191 40.6978C511.286 22.9273 500.201 5.20889 482.431 1.11402C464.66 -2.98085 446.942 8.10399 442.847 25.8745C441.134 33.2905 442.082 40.6978 445.046 47.114V47.0966L441.586 58.1553Z" fill="white"/>
<path d="M441.587 58.1552C441.587 58.1552 441.674 57.9031 441.83 57.4249C441.987 56.938 442.213 56.2251 442.517 55.3036C443.117 53.4344 443.995 50.6957 445.134 47.1225L444.96 47.1573V47.1747C445.003 47.2181 445.073 47.2268 445.116 47.1921C445.151 47.166 445.16 47.1138 445.143 47.0703C443.36 43.1493 441.769 37.6374 442.239 31.0647C442.352 29.4302 442.587 27.7436 442.986 26.0309C443.465 24.3355 443.899 22.5707 444.664 20.8492C446.082 17.389 448.194 13.9549 451.037 10.912C453.88 7.8691 457.462 5.24351 461.592 3.39169C465.721 1.53987 470.399 0.479202 475.241 0.513978C484.918 0.487896 495.185 5.30437 501.436 13.9462C504.601 18.3367 506.74 23.3879 507.418 28.5608C508.157 33.7164 507.644 38.9067 506.122 43.5927C504.61 48.2962 501.984 52.4432 498.828 55.7904C495.663 59.1376 491.925 61.6763 488.056 63.3629C484.187 65.0582 480.188 65.9016 476.415 66.0667C475.945 66.0841 475.476 66.0928 475.006 66.1015C474.537 66.1189 474.076 66.1276 473.624 66.0754C472.711 66.0059 471.807 65.945 470.929 65.8755C469.19 65.5538 467.486 65.3364 465.913 64.8496C459.557 63.0412 454.932 59.6853 451.915 56.7294C451.898 56.7033 451.863 56.6946 451.837 56.7033C448.525 57.1641 445.977 57.5205 444.238 57.764C443.378 57.8857 442.726 57.9813 442.265 58.0422C441.821 58.103 441.578 58.1465 441.578 58.1465C441.578 58.1465 441.787 58.1291 442.221 58.0769C442.673 58.0248 443.326 57.9465 444.178 57.8422C445.934 57.6249 448.516 57.3032 451.863 56.8946L451.785 56.8685C454.784 59.8592 459.427 63.276 465.834 65.1365C467.425 65.632 469.138 65.8668 470.894 66.1971C471.79 66.2667 472.694 66.3363 473.615 66.4058C474.076 66.458 474.546 66.458 475.015 66.4319C475.485 66.4232 475.963 66.4058 476.441 66.3971C480.258 66.2406 484.3 65.3973 488.221 63.702C492.142 62.0066 495.933 59.4506 499.15 56.0599C502.349 52.678 505.018 48.4788 506.557 43.7145C508.113 38.9588 508.635 33.699 507.887 28.4739C507.2 23.2314 505.027 18.1019 501.819 13.6506C501.454 13.0855 501.01 12.5812 500.576 12.0683L499.28 10.5382L497.854 9.14712C497.385 8.67764 496.907 8.21686 496.376 7.82563C495.863 7.41701 495.35 6.9997 494.837 6.59108C494.333 6.16508 493.751 5.85209 493.212 5.48695C492.655 5.13919 492.134 4.75665 491.56 4.44367C490.986 4.14807 490.403 3.84378 489.83 3.54819C485.204 1.23558 480.153 0.0531969 475.25 0.0531969C470.338 0.0271149 465.6 1.10517 461.418 2.99177C457.236 4.86967 453.611 7.54743 450.75 10.6338C447.873 13.7202 445.751 17.2065 444.334 20.7014C443.569 22.4402 443.134 24.2312 442.656 25.9352C442.265 27.6653 442.03 29.3781 441.926 31.0212C441.482 37.6547 443.126 43.2015 444.951 47.1312L445.125 47.0182V47.0008C445.082 46.9573 445.012 46.9486 444.969 46.9834C444.951 47.0008 444.943 47.0182 444.934 47.0356C443.838 50.6523 442.995 53.4343 442.421 55.3209C442.143 56.2425 441.935 56.938 441.787 57.4249C441.648 57.8944 441.587 58.1204 441.587 58.1204V58.1552Z" fill="#404040"/>
<path d="M462.235 21.6753H487.995L488.039 30.2997H486.804C486.404 27.2134 485.248 25.1268 483.335 24.0314C482.266 23.4315 480.658 23.1011 478.528 23.0489V45.5838C478.528 47.1574 478.806 48.2007 479.354 48.7223C479.901 49.2353 481.049 49.4961 482.788 49.4961V50.5828H467.539V49.4961C469.208 49.4961 470.321 49.2353 470.868 48.7136C471.416 48.192 471.694 47.1487 471.694 45.5925V23.0576C469.608 23.1098 468.008 23.4402 466.886 24.0401C464.843 25.1616 463.687 27.2481 463.418 30.3084H462.183L462.226 21.684L462.235 21.6753Z" fill="#404040"/>
<path d="M164.454 69.9441L153.612 70.4918C150.056 75.5604 145.109 79.7509 139.006 82.3852C121.453 89.9664 101.083 81.8809 93.5105 64.3278C85.9294 46.7746 94.0148 26.4045 111.568 18.8321C129.121 11.2509 149.482 19.3363 157.064 36.8895C160.228 44.2185 160.654 52.0344 158.802 59.207V59.1896L164.454 69.9441Z" fill="white"/>
<path d="M164.454 69.9442C164.454 69.9442 164.315 69.7008 164.063 69.24C163.811 68.7618 163.437 68.0837 162.959 67.1795C161.994 65.3625 160.568 62.7021 158.716 59.2419H158.908V59.2593C158.873 59.3114 158.803 59.3288 158.751 59.3028C158.708 59.2767 158.69 59.2245 158.699 59.181C159.794 54.7993 160.394 48.8091 158.673 42.1321C158.247 40.4716 157.682 38.7762 156.951 37.0809C156.134 35.429 155.352 33.6815 154.239 32.0558C152.118 28.752 149.301 25.6048 145.788 23.014C142.285 20.4145 138.094 18.3801 133.478 17.2499C128.87 16.1197 123.845 15.911 118.854 16.8587C108.874 18.6583 99.1886 25.57 94.3721 35.6551C91.9378 40.7845 90.6858 46.4009 90.964 51.8607C91.1727 57.3205 92.6768 62.5717 95.1459 67.1187C97.5976 71.6917 101.084 75.4649 104.97 78.3252C108.865 81.1769 113.203 83.0895 117.516 84.098C121.828 85.1152 126.105 85.2283 130.035 84.6892C130.522 84.611 131.009 84.5414 131.495 84.4632C131.982 84.3936 132.46 84.3154 132.921 84.1763C133.852 83.9329 134.764 83.6981 135.669 83.4634C137.407 82.8026 139.12 82.2549 140.65 81.4551C146.866 78.3861 150.996 74.0478 153.552 70.4398C153.57 70.4137 153.604 70.3963 153.63 70.3963C157.134 70.2485 159.829 70.1355 161.664 70.0572C162.576 70.0224 163.263 69.9964 163.75 69.9703C164.22 69.9529 164.472 69.9529 164.472 69.9529C164.472 69.9529 164.254 69.9703 163.794 70.0051C163.315 70.0311 162.629 70.0746 161.733 70.1355C159.881 70.2398 157.16 70.405 153.63 70.605L153.709 70.5615C151.179 74.213 147.04 78.6121 140.781 81.742C139.233 82.5505 137.512 83.1156 135.764 83.7851C134.86 84.0285 133.938 84.2719 133 84.5154C132.53 84.6545 132.052 84.7414 131.565 84.8109C131.078 84.8892 130.583 84.9674 130.087 85.0457C126.123 85.6021 121.793 85.4978 117.429 84.4893C113.064 83.4808 108.674 81.5594 104.718 78.673C100.78 75.7953 97.2324 71.9612 94.7459 67.336C92.2421 62.7282 90.7119 57.4075 90.4946 51.8694C90.2164 46.3313 91.4857 40.6367 93.9461 35.4377C94.2156 34.7857 94.5807 34.1771 94.9285 33.5685L95.9805 31.7515L97.1889 30.0475C97.5889 29.4736 97.9888 28.9085 98.4583 28.4043C98.9104 27.8826 99.3624 27.361 99.8145 26.8394C100.249 26.309 100.797 25.8743 101.275 25.3875C101.779 24.9267 102.249 24.4311 102.779 23.9964C103.318 23.5791 103.857 23.1618 104.388 22.7445C108.717 19.4842 113.708 17.3107 118.767 16.3892C123.827 15.4328 128.922 15.6589 133.591 16.8065C138.259 17.9541 142.502 20.032 146.041 22.6749C149.588 25.3092 152.431 28.5086 154.561 31.8471C155.682 33.4903 156.465 35.2552 157.282 36.9331C158.012 38.6458 158.577 40.3585 158.995 42.0452C160.699 48.8004 160.055 54.834 158.916 59.2332L158.716 59.155V59.1376C158.751 59.0854 158.821 59.068 158.873 59.0941C158.89 59.1028 158.908 59.1202 158.916 59.1376C160.733 62.6586 162.124 65.3625 163.072 67.2056C163.533 68.1011 163.881 68.7792 164.124 69.2574C164.359 69.7182 164.463 69.9355 164.463 69.9355L164.454 69.9442Z" fill="#404040"/>
<path d="M141.667 46.6794C141.424 44.671 140.433 42.8018 139.068 41.2978C137.737 39.8285 135.999 38.6809 134.06 38.2723C131.999 37.8376 129.765 38.2983 128.044 39.5068C127.018 40.2284 126.174 41.2021 125.601 42.315C125.018 41.3412 124.227 40.4892 123.288 39.8459C121.541 38.6722 119.306 38.2462 117.254 38.7157C115.324 39.1504 113.612 40.3327 112.299 41.8194C110.96 43.3409 110.004 45.2275 109.795 47.2445C109.525 49.7657 110.038 52.513 111.36 54.6778C112.76 56.9557 115.003 58.7901 117.307 60.1551C121.175 62.4416 126.279 65.3106 126.279 65.3106C126.279 65.3106 130.539 62.0677 134.373 59.7117C136.651 58.3119 138.868 56.4427 140.224 54.1388C141.511 51.9566 141.98 49.2006 141.667 46.6794Z" fill="#404040"/>
<path d="M359.741 40.3672C356.202 40.8715 352.481 38.3589 351.629 34.89C350.777 31.4211 352.899 27.4653 356.263 26.2655C353.994 24.0573 353.333 20.3623 354.716 17.5107C356.089 14.6591 359.393 12.8768 362.531 13.2854C362.575 10.1643 364.357 7.12136 367.061 5.54774C369.765 3.98282 373.295 3.94805 376.025 5.4695C379.389 2.4179 384.953 2.15708 388.596 4.8783C391.613 4.23495 394.969 5.7564 396.464 8.46023C397.96 11.1554 397.481 14.8068 395.343 17.0325" fill="#404040"/>
<path d="M390.369 12.0342L388.769 12.0777C372.633 12.5297 359.558 25.3012 358.714 41.4199C357.932 56.4084 357.262 72.9878 357.584 81.0037C358.262 97.6092 374.955 99.7305 374.955 99.7305L374.111 119.735L411 119.414L415.921 44.8453C416.921 27.553 407.688 12.5558 390.378 12.0342H390.369Z" fill="#AE7461"/>
<path d="M374.807 99.7131C374.807 99.7131 385.44 100.052 396.394 92.7231C396.394 92.7231 391.395 104.79 374.772 103.765L374.807 99.7131Z" fill="#404040"/>
<path d="M365.295 58.9723C365.287 60.2243 366.339 61.2676 367.651 61.3023C368.955 61.3371 370.025 60.346 370.034 59.0941C370.034 57.8421 368.99 56.7988 367.677 56.7641C366.365 56.7293 365.295 57.7204 365.287 58.9723H365.295Z" fill="#404040"/>
<path d="M362.514 49.4528C362.818 49.7571 364.574 48.3748 367.13 48.3052C369.678 48.2009 371.59 49.4615 371.86 49.1398C371.99 49.0007 371.677 48.4443 370.843 47.8792C370.025 47.3141 368.634 46.7751 367.043 46.8272C365.452 46.8794 364.131 47.5054 363.383 48.1226C362.618 48.7486 362.366 49.3137 362.514 49.4528Z" fill="#404040"/>
<path d="M387.675 58.3469C387.666 59.5988 388.718 60.6421 390.031 60.6769C391.335 60.7116 392.404 59.7205 392.413 58.4686C392.413 57.2166 391.37 56.1734 390.057 56.1386C388.744 56.1038 387.675 57.0949 387.666 58.3469H387.675Z" fill="#404040"/>
<path d="M387.621 49.218C387.925 49.5223 389.69 48.1399 392.237 48.0704C394.785 47.966 396.697 49.2267 396.967 48.905C397.097 48.7659 396.784 48.2095 395.95 47.6443C395.132 47.0792 393.741 46.5402 392.15 46.5924C390.559 46.6445 389.238 47.2705 388.49 47.8878C387.725 48.5137 387.473 49.0789 387.621 49.218Z" fill="#404040"/>
<path d="M378.893 68.4147C378.893 68.2669 377.302 68.0408 374.728 67.78C374.076 67.7278 373.45 67.6235 373.328 67.1801C373.163 66.7106 373.415 66.0064 373.711 65.2327C374.276 63.6417 374.876 61.9637 375.502 60.2162C377.98 53.0698 379.753 47.2013 379.466 47.1057C379.18 47.01 376.936 52.722 374.459 59.8685C373.867 61.6333 373.294 63.3113 372.755 64.911C372.529 65.6587 372.129 66.5107 372.485 67.4757C372.676 67.9539 373.163 68.3016 373.581 68.3973C374.007 68.5103 374.372 68.5103 374.693 68.519C377.284 68.5885 378.893 68.5538 378.901 68.406L378.893 68.4147Z" fill="#404040"/>
<path d="M385.135 39.4551C385.491 40.0898 387.656 39.3334 390.351 39.1682C393.038 38.9422 395.324 39.3856 395.55 38.7074C395.646 38.3858 395.15 37.8206 394.168 37.3251C393.194 36.8382 391.716 36.4731 390.099 36.5861C388.491 36.7078 387.1 37.2729 386.23 37.8902C385.352 38.5162 384.978 39.1421 385.135 39.4464V39.4551Z" fill="#404040"/>
<path d="M362.095 38.9243C362.652 39.4894 364.738 38.8286 367.277 38.7243C369.807 38.5504 371.972 38.9851 372.441 38.3592C372.65 38.0549 372.293 37.4898 371.346 36.9681C370.407 36.4465 368.851 36.0466 367.112 36.1335C365.373 36.2291 363.878 36.7942 363.017 37.4202C362.139 38.0375 361.861 38.6461 362.104 38.9243H362.095Z" fill="#404040"/>
<path d="M360.097 33.7598C360.097 33.7598 364.183 23.2314 369.13 20.658C375.12 17.5455 377.928 24.1356 383.666 22.362C389.413 20.5797 395.125 17.5977 401.167 21.9012C407.783 26.6133 404.845 30.1344 405.453 37.4982C407.922 67.3447 413.617 75.6388 414.773 61.5197C414.904 59.9722 419.146 58.6246 419.598 52.0868C420.181 43.6101 420.216 33.3425 418.164 27.4045C416.434 22.3968 413.452 18.98 408.174 15.2764C399.846 9.42531 388.639 9.61658 381.049 10.599C373.459 11.5814 359.036 20.7536 360.097 33.7598Z" fill="#404040"/>
<path d="M413.704 61.0939C413.739 58.5292 415.886 56.4426 418.451 56.6078C421.555 56.8165 425.059 58.477 425.032 64.8845C424.989 76.2562 413.582 73.8654 413.565 73.5437C413.556 73.3264 413.643 65.8495 413.704 61.0939Z" fill="#AE7461"/>
<path d="M416.06 69.2754C416.112 69.2406 416.26 69.4145 416.59 69.5709C416.912 69.7187 417.477 69.8231 418.068 69.6057C419.268 69.171 420.285 67.267 420.355 65.2152C420.389 64.1807 420.172 63.1982 419.807 62.381C419.459 61.5464 418.929 60.9639 418.32 60.8596C417.72 60.7205 417.286 61.0769 417.146 61.3986C416.99 61.7203 417.06 61.9463 417.007 61.9637C416.973 61.9898 416.764 61.7724 416.86 61.303C416.903 61.0769 417.042 60.8074 417.312 60.59C417.581 60.3727 417.99 60.2597 418.407 60.3031C419.285 60.364 420.068 61.1725 420.468 62.0767C420.92 62.9809 421.18 64.085 421.146 65.25C421.067 67.5452 419.885 69.684 418.242 70.1534C417.442 70.3621 416.773 70.1187 416.434 69.8492C416.086 69.5709 416.025 69.3101 416.06 69.2927V69.2754Z" fill="#404040"/>
<path d="M412.861 39.09C411.417 40.142 409.887 41.22 408.114 41.4461C406.34 41.6721 404.28 40.7071 403.932 38.9596C403.775 38.1684 403.941 37.2469 403.402 36.6557C402.758 35.9428 401.619 36.2036 400.672 36.334C397.377 36.7774 393.421 33.2389 392.482 30.0482C391.673 31.3349 389.839 31.7696 388.544 30.9785C387.248 30.196 386.77 29.7352 385.735 28.6224C384.71 27.5096 383.275 26.5271 381.78 26.7793C380.945 26.9184 380.171 27.4487 379.328 27.3965C377.833 27.3096 377.059 25.5795 376.789 24.1015C376.52 22.6235 376.294 20.9021 375.007 20.1371C373.816 19.4242 372.312 19.9023 370.938 20.1371C369.573 20.3805 367.791 20.1023 367.4 18.7721C367.191 18.0766 367.478 17.3202 367.852 16.6942C369.538 13.86 373.364 12.5124 376.459 13.66C377.467 9.87814 380.893 6.85263 384.77 6.33099C388.648 5.80935 392.751 7.81767 394.725 11.2083C397.064 8.96528 400.524 7.94808 403.706 8.58274C406.888 9.2174 409.696 11.4691 411 14.4425C413.739 13.634 416.921 14.6164 418.738 16.8246C420.555 19.0329 420.894 22.3453 419.572 24.8753C421.65 25.9881 423.45 27.9617 423.563 30.3177C423.676 32.6651 421.45 35.0734 419.164 34.5169C420.129 36.3253 419.459 38.8292 417.712 39.8985C415.964 40.9679 413.426 40.4462 412.252 38.7683" fill="#404040"/>
<path d="M375.72 17.0416C375.72 17.0416 375.72 17.1111 375.72 17.2502C375.738 17.3893 375.755 17.5893 375.807 17.8588C375.929 18.3804 376.164 19.1542 376.694 20.0236C377.233 20.8843 378.059 21.8667 379.285 22.6405C380.493 23.4143 382.136 23.9881 383.979 23.8316L383.779 23.5881C383.458 24.5706 383.58 25.7356 384.092 26.718C384.579 27.7178 385.327 28.6046 386.118 29.4566C386.518 29.8652 386.875 30.3521 387.422 30.7259C387.961 31.0824 388.596 31.2823 389.239 31.3432C390.526 31.4736 391.961 31.0302 392.856 29.9261L392.43 29.813C392.786 32.0648 394.134 34.2818 396.212 35.6032C397.316 36.3509 398.664 36.7943 399.976 36.7161C401.289 36.6639 402.506 36.2466 403.628 35.8032L403.324 35.6815C403.976 37.0725 404.949 38.2549 406.114 39.1156C407.262 39.9676 408.766 40.4545 410.105 40.0807C412.774 39.4373 414.487 37.1595 414.782 35.0468L414.53 35.1772C415.878 35.8641 417.312 35.8901 418.451 35.638C419.607 35.3946 420.503 34.8643 421.138 34.3426C421.772 33.821 422.146 33.2819 422.363 32.9168C422.563 32.5343 422.65 32.3256 422.633 32.3169C422.572 32.2734 422.285 33.195 421.016 34.1861C420.381 34.6643 419.503 35.1512 418.39 35.3598C417.295 35.5772 415.939 35.5163 414.687 34.8556L414.469 34.7425L414.435 34.986C414.13 36.9508 412.478 39.0808 410.001 39.6546C408.783 39.9763 407.462 39.5503 406.384 38.7331C405.297 37.9245 404.367 36.7856 403.767 35.4815L403.671 35.2729L403.463 35.3511C402.35 35.7771 401.185 36.177 399.968 36.2205C398.751 36.2814 397.542 35.8901 396.49 35.1772C394.525 33.9253 393.256 31.8474 392.917 29.7174L392.83 29.1784L392.491 29.6044C391.734 30.552 390.448 30.9606 389.291 30.8476C388.709 30.7955 388.144 30.6216 387.683 30.3173C387.231 30.0217 386.857 29.5435 386.449 29.1262C385.657 28.2829 384.936 27.4396 384.475 26.5093C383.988 25.5878 383.875 24.5619 384.145 23.6751L384.232 23.4056L383.945 23.4316C382.215 23.5968 380.632 23.0839 379.45 22.3536C378.241 21.6407 377.424 20.7017 376.876 19.8845C375.79 18.1979 375.79 16.9894 375.711 17.0242L375.72 17.0416Z" fill="#404040"/>
<path d="M379.701 77.134C379.753 76.708 382.561 77.2122 384.995 75.1692C387.43 73.1348 387.665 70.0745 388.056 70.1266C388.238 70.1266 388.482 70.8917 388.282 72.161C388.099 73.413 387.369 75.1518 385.882 76.395C384.396 77.6382 382.648 77.9773 381.474 77.8643C380.283 77.76 379.64 77.3166 379.692 77.1253L379.701 77.134Z" fill="#404040"/>
<path d="M438.063 109.729C438.063 109.729 448.183 111.189 456.668 117.762C465.154 124.334 486.767 166.509 486.767 166.509L440.271 175.907L438.063 109.729Z" fill="#404040"/>
<path d="M396.655 278.844L479.978 85.8979L525.517 103.495L439.299 297.527C434.161 309.082 420.746 314.428 409.07 309.56C397.098 304.569 391.508 290.755 396.655 278.844Z" fill="#404040"/>
<path d="M493.349 150.164C494.74 150.129 496.087 150.599 497.357 151.146C498.626 151.703 501.017 152.729 502.356 153.094L510.398 156.815C513.215 160.353 509.928 163.77 507.433 163.501C508.311 164.5 509.024 164.726 509.241 166.039C509.459 167.352 509.12 168.795 508.172 169.725C507.224 170.656 505.625 170.943 504.512 170.204C505.468 172.012 505.147 174.42 503.747 175.916C502.904 176.82 501.704 177.35 500.487 177.446C499.869 177.498 499.261 177.428 498.661 177.263C498.452 177.202 498.183 177.159 498.009 177.02C497.922 176.95 497.861 176.863 497.8 176.776C497.539 176.35 497.357 175.889 497.061 175.481C496.948 175.324 496.835 175.177 496.713 175.029C496.157 174.359 495.496 173.794 494.783 173.307C494.453 173.081 494.044 172.916 493.757 172.647C493.557 172.464 493.471 172.203 493.305 171.995C492.288 170.647 490.619 169.847 489.176 169.065C487.541 168.178 485.855 167.169 484.977 165.535C484.098 163.9 484.42 161.484 486.107 160.692C484.994 160.31 484.411 158.927 484.733 157.789C485.055 156.65 486.089 155.815 487.228 155.502C488.367 155.189 489.584 155.337 490.723 155.667C489.489 155.041 489.15 153.259 489.828 152.051C490.515 150.842 491.949 150.207 493.331 150.173L493.349 150.164Z" fill="#AE7461"/>
<path d="M497.175 181.975C496.636 182.983 495.801 183.94 494.68 184.166C493.349 184.435 491.524 183.583 490.411 182.81C490.95 181.288 491.315 180.549 491.854 179.028C491.967 178.706 492.184 178.506 492.15 178.167C492.071 177.271 490.498 176.498 489.915 175.811C488.907 174.628 489.228 172.638 490.437 171.655C491.637 170.664 493.454 170.638 494.836 171.36C496.218 172.081 497.183 173.437 497.705 174.898C498.522 177.185 498.331 179.819 497.175 181.966V181.975Z" fill="#AE7461"/>
<path d="M504.929 170.421C505.068 170.16 500.965 167.76 495.774 165.083C490.584 162.396 486.263 160.431 486.124 160.692C485.985 160.953 490.088 163.344 495.279 166.039C500.469 168.725 504.79 170.69 504.929 170.421Z" fill="#404040"/>
<path d="M507.737 163.622C507.893 163.379 504.355 160.866 499.53 158.597C494.713 156.302 490.532 155.163 490.445 155.432C490.34 155.728 494.322 157.31 499.069 159.571C503.825 161.814 507.572 163.892 507.737 163.622Z" fill="#404040"/>
<path d="M510.485 156.98C510.632 156.719 507.598 154.798 503.555 153.085C499.521 151.372 496.192 150.199 496.07 150.46C495.94 150.747 499.113 152.372 503.129 154.076C507.137 155.772 510.337 157.241 510.485 156.98Z" fill="#404040"/>
<path d="M497.687 179.619C497.792 179.688 498.331 179.114 498.453 177.915C498.592 176.741 498.122 175.028 496.975 173.672C495.81 172.316 494.653 171.42 493.567 170.846C492.367 170.299 491.558 170.925 491.689 171.029C491.749 171.159 492.401 170.942 493.201 171.516C493.958 172.107 495.14 173.176 496.131 174.35C497.148 175.559 497.609 176.889 497.679 177.906C497.766 178.914 497.531 179.549 497.679 179.619H497.687Z" fill="#404040"/>
<path d="M525.526 103.494L519.553 64.8148C518.996 61.2242 514.806 59.5201 511.902 61.7197L479.978 85.8977L525.517 103.494H525.526Z" fill="#404040"/>
<path d="M409.077 309.56C420.049 314.133 432.569 309.682 438.298 299.527L395.906 280.878C395.906 280.878 395.871 280.965 395.863 281L395.81 281.174C392.281 292.502 397.888 304.883 409.086 309.551L409.077 309.56Z" fill="#404040"/>
<g opacity="0.5">
<path d="M525.525 103.494L519.553 64.8148C518.996 61.2242 514.806 59.5201 511.902 61.7197L479.978 85.8977L525.517 103.494H525.525Z" fill="white"/>
</g>
<path d="M520.17 68.8404L519.397 63.9369C518.875 60.6332 514.98 59.1205 512.363 61.2157L508.781 64.0847L520.162 68.8491L520.17 68.8404Z" fill="#404040"/>
<path d="M440.29 166.891L438.804 109.885L411.974 104.651C406.184 116.11 388.457 121.456 374.625 107.537L346.352 111.537C346.352 111.537 342.039 163.118 343.57 202.319L338.614 256.761C364.444 273.671 397.69 280.757 424.572 275.923C436.961 273.558 424.198 275.54 435.37 269.767L440.299 166.891H440.29Z" fill="#404040"/>
<path d="M346.751 111.537C346.751 111.537 332.841 114.467 321.973 132.29C311.002 150.304 302.577 159.823 302.577 159.823L342.709 178.681L346.743 111.528L346.751 111.537Z" fill="#404040"/>
<path d="M343.638 137.654C343.76 137.654 343.864 142.314 343.864 148.061C343.864 153.807 343.76 158.467 343.638 158.467C343.517 158.467 343.412 153.807 343.412 148.061C343.412 142.314 343.517 137.654 343.638 137.654Z" fill="#404040"/>
<path d="M440.289 143.409C440.41 143.409 440.515 150.625 440.515 159.519C440.515 168.413 440.41 175.629 440.289 175.629C440.167 175.629 440.063 168.421 440.063 159.519C440.063 150.616 440.167 143.409 440.289 143.409Z" fill="#404040"/>
<path d="M29.6628 212.118C26.0287 210.144 23.9247 205.684 24.7246 201.624C25.5244 197.564 29.1498 194.225 33.2708 193.773C30.0974 190.826 29.002 185.862 30.6278 181.845C32.2536 177.828 36.5049 175.038 40.8345 175.133C38.0264 172.734 37.2526 168.465 38.4611 164.97C39.6782 161.484 42.582 158.762 45.9031 157.128C54.9449 152.677 67.1947 156.711 71.8286 165.657L69.6638 249.971C66.2297 253.405 60.9872 254.927 56.249 253.857C51.5108 252.788 47.4246 249.18 45.7988 244.598C42.7907 244.32 39.7304 244.033 36.957 242.833C34.1836 241.634 31.7145 239.347 31.0886 236.391C30.4626 233.435 32.2275 229.949 35.1921 229.366C31.8797 227.402 28.4021 225.263 26.6894 221.811C24.9767 218.369 26.02 213.274 29.6801 212.1L29.6628 212.118Z" fill="#404040"/>
<path d="M127.443 298.962C127.443 298.962 137.963 343.649 156.238 348.318C174.513 352.995 218.991 352.447 218.991 352.447L220.095 335.024L168.922 324.913L148.761 280.148L127.426 298.953L127.443 298.962Z" fill="#FFBF9D"/>
<path d="M151.665 289.728C151.665 289.728 140.598 268.498 137.859 263.855C133.191 255.952 124.479 251.466 124.479 251.466L102.17 246.302L69.4636 247.632C69.3592 247.675 48.485 253.7 44.1727 255.517L45.9985 315.089L56.5269 352.994L49.1196 373.373H141.285C140.007 363.914 133.034 346.37 133.625 328.59C136.19 322.366 137.781 315.767 138.164 309.038C138.416 304.612 138.294 301.265 138.294 301.265C138.294 301.265 148.275 297.831 151.665 289.72V289.728Z" fill="#404040"/>
<path d="M127.451 257.43C127.338 257.491 128.399 259.473 129.877 262.768C131.364 266.063 133.207 270.706 134.693 276.018C136.171 281.33 136.997 286.259 137.432 289.841C137.867 293.432 137.988 295.666 138.119 295.666C138.171 295.666 138.197 295.101 138.197 294.084C138.197 293.067 138.136 291.598 137.988 289.781C137.693 286.155 136.945 281.156 135.45 275.801C133.954 270.445 132.007 265.785 130.381 262.525C129.573 260.899 128.868 259.604 128.338 258.734C127.817 257.865 127.504 257.395 127.451 257.421V257.43Z" fill="#404040"/>
<path d="M90.7465 322.218C90.7726 322.27 91.2333 322.096 92.0506 321.739C92.4679 321.566 92.9634 321.34 93.5112 321.009C94.0589 320.687 94.7109 320.357 95.3543 319.879C96.6932 319.001 98.1625 317.758 99.6491 316.236C101.092 314.68 102.536 312.819 103.761 310.698C104.961 308.551 105.822 306.368 106.422 304.325C106.969 302.274 107.282 300.378 107.361 298.77C107.448 297.97 107.395 297.24 107.387 296.605C107.387 295.97 107.335 295.423 107.265 294.979C107.152 294.093 107.065 293.606 107.013 293.614C106.856 293.632 107.109 295.588 106.804 298.718C106.665 300.283 106.3 302.126 105.726 304.117C105.109 306.09 104.248 308.212 103.083 310.307C101.883 312.376 100.501 314.202 99.1188 315.741C97.7017 317.253 96.3019 318.505 95.0326 319.427C92.5027 321.296 90.6856 322.079 90.7465 322.218Z" fill="#404040"/>
<path d="M261.759 160.553L268.679 182.357V166.917L285.146 165.03C285.146 165.03 292.805 214.699 284.198 224.793C279.164 230.705 272.07 229.079 267.505 226.305C254.056 218.133 240.206 196.259 240.206 196.259L238.841 172.646L261.75 160.544L261.759 160.553Z" fill="#FFBF9D"/>
<path d="M189.136 51.1913C177.965 73.1437 177.539 99.8951 186.528 122.821C187.232 124.621 188.084 126.507 189.71 127.551C191.875 128.95 194.718 128.446 197.196 127.742C204.49 125.673 211.341 122.282 218.539 119.909C225.738 117.535 233.606 116.205 240.874 118.379L189.128 51.1826L189.136 51.1913Z" fill="#404040"/>
<path d="M292.308 118.535C290.456 113.432 284.292 111.728 279.789 108.702C272.947 104.112 269.547 95.8092 268.026 87.7151C266.504 79.621 265.957 69.4577 263.94 61.4679C261.923 53.4782 257.68 39.6112 250.116 36.3423L194.492 42.4889C186.25 54.7127 180.347 67.093 183.651 81.4554C185.72 90.445 192.918 109.207 192.492 119.1C191.953 131.733 181.182 136.662 189.693 146.008C194.875 151.686 234.737 144.165 242.205 146.008C249.664 147.86 259.167 143.374 259.532 135.697C262.157 139.592 267.13 141.757 271.764 141.035C276.398 140.314 280.484 136.741 281.806 132.237C288.257 131.046 294.543 124.691 292.308 118.527V118.535Z" fill="#404040"/>
<path d="M198.683 38.046C207.968 30.0301 219.183 26.4308 231.302 28.3435C238.136 29.4216 240.718 31.3255 245.395 33.5077C250.073 35.6899 254.046 39.098 256.246 43.7666C258.862 49.3134 260.819 55.3471 260.427 61.4676C260.027 67.7534 258.506 73.7088 256.463 78.4731C253.985 84.2633 248.23 92.7747 243.709 97.1565L233.024 96.6001C224.278 95.3829 215.41 94.131 207.29 90.6621C199.161 87.2019 191.727 81.2117 188.485 72.9959C183.981 61.5807 189.389 46.0532 198.674 38.0373L198.683 38.046Z" fill="#404040"/>
<path d="M212.706 40.3932L235.145 35.7158L240.518 37.3068C252.846 39.5064 258.984 54.5905 257.324 64.5973C255.48 75.7169 252.785 89.21 249.595 97.0868C243.178 112.919 228.894 111.84 228.894 111.84C228.894 111.84 227.651 120.656 226.79 126.203L195.066 118.274L206.177 45.0532C206.811 42.0364 209.646 40.0107 212.706 40.3845V40.3932Z" fill="#FFBF9D"/>
<path d="M225.582 88.9318C225.852 88.0885 226.46 87.4016 227.173 86.9843C228.59 86.1497 230.399 86.3584 231.555 87.4973C232.711 88.6362 233.137 90.6271 232.59 92.3138C231.677 93.2005 230.425 93.6874 229.155 93.5744C228.955 93.557 228.764 93.5309 228.564 93.4874C227.617 93.2962 226.712 92.8093 226.112 91.9834C225.513 91.1574 225.252 89.9751 225.582 88.9231V88.9318Z" fill="#404040"/>
<path d="M247.257 77.065C247.039 78.1865 245.909 78.9255 244.735 78.7256C243.562 78.5169 242.788 77.4475 243.005 76.326C243.223 75.2045 244.353 74.4655 245.527 74.6655C246.7 74.8741 247.483 75.9522 247.265 77.0737L247.257 77.065Z" fill="#404040"/>
<path d="M252.595 69.4924C252.273 69.7097 250.943 68.1535 248.674 67.6319C246.413 67.0842 244.474 67.8579 244.3 67.5275C244.205 67.3798 244.587 66.945 245.439 66.5799C246.274 66.2234 247.613 65.9887 249.021 66.3191C250.43 66.6582 251.499 67.4493 252.064 68.1448C252.638 68.8403 252.76 69.3968 252.603 69.4837L252.595 69.4924Z" fill="#404040"/>
<path d="M234.737 84.8807C234.754 84.7503 236.223 84.8285 238.579 85.0719C239.171 85.1502 239.744 85.1589 239.936 84.785C240.17 84.3938 240.075 83.7157 239.944 82.9767C239.727 81.4465 239.492 79.8468 239.249 78.1689C238.327 71.3354 237.797 65.7713 238.075 65.7365C238.353 65.7017 239.327 71.2137 240.249 78.0385C240.466 79.7164 240.666 81.3248 240.866 82.855C240.935 83.5679 241.135 84.4025 240.64 85.2023C240.379 85.6023 239.883 85.8109 239.492 85.8283C239.092 85.8544 238.771 85.7849 238.475 85.7414C236.145 85.3328 234.719 85.0111 234.737 84.8807Z" fill="#404040"/>
<path d="M228.92 111.823C228.92 111.823 217.697 109.972 208.264 100.852C208.264 100.852 211.489 113.606 228.303 115.875L228.92 111.823Z" fill="#404040"/>
<path d="M227.704 84.9067C228.078 84.9676 227.513 87.4367 229.217 89.671C230.912 91.9141 233.607 92.2445 233.547 92.5922C233.547 92.7574 232.851 92.9313 231.738 92.7052C230.643 92.4879 229.139 91.775 228.095 90.41C227.061 89.0364 226.835 87.4802 226.983 86.4543C227.13 85.4023 227.539 84.8546 227.704 84.9067Z" fill="#404040"/>
<path d="M253.211 61.3286C252.698 61.7981 251.047 61.0244 248.977 60.7201C246.917 60.3549 245.1 60.5636 244.77 59.9637C244.63 59.6768 244.978 59.1812 245.804 58.79C246.621 58.3988 247.943 58.164 249.36 58.3901C250.777 58.6248 251.951 59.2595 252.594 59.8941C253.255 60.5288 253.42 61.1026 253.194 61.3286H253.211Z" fill="#404040"/>
<path d="M222.278 72.1868C222.026 73.2996 222.757 74.4385 223.913 74.7254C225.069 75.0123 226.217 74.3429 226.469 73.23C226.721 72.1172 225.991 70.9783 224.834 70.6914C223.678 70.4045 222.531 71.0739 222.27 72.1868H222.278Z" fill="#404040"/>
<path d="M221.749 63.1973C221.957 63.5277 223.8 62.6409 226.087 63.093C228.374 63.5016 229.825 65.0057 230.13 64.7709C230.278 64.6666 230.104 64.1189 229.478 63.4494C228.86 62.78 227.73 62.0323 226.304 61.7628C224.879 61.4933 223.583 61.7889 222.783 62.1975C221.975 62.6061 221.644 63.0582 221.749 63.206V63.1973Z" fill="#404040"/>
<path d="M224.408 56.0946C224.756 56.7032 226.625 56.5032 228.755 56.8857C230.894 57.1987 232.607 57.9899 233.119 57.5291C233.354 57.303 233.172 56.7292 232.476 56.0859C231.798 55.4512 230.581 54.7992 229.112 54.5557C227.642 54.321 226.295 54.547 225.451 54.9383C224.599 55.3295 224.252 55.8164 224.399 56.1033L224.408 56.0946Z" fill="#404040"/>
<path d="M204.161 73.4473C204.439 72.2215 203.692 69.0047 202.527 68.5439C199.414 67.292 193.537 66.2053 191.581 74.395C188.912 85.5842 200.701 85.958 200.796 85.645C200.875 85.4016 203.187 77.69 204.161 73.456V73.4473Z" fill="#FFBF9D"/>
<path d="M198.684 80.8033C198.64 80.7599 198.457 80.8903 198.092 80.9685C197.736 81.0381 197.162 81.012 196.632 80.6469C195.554 79.9339 195.006 77.8126 195.432 75.7869C195.649 74.761 196.093 73.8395 196.64 73.1265C197.179 72.3876 197.84 71.9442 198.466 71.9789C199.092 71.9789 199.431 72.4397 199.492 72.7875C199.57 73.1352 199.44 73.3439 199.492 73.3787C199.518 73.4135 199.779 73.2483 199.796 72.7614C199.796 72.5267 199.735 72.2311 199.527 71.9529C199.309 71.6746 198.944 71.466 198.518 71.4138C197.64 71.266 196.675 71.8746 196.067 72.6658C195.415 73.4482 194.884 74.4741 194.65 75.6217C194.18 77.8909 194.832 80.2817 196.345 81.1337C197.084 81.5249 197.797 81.4467 198.197 81.2641C198.605 81.0729 198.727 80.8381 198.692 80.8033H198.684Z" fill="#404040"/>
<path d="M202.065 68.4924L204.421 71.9787C218.905 62.2675 248.352 36.7506 246.691 38.2895C246.691 38.2895 238.797 33.3078 229.295 33.273C219.792 33.2382 201.483 34.8032 199.848 45.7315C198.214 56.6599 202.065 68.5011 202.065 68.5011V68.4924Z" fill="#404040"/>
<path d="M228.696 121.838L196.189 110.04H187.46L209.117 133.966L218.298 141.99L229.461 141.382L234.268 136L228.696 121.838Z" fill="#FFBF9D"/>
<path d="M150.085 213.716L151.171 238.641C165.934 249.518 193.007 256.96 217.515 256.429C218.993 256.395 221.141 234.573 228.365 219.002L238.042 205.769C241.911 200.475 244.954 194.598 246.866 188.321C248.127 184.191 248.788 180.992 248.788 180.992C248.788 180.992 264.124 179.766 269.219 172.88C269.219 172.88 262.75 150.736 261.237 145.711C258.655 137.148 247.284 130.671 247.284 130.671L228.426 121.142C228.426 121.142 227.027 128.28 214.855 126.002C199.38 123.107 195.172 109.483 195.172 109.483C195.172 109.483 166.412 109.301 161.109 110.144L150.093 213.698L150.085 213.716Z" fill="#404040"/>
<path d="M246.996 145.903C246.875 145.938 247.414 148.051 248.057 151.52C248.7 154.98 249.361 159.805 249.535 165.169C249.7 170.533 249.344 175.393 248.918 178.888C248.5 182.383 248.092 184.531 248.214 184.557C248.266 184.565 248.422 184.044 248.657 183.079C248.9 182.114 249.179 180.714 249.457 178.958C250.022 175.463 250.465 170.559 250.3 165.143C250.126 159.727 249.37 154.867 248.587 151.407C248.196 149.676 247.831 148.294 247.527 147.346C247.231 146.399 247.049 145.886 246.996 145.903Z" fill="#404040"/>
<path d="M196.266 198.441C196.275 198.493 196.753 198.441 197.614 198.293C198.048 198.232 198.57 198.128 199.161 197.945C199.752 197.771 200.448 197.606 201.17 197.302C202.648 196.78 204.325 195.946 206.082 194.85C207.812 193.711 209.603 192.285 211.263 190.564C212.898 188.816 214.219 186.947 215.254 185.156C216.254 183.339 216.993 181.618 217.427 180.122C217.697 179.383 217.819 178.688 217.958 178.088C218.105 177.488 218.184 176.958 218.218 176.523C218.314 175.654 218.349 175.176 218.297 175.176C218.149 175.149 217.932 177.071 216.914 179.957C216.419 181.409 215.645 183.061 214.645 184.817C213.602 186.547 212.298 188.347 210.707 190.06C209.09 191.746 207.36 193.146 205.699 194.285C204.004 195.389 202.395 196.25 200.978 196.824C198.153 198.006 196.249 198.328 196.283 198.475L196.266 198.441Z" fill="#404040"/>
<path d="M172.74 110.683L161.099 110.162L129.14 118.838L136.104 141.99L163.89 147.476L172.74 110.683Z" fill="#404040"/>
<path d="M158.656 125.985C158.778 125.985 159.065 131.15 159.282 137.522C159.508 143.895 159.587 149.068 159.456 149.077C159.335 149.077 159.048 143.921 158.83 137.54C158.604 131.167 158.526 125.994 158.656 125.985Z" fill="#404040"/>
<path d="M453.174 160.562H140.259V349.969H453.174V160.562Z" fill="white"/>
<path d="M453.175 349.969C453.175 348.544 453.105 276.575 453.001 160.562L453.175 160.736C368.573 160.753 259.255 160.771 140.286 160.788H140.26L140.486 160.562C140.486 227.671 140.478 291.702 140.469 349.969L140.26 349.761C323.895 349.882 451.279 349.969 453.175 349.969C451.279 349.969 323.895 350.056 140.26 350.178H140.052V349.969C140.052 291.702 140.043 227.671 140.034 160.562V160.336H140.286C259.255 160.353 368.573 160.371 453.175 160.388H453.349V160.562C453.244 276.575 453.175 348.544 453.175 349.969Z" fill="#404040"/>
<path d="M243.509 184.392H179.052C178.043 184.392 177.226 185.209 177.226 186.217V187.626C177.226 188.634 178.043 189.452 179.052 189.452H243.509C244.517 189.452 245.335 188.634 245.335 187.626V186.217C245.335 185.209 244.517 184.392 243.509 184.392Z" fill="#404040"/>
<path d="M243.509 203.771H179.051C178.043 203.771 177.226 204.588 177.226 205.597V207.005C177.226 208.013 178.043 208.831 179.051 208.831H243.509C244.517 208.831 245.334 208.013 245.334 207.005V205.597C245.334 204.588 244.517 203.771 243.509 203.771Z" fill="#404040"/>
<path d="M203.064 193.729H179.051C178.043 193.729 177.226 194.546 177.226 195.555V196.963C177.226 197.971 178.043 198.789 179.051 198.789H203.064C204.073 198.789 204.89 197.971 204.89 196.963V195.555C204.89 194.546 204.073 193.729 203.064 193.729Z" fill="#404040"/>
<path d="M243.508 193.729H210.889C209.88 193.729 209.063 194.546 209.063 195.555V196.963C209.063 197.971 209.88 198.789 210.889 198.789H243.508C244.517 198.789 245.334 197.971 245.334 196.963V195.555C245.334 194.546 244.517 193.729 243.508 193.729Z" fill="#404040"/>
<g opacity="0.3">
<path d="M317.321 183.862H222.087C219.182 183.862 216.827 186.217 216.827 189.122V216.49C216.827 219.395 219.182 221.75 222.087 221.75H317.321C320.226 221.75 322.581 219.395 322.581 216.49V189.122C322.581 186.217 320.226 183.862 317.321 183.862Z" fill="black"/>
</g>
<path d="M313.819 180.358H218.585C215.68 180.358 213.325 182.713 213.325 185.618V212.986C213.325 215.891 215.68 218.246 218.585 218.246H313.819C316.724 218.246 319.079 215.891 319.079 212.986V185.618C319.079 182.713 316.724 180.358 313.819 180.358Z" fill="#EBEBEB"/>
<path d="M313.81 218.246C313.81 218.246 314.053 218.229 314.523 218.159C314.984 218.09 315.688 217.925 316.47 217.446C317.253 216.977 318.105 216.151 318.609 214.908C319.148 213.665 318.913 212.065 318.957 210.309C318.939 206.779 318.922 202.475 318.905 197.485C318.905 194.981 318.887 192.312 318.879 189.478C318.861 188.069 318.896 186.583 318.844 185.122C318.713 183.688 317.905 182.297 316.653 181.445C316.027 181.019 315.297 180.74 314.54 180.636C313.793 180.54 312.949 180.601 312.132 180.584C310.489 180.584 308.802 180.584 307.081 180.593C303.647 180.593 300.073 180.601 296.37 180.61C288.971 180.619 281.06 180.627 272.74 180.636C256.091 180.636 237.798 180.653 218.593 180.662C217.463 180.662 216.342 181.053 215.472 181.766C214.603 182.479 213.985 183.479 213.751 184.574C213.551 185.644 213.673 186.887 213.638 188.043V191.564C213.638 196.242 213.638 200.85 213.638 205.379C213.638 207.64 213.638 209.891 213.638 212.108C213.603 213.247 213.673 214.256 214.168 215.203C214.629 216.134 215.394 216.899 216.307 217.377C217.237 217.872 218.228 217.977 219.324 217.942C220.402 217.942 221.471 217.942 222.54 217.942C224.67 217.942 226.774 217.942 228.861 217.942C245.501 217.968 260.49 217.994 273.087 218.012C285.659 218.055 295.839 218.09 302.899 218.107C306.403 218.133 309.124 218.151 311.002 218.168C311.915 218.185 312.61 218.194 313.106 218.203C313.584 218.211 313.827 218.238 313.827 218.238C313.827 218.238 313.584 218.255 313.106 218.272C312.61 218.272 311.906 218.29 311.002 218.307C309.124 218.324 306.394 218.342 302.899 218.368C295.839 218.394 285.659 218.429 273.087 218.464C260.49 218.481 245.501 218.507 228.861 218.533C226.783 218.533 224.67 218.533 222.54 218.533C221.471 218.533 220.402 218.533 219.324 218.533C218.272 218.577 217.037 218.464 216.029 217.907C215.003 217.377 214.151 216.525 213.629 215.482C213.064 214.464 212.986 213.186 213.029 212.117C213.029 209.891 213.029 207.648 213.029 205.388C213.029 200.858 213.029 196.25 213.029 191.573V186.278C213.029 185.705 213.02 185.061 213.151 184.444C213.412 183.209 214.107 182.079 215.09 181.279C216.072 180.48 217.333 180.036 218.611 180.036C237.816 180.045 256.108 180.054 272.757 180.062C281.077 180.071 288.989 180.08 296.387 180.088C300.091 180.088 303.664 180.097 307.098 180.106C308.82 180.106 310.498 180.106 312.149 180.114C312.975 180.132 313.775 180.071 314.619 180.184C315.453 180.306 316.244 180.619 316.922 181.079C318.279 182.01 319.148 183.522 319.287 185.079C319.339 186.617 319.287 188.043 319.305 189.469C319.305 192.303 319.287 194.981 319.279 197.476C319.261 202.467 319.244 206.779 319.226 210.3C319.165 212.039 319.392 213.665 318.809 214.969C318.279 216.247 317.375 217.081 316.566 217.542C315.757 218.02 315.036 218.168 314.566 218.211C314.088 218.264 313.845 218.238 313.845 218.238L313.81 218.246Z" fill="#404040"/>
<path d="M243.909 183.47H220.479C217.977 183.47 215.949 185.498 215.949 188V211.43C215.949 213.932 217.977 215.96 220.479 215.96H243.909C246.411 215.96 248.439 213.932 248.439 211.43V188C248.439 185.498 246.411 183.47 243.909 183.47Z" fill="#404040"/>
<path d="M278.085 183.47H254.012C251.688 183.47 249.804 185.354 249.804 187.678V211.752C249.804 214.076 251.688 215.96 254.012 215.96H278.085C280.409 215.96 282.293 214.076 282.293 211.752V187.678C282.293 185.354 280.409 183.47 278.085 183.47Z" fill="#404040"/>
<g opacity="0.5">
<path d="M278.086 183.471H254.012C251.688 183.471 249.804 185.355 249.804 187.679V211.752C249.804 214.076 251.688 215.96 254.012 215.96H278.086C280.409 215.96 282.293 214.076 282.293 211.752V187.679C282.293 185.355 280.409 183.471 278.086 183.471Z" fill="white"/>
</g>
<path d="M312.191 183.47H287.961C285.681 183.47 283.832 185.319 283.832 187.6V211.83C283.832 214.111 285.681 215.96 287.961 215.96H312.191C314.472 215.96 316.321 214.111 316.321 211.83V187.6C316.321 185.319 314.472 183.47 312.191 183.47Z" fill="#404040"/>
<path d="M419.346 311.585H203.144C202.136 311.585 201.318 312.403 201.318 313.411V314.82C201.318 315.828 202.136 316.645 203.144 316.645H419.346C420.355 316.645 421.172 315.828 421.172 314.82V313.411C421.172 312.403 420.355 311.585 419.346 311.585Z" fill="#404040"/>
<path d="M227.157 320.932H203.144C202.136 320.932 201.318 321.749 201.318 322.757V324.166C201.318 325.174 202.136 325.992 203.144 325.992H227.157C228.165 325.992 228.983 325.174 228.983 324.166V322.757C228.983 321.749 228.165 320.932 227.157 320.932Z" fill="#404040"/>
<path d="M398.646 320.932H234.981C233.973 320.932 233.156 321.749 233.156 322.757V324.166C233.156 325.174 233.973 325.992 234.981 325.992H398.646C399.654 325.992 400.472 325.174 400.472 324.166V322.757C400.472 321.749 399.654 320.932 398.646 320.932Z" fill="#404040"/>
<path d="M415.859 184.392H343.481C342.473 184.392 341.656 185.209 341.656 186.217V187.626C341.656 188.634 342.473 189.452 343.481 189.452H415.859C416.867 189.452 417.685 188.634 417.685 187.626V186.217C417.685 185.209 416.867 184.392 415.859 184.392Z" fill="#404040"/>
<path d="M415.859 203.771H343.481C342.473 203.771 341.656 204.588 341.656 205.597V207.005C341.656 208.013 342.473 208.831 343.481 208.831H415.859C416.867 208.831 417.685 208.013 417.685 207.005V205.597C417.685 204.588 416.867 203.771 415.859 203.771Z" fill="#404040"/>
<path d="M370.711 193.729H343.481C342.473 193.729 341.656 194.546 341.656 195.555V196.963C341.656 197.971 342.473 198.789 343.481 198.789H370.711C371.719 198.789 372.537 197.971 372.537 196.963V195.555C372.537 194.546 371.719 193.729 370.711 193.729Z" fill="#404040"/>
<path d="M415.859 193.729H379.023C378.014 193.729 377.197 194.546 377.197 195.555V196.963C377.197 197.971 378.014 198.789 379.023 198.789H415.859C416.868 198.789 417.685 197.971 417.685 196.963V195.555C417.685 194.546 416.868 193.729 415.859 193.729Z" fill="#404040"/>
<path d="M381.97 223.619C381.849 223.619 381.744 221.133 381.744 218.064C381.744 214.995 381.849 212.5 381.97 212.5C382.092 212.5 382.196 214.986 382.196 218.064C382.196 221.141 382.092 223.619 381.97 223.619Z" fill="#404040"/>
<path d="M383.527 223.35C383.527 224.15 382.831 224.794 381.97 224.794C381.11 224.794 380.414 224.15 380.414 223.35C380.414 222.551 381.11 221.907 381.97 221.907C382.831 221.907 383.527 222.551 383.527 223.35Z" fill="#404040"/>
<path d="M186.633 311.246L188.041 314.098C188.276 314.576 188.737 314.915 189.267 314.993L192.414 315.454C193.753 315.645 194.284 317.289 193.319 318.236L191.041 320.453C190.658 320.827 190.484 321.366 190.571 321.896L191.11 325.026C191.336 326.356 189.945 327.374 188.746 326.748L185.937 325.27C185.459 325.017 184.894 325.017 184.425 325.27L181.617 326.748C180.417 327.374 179.026 326.365 179.252 325.026L179.791 321.896C179.878 321.366 179.704 320.827 179.321 320.453L177.043 318.236C176.078 317.297 176.609 315.654 177.948 315.454L181.095 314.993C181.625 314.915 182.086 314.585 182.321 314.098L183.729 311.246C184.329 310.038 186.05 310.038 186.65 311.246H186.633Z" fill="#404040"/>
<g opacity="0.3">
<path d="M48.5542 316.784C48.5542 316.784 58.5523 342.753 74.4101 351.343C77.4096 352.969 86.5991 353.586 89.2856 353.23C109.638 350.491 133.825 289.598 133.825 289.598C133.825 289.598 89.2595 326.695 79.7048 318.532C75.4447 314.889 76.7488 302.404 76.6097 302.483C74.3754 303.622 48.5629 316.784 48.5629 316.784H48.5542Z" fill="black"/>
</g>
<path d="M81.2346 316.924L128.443 278.601L138.102 292.624C138.102 292.624 105.395 334.129 98.0053 342.241C90.6154 350.361 79.1046 354.256 69.0021 346.44C60.8559 340.145 41.7117 304.091 41.7117 304.091C41.7117 304.091 70.7061 287.025 69.1325 287.025C68.8891 287.025 81.2433 316.906 81.2433 316.906L81.2346 316.924Z" fill="#FFBF9D"/>
<path d="M80.1137 325.679C80.1137 325.679 80.1571 325.757 80.1658 325.922H80.0267C79.9746 325.331 80.0267 323.584 80.2875 321.532C80.6092 318.993 81.1222 316.976 81.2439 317.002C81.3743 317.028 81.0526 319.071 80.7396 321.593C80.4788 323.627 80.2962 325.348 80.1745 325.922H80.0354C80.0702 325.748 80.0963 325.67 80.1224 325.679H80.1137Z" fill="#404040"/>
<path d="M152.717 248.893C150.996 249.893 144.327 255.336 143.849 255.37C143.371 255.396 147.857 249.224 148.848 246.607C149.64 244.512 148.805 243.668 146.831 243.981C145.136 244.251 139.215 252.275 139.215 252.275L137.381 254.379L133.286 259.065C133.286 259.065 130.939 268.446 129.965 271.741C128.991 275.036 126.731 288.46 126.731 288.46L138.815 292.337C141.311 288.634 145.275 289.034 146.553 280.626C147.214 276.288 148.727 266.733 148.727 266.733C152.917 258.97 155.934 258.379 157.264 256.162C158.994 253.301 155.447 253.249 155.447 253.249C155.447 253.249 156.43 251.884 156.682 250.432C157.099 247.98 154.413 247.885 152.7 248.885L152.717 248.893Z" fill="#FFBF9D"/>
<path d="M133.738 264.717C133.677 264.708 133.773 263.934 133.981 262.708C134.103 262.039 134.233 261.317 134.372 260.552C134.512 259.718 134.903 258.848 135.346 258.005C136.25 256.309 137.224 254.875 137.946 253.858C138.676 252.841 139.172 252.249 139.224 252.284C139.345 252.362 137.563 254.901 135.746 258.213C135.311 259.057 134.929 259.848 134.781 260.639C134.607 261.395 134.451 262.108 134.294 262.778C134.007 263.995 133.799 264.734 133.738 264.725V264.717Z" fill="#404040"/>
<path d="M144.718 262.952C144.675 262.934 144.944 262.134 145.675 261.004C146.396 259.865 147.613 258.431 149.17 257.109C150.726 255.77 152.308 254.788 153.482 254.145C154.664 253.51 155.438 253.214 155.464 253.267C155.542 253.397 152.543 254.832 149.465 257.457C147.935 258.761 146.709 260.126 145.936 261.196C145.153 262.256 144.779 262.995 144.718 262.96V262.952Z" fill="#404040"/>
<path d="M143.858 255.362C143.945 255.44 142.789 256.814 141.841 258.805C140.85 260.769 140.389 262.508 140.268 262.482C140.146 262.465 140.416 260.622 141.441 258.605C142.424 256.562 143.78 255.257 143.867 255.362H143.858Z" fill="#404040"/>
<path d="M43.6172 255.683C34.0365 260.265 29.446 269.75 32.5411 284.599C34.8189 295.528 42.0958 320.558 42.0958 320.558L78.9323 305.221C78.9323 305.221 74.1419 291.92 66.9172 279.678C58.6666 265.69 48.1207 253.518 43.6172 255.674V255.683Z" fill="#404040"/>
<path d="M42.096 320.558C42.096 320.558 42.3133 320.436 42.748 320.236C43.2175 320.027 43.8609 319.749 44.652 319.393C46.3561 318.663 48.7556 317.637 51.6942 316.385C57.693 313.872 65.9176 310.421 75.0028 306.613C76.3156 306.065 77.6197 305.526 78.8455 305.013L78.7325 305.326C76.559 301.422 74.7941 297.597 73.2814 294.119C71.7686 290.633 70.4645 287.503 69.2908 284.93C68.1258 282.348 67.126 280.305 66.4131 278.905C66.0741 278.235 65.7958 277.705 65.5872 277.296C65.4046 276.931 65.309 276.731 65.3264 276.723C65.3351 276.723 65.4568 276.897 65.6654 277.253C65.8741 277.609 66.1784 278.131 66.5609 278.818C67.3173 280.192 68.3606 282.226 69.569 284.791C72.0294 289.903 74.7941 297.327 79.1237 305.1L79.2455 305.317L79.0107 305.413C77.7849 305.926 76.4895 306.465 75.168 307.013C66.0654 310.777 57.8234 314.176 51.8072 316.663C48.8425 317.863 46.4256 318.845 44.7042 319.541C43.8957 319.862 43.2436 320.114 42.7654 320.306C42.322 320.471 42.0873 320.558 42.0786 320.54L42.096 320.558Z" fill="#404040"/>
<path d="M190.954 152.251C193.649 153.129 199.005 155.068 202.821 160.823C206.907 166.987 209.516 169.952 213.958 172.769C218.401 175.585 224.382 177.246 223.104 179.793C221.826 182.341 210.846 179.124 210.846 179.124C210.846 179.124 217.062 199.311 214.558 200.72C213.715 201.198 211.411 200.807 210.585 198.572C208.742 193.617 206.255 186.783 206.255 186.783C206.255 186.783 201.804 198.668 198.483 199.963C195.162 201.259 193.849 198.564 193.849 198.564C193.849 198.564 191.675 200.059 189.502 198.277C188.137 197.164 188.554 194.773 188.554 194.773C188.554 194.773 185.616 194.225 186.129 190.583C186.616 187.14 189.406 176.959 189.406 176.959C189.406 176.959 184.346 169.117 183.877 169.326C183.407 169.534 173.262 168.378 173.262 168.378L178.974 149.686L190.945 152.259L190.954 152.251Z" fill="#FFBF9D"/>
<path d="M186.936 169.856L191.761 152.425L135.937 140.427L129.495 120.231C129.495 120.231 106.021 128.403 99.4399 135.28C89.8852 145.252 97.1882 157.702 103.5 159.658C109.821 161.614 186.928 169.856 186.928 169.856H186.936Z" fill="#FFBF9D"/>
<path d="M114.056 136.879C114.056 136.879 114.378 136.827 114.96 136.818C115.543 136.801 116.377 136.818 117.412 136.853C119.481 136.931 122.341 137.149 125.471 137.636C128.601 138.131 131.392 138.801 133.374 139.409C134.365 139.713 135.165 139.983 135.704 140.192C136.243 140.4 136.539 140.531 136.53 140.557C136.504 140.626 135.287 140.235 133.296 139.713C131.305 139.192 128.523 138.566 125.41 138.079C122.298 137.592 119.464 137.323 117.403 137.166C115.343 137.01 114.065 136.949 114.065 136.879H114.056Z" fill="#404040"/>
<path d="M201.691 182.888C201.743 182.905 201.5 183.862 200.97 185.366C200.439 186.87 199.596 188.913 198.518 191.086C197.431 193.269 196.31 195.164 195.423 196.494C194.545 197.824 193.919 198.589 193.875 198.563C193.823 198.528 194.345 197.694 195.153 196.329C195.962 194.964 197.031 193.051 198.109 190.886C199.187 188.722 200.065 186.713 200.674 185.253C201.283 183.783 201.63 182.871 201.7 182.888H201.691Z" fill="#404040"/>
<path d="M194.761 180.088C194.813 180.097 194.709 181.01 194.37 182.445C194.031 183.879 193.439 185.844 192.553 187.922C191.666 190 190.657 191.782 189.849 193.025C189.04 194.268 188.458 194.973 188.414 194.938C188.353 194.894 188.84 194.129 189.571 192.86C190.301 191.591 191.249 189.8 192.135 187.748C193.013 185.696 193.648 183.775 194.057 182.366C194.474 180.958 194.691 180.08 194.761 180.088Z" fill="#404040"/>
<path d="M209.298 173.342C209.411 173.299 210.072 174.725 210.576 176.585C211.089 178.446 211.246 180.011 211.124 180.028C210.994 180.054 210.637 178.541 210.133 176.707C209.629 174.872 209.168 173.386 209.29 173.342H209.298Z" fill="#404040"/>
<path d="M50.1884 191.399C47.3541 187.73 47.7454 181.966 51.0491 178.715C49.232 176.437 49.8754 172.924 51.7185 170.673C53.5529 168.421 56.2916 167.117 58.9345 165.9C60.3777 159.24 67.8459 154.537 74.4707 156.128C77.9135 151.05 85.2687 150.242 91.1632 151.946C92.6064 152.363 94.0409 152.902 95.545 152.894C96.6404 152.894 97.7185 152.589 98.8052 152.433C104.795 151.615 110.759 155.832 113.098 161.405C113.472 162.3 113.785 163.239 114.376 163.996C115.159 164.996 116.332 165.587 117.341 166.361C119.514 168.03 120.897 170.69 121.018 173.437C121.123 175.767 120.384 178.237 121.366 180.349C121.862 181.41 122.748 182.262 123.131 183.366C124.244 186.565 120.705 189.834 121.366 193.155C121.505 193.834 121.81 194.46 121.992 195.129C122.375 196.485 122.253 197.989 121.636 199.259C121.166 200.241 120.401 201.145 120.34 202.232C120.297 203.058 120.662 203.84 120.827 204.658C121.236 206.64 116.967 214.291 115.254 215.369L64.064 215.908C60.1865 215.125 57.0306 211.621 56.648 207.683C56.5872 207.031 56.5698 206.318 56.1698 205.805C55.8221 205.362 55.2657 205.162 54.7701 204.901C51.4751 203.136 51.0665 198.615 51.4055 194.886C51.4577 194.364 51.5099 193.834 51.3708 193.321C51.1795 192.582 50.6231 192.008 50.1623 191.408L50.1884 191.399Z" fill="#404040"/>
<path d="M54.728 174.646C61.8832 164.579 71.9943 158.371 84.305 157.328C91.2515 156.737 94.2248 157.989 99.3282 159.006C104.432 160.014 109.126 162.397 112.404 166.431C116.29 171.23 119.655 176.663 120.742 182.741C121.854 188.983 121.793 195.173 120.941 200.329C119.907 206.588 116.316 216.291 112.952 221.664L102.362 223.681C93.5119 224.585 84.5397 225.489 75.7675 224.046C66.9865 222.611 58.2838 218.534 53.137 211.274C45.9992 201.189 47.5555 184.705 54.7193 174.638L54.728 174.646Z" fill="#404040"/>
<path d="M69.012 173.568L89.8428 163.605L95.4765 163.874C108.065 163.066 117.681 176.35 118.455 186.54C119.315 197.859 119.915 211.709 118.689 220.177C116.212 237.2 101.98 239.573 101.98 239.573L102.371 249.658C99.7366 258.683 78.2189 259.508 69.6466 249.989L63.7434 179.706C63.6391 176.603 65.9343 173.942 69.012 173.577V173.568Z" fill="#FFBF9D"/>
<path d="M93.2507 217.96C93.3028 217.065 93.7462 216.256 94.3374 215.674C95.5198 214.517 97.3455 214.283 98.7453 215.117C100.154 215.952 101.049 217.804 100.91 219.586C100.223 220.673 99.1191 221.447 97.8498 221.647C97.6498 221.681 97.4499 221.699 97.2499 221.707C96.2849 221.751 95.2764 221.49 94.4852 220.821C93.6941 220.16 93.1637 219.056 93.2333 217.96H93.2507Z" fill="#404040"/>
<path d="M114.915 202.015C114.968 203.163 114.046 204.163 112.846 204.241C111.646 204.319 110.629 203.459 110.577 202.302C110.525 201.155 111.446 200.155 112.646 200.077C113.846 199.998 114.863 200.859 114.924 202.015H114.915Z" fill="#404040"/>
<path d="M115.002 192.46C114.733 192.747 113.072 191.547 110.725 191.582C108.386 191.582 106.673 192.816 106.421 192.53C106.291 192.408 106.56 191.886 107.308 191.33C108.038 190.773 109.29 190.234 110.751 190.217C112.211 190.208 113.446 190.73 114.159 191.269C114.889 191.817 115.141 192.321 115.011 192.451L115.002 192.46Z" fill="#404040"/>
<path d="M101.24 211.805C101.232 211.675 102.684 211.405 105.04 211.066C105.64 210.996 106.205 210.866 106.3 210.457C106.439 210.023 106.179 209.379 105.874 208.684C105.292 207.241 104.683 205.728 104.049 204.146C101.51 197.686 99.6581 192.374 99.9189 192.27C100.18 192.165 102.458 197.321 104.996 203.78C105.605 205.371 106.196 206.893 106.752 208.345C106.987 209.023 107.387 209.788 107.091 210.692C106.935 211.144 106.5 211.475 106.118 211.579C105.735 211.701 105.396 211.709 105.101 211.735C102.727 211.892 101.249 211.927 101.24 211.788V211.805Z" fill="#404040"/>
<path d="M102.005 239.547C102.005 239.547 90.5807 240.434 79.1655 233.774C79.1655 233.774 85.1644 245.92 102.152 244.112L102.005 239.547Z" fill="#404040"/>
<path d="M94.3549 213.517C94.7375 213.491 94.7722 216.038 96.9718 217.812C99.1714 219.594 101.875 219.273 101.901 219.629C101.936 219.785 101.301 220.133 100.163 220.177C99.041 220.229 97.3978 219.89 96.0503 218.803C94.7027 217.716 94.1202 216.238 94.0159 215.195C93.9028 214.134 94.181 213.5 94.3549 213.508V213.517Z" fill="#404040"/>
<path d="M113.655 184.332C113.273 184.906 111.464 184.549 109.369 184.749C107.265 184.88 105.544 185.523 105.074 185.019C104.866 184.767 105.092 184.21 105.805 183.619C106.517 183.037 107.743 182.489 109.187 182.376C110.63 182.263 111.925 182.602 112.716 183.071C113.516 183.532 113.82 184.054 113.647 184.332H113.655Z" fill="#404040"/>
<path d="M90.9819 202.641C90.9993 203.789 91.9904 204.728 93.1902 204.728C94.39 204.728 95.355 203.806 95.3376 202.65C95.3202 201.502 94.3291 200.563 93.1293 200.555C91.9296 200.555 90.9645 201.476 90.9819 202.633V202.641Z" fill="#404040"/>
<path d="M83.3312 193.704C83.6181 193.973 85.2004 192.669 87.5478 192.556C89.8865 192.408 91.6688 193.53 91.9035 193.226C92.0252 193.095 91.7209 192.591 90.9472 192.087C90.1821 191.582 88.8954 191.113 87.4435 191.2C85.9829 191.278 84.7831 191.878 84.105 192.469C83.4095 193.06 83.1921 193.582 83.3312 193.704Z" fill="#404040"/>
<path d="M84.2254 186.123C84.7122 186.627 86.4945 185.992 88.668 185.853C90.8328 185.653 92.702 186.01 93.0933 185.427C93.2671 185.149 92.9455 184.627 92.1195 184.166C91.3023 183.706 89.9547 183.358 88.468 183.48C86.9814 183.601 85.7033 184.14 84.9817 184.732C84.2428 185.314 84.0167 185.879 84.2341 186.123H84.2254Z" fill="#404040"/>
<path d="M122.105 188.495C119.757 187 118.271 184.983 118.445 182.21C116.88 182.662 115.306 180.636 114.411 179.271C113.506 177.915 112.402 177.219 112.481 175.593C112.498 175.272 112.524 174.933 112.376 174.646C112.141 174.194 111.594 174.046 111.107 173.889C108.629 173.09 106.629 170.942 106.004 168.412C103.491 169.482 100.718 169.916 97.9963 169.664C96.7705 171.403 94.6231 172.455 92.5017 172.342C90.3804 172.229 88.346 170.968 87.3114 169.108C86.5898 170.56 85.0684 171.49 83.4947 171.872C81.9211 172.255 80.2693 172.177 78.6522 172.098C79.3216 175.237 77.2612 178.723 74.1835 179.636C73.7662 179.758 73.288 179.88 73.088 180.271C72.8881 180.671 73.0967 181.149 73.2532 181.575C74.2443 184.253 72.4534 187.6 69.6713 188.252C71.5666 189.747 71.3405 193.173 69.2627 194.399C68.8367 194.651 68.2803 194.955 68.3411 195.451C68.3672 195.642 68.4802 195.798 68.5932 195.946C69.4539 197.111 70.306 198.372 70.4016 199.815C70.4972 201.258 69.5061 202.867 68.0629 202.919C68.8193 203.597 69.5148 204.475 69.5235 205.483C69.5322 206.501 68.4976 207.518 67.5586 207.144C67.1587 206.987 61.3598 205.796 61.1077 205.449C57.8475 200.936 62.038 196.024 62.4118 190.469C62.7856 184.913 60.9251 178.549 63.742 173.75C64.9244 171.733 70.106 170.803 71.7752 169.169C73.6792 167.308 75.9571 165.882 78.2262 164.5C81.1908 162.692 84.2337 160.883 87.6244 160.118C93.9362 158.684 100.457 161.031 106.308 163.796C108.533 164.848 110.75 165.978 112.611 167.586C114.837 169.508 116.471 172.029 117.888 174.602C119.94 178.332 121.635 182.349 122.009 186.583" fill="#404040"/>
<path d="M123.131 183.366C123.131 183.366 123.018 182.879 122.513 182.105C122.27 181.714 121.922 181.262 121.6 180.68C121.279 180.097 121.027 179.358 120.966 178.497C120.879 177.637 120.957 176.672 121.035 175.611C121.114 174.559 121.2 173.385 120.966 172.142C120.74 170.916 120.253 169.638 119.462 168.456C119.062 167.865 118.592 167.308 118.036 166.795C117.488 166.282 116.845 165.848 116.201 165.413C115.567 164.978 114.915 164.509 114.437 163.874C113.958 163.24 113.663 162.457 113.35 161.666C112.715 160.075 111.785 158.51 110.55 157.136C109.324 155.763 107.82 154.511 106.056 153.624C105.186 153.146 104.23 152.833 103.256 152.546C102.265 152.329 101.239 152.146 100.196 152.181C99.6741 152.181 99.1525 152.242 98.6222 152.294C98.1005 152.372 97.5876 152.476 97.0659 152.563C96.0314 152.763 94.9881 152.781 93.9448 152.546C92.9015 152.329 91.8843 151.946 90.8063 151.676C89.7369 151.372 88.6241 151.198 87.5025 151.068C86.381 150.946 85.2334 150.946 84.0858 151.016C82.9382 151.103 81.7906 151.303 80.6604 151.624C78.426 152.285 76.2438 153.528 74.7571 155.458C74.6094 155.65 74.4616 155.841 74.3224 156.032L74.505 155.963C70.984 155.128 67.289 156.05 64.4461 157.919C61.577 159.788 59.447 162.674 58.7602 165.865L58.8558 165.752C57.4387 166.413 56.039 167.074 54.7523 167.882C53.4655 168.691 52.2832 169.656 51.3964 170.847C50.5183 172.038 49.9793 173.446 49.8488 174.863C49.7184 176.28 50.0662 177.741 50.9356 178.819V178.628C49.2663 180.288 48.4143 182.497 48.2231 184.601C48.0231 186.713 48.4578 188.765 49.3968 190.408C49.6141 190.834 49.901 191.199 50.1618 191.565C50.44 191.921 50.7356 192.251 50.9617 192.608C51.1877 192.964 51.3355 193.347 51.3703 193.755C51.4051 194.155 51.3616 194.564 51.3268 194.964C51.1964 196.572 51.2138 198.068 51.4225 199.389C51.6311 200.711 52.005 201.876 52.544 202.771C53.0743 203.675 53.7438 204.293 54.3436 204.675C54.9435 205.075 55.4739 205.232 55.7695 205.449C56.0737 205.649 56.1781 205.814 56.1955 205.805C56.1955 205.805 56.0998 205.631 55.7955 205.414C55.4999 205.179 54.9696 205.005 54.3958 204.597C53.8133 204.206 53.17 203.588 52.657 202.702C52.1354 201.823 51.7789 200.676 51.5876 199.363C51.3964 198.05 51.3877 196.572 51.5355 194.973C51.5703 194.573 51.6224 194.155 51.5876 193.729C51.5616 193.295 51.3964 192.86 51.1529 192.486C50.9182 192.104 50.6226 191.764 50.3531 191.417C50.101 191.052 49.8228 190.695 49.6141 190.278C48.7099 188.678 48.3013 186.67 48.5013 184.609C48.7012 182.566 49.5446 180.419 51.1703 178.819L51.266 178.724L51.1877 178.619C50.3792 177.611 50.0488 176.228 50.1792 174.872C50.3009 173.516 50.8226 172.16 51.6746 171.021C52.5353 169.882 53.6916 168.934 54.9522 168.143C56.2215 167.352 57.6126 166.691 59.021 166.039L59.0993 166.004L59.1166 165.926C59.7861 162.831 61.8639 160.023 64.6634 158.197C67.4455 156.371 71.0361 155.476 74.4529 156.293L74.5659 156.319L74.6441 156.223C74.7832 156.041 74.9223 155.858 75.0701 155.676C76.5046 153.815 78.6086 152.607 80.7908 151.963C81.8949 151.659 83.0164 151.45 84.1467 151.372C85.2769 151.303 86.3984 151.303 87.5025 151.424C88.6067 151.546 89.7021 151.72 90.7541 152.016C91.8148 152.285 92.8407 152.668 93.9187 152.885C94.4577 152.998 95.0055 153.068 95.5532 153.068C96.1009 153.068 96.6399 152.989 97.1616 152.902C97.6832 152.815 98.1962 152.702 98.7091 152.633C99.2221 152.581 99.7263 152.511 100.239 152.52C101.256 152.494 102.256 152.659 103.221 152.876C104.169 153.154 105.108 153.459 105.96 153.92C107.69 154.78 109.168 155.997 110.376 157.345C111.594 158.693 112.515 160.223 113.141 161.788C113.463 162.57 113.758 163.37 114.271 164.048C114.784 164.717 115.454 165.204 116.097 165.639C116.749 166.074 117.375 166.491 117.914 166.995C118.453 167.491 118.923 168.039 119.314 168.612C120.096 169.76 120.583 171.003 120.809 172.212C121.053 173.42 120.974 174.576 120.905 175.628C120.835 176.689 120.766 177.663 120.861 178.541C120.94 179.419 121.209 180.175 121.548 180.767C121.887 181.349 122.244 181.801 122.496 182.184C122.757 182.558 122.922 182.871 123.026 183.079C123.131 183.288 123.165 183.401 123.174 183.401L123.131 183.366Z" fill="#404040"/>
<path d="M79.9563 153.598C79.9563 153.598 80.2693 153.424 80.8344 153.146C81.3995 152.877 82.2689 152.537 83.3817 152.424C84.4946 152.303 85.8682 152.398 87.2158 153.007C88.5547 153.607 89.8588 154.702 90.6847 156.189C90.9194 156.615 91.1281 157.067 91.2585 157.51C91.3802 157.954 91.3976 158.423 91.1629 158.736L90.876 159.128L91.3454 158.997C92.6408 158.641 93.971 158.893 94.9534 159.449C95.9533 160.006 96.5792 160.858 96.9183 161.623C97.266 162.396 97.3443 163.083 97.3617 163.544C97.3791 164.014 97.3356 164.266 97.3617 164.274C97.3704 164.274 97.3878 164.214 97.4138 164.092C97.4399 163.97 97.466 163.788 97.4747 163.544C97.4921 163.066 97.4486 162.353 97.1183 161.536C96.7879 160.727 96.1532 159.806 95.1012 159.197C94.0667 158.589 92.6582 158.293 91.2585 158.675L91.4411 158.936C91.7714 158.484 91.728 157.893 91.5976 157.415C91.4585 156.919 91.2498 156.467 90.9977 156.015C90.1283 154.459 88.7633 153.32 87.3549 152.711C85.9378 152.094 84.5033 152.016 83.3643 152.181C82.2167 152.338 81.3386 152.72 80.7822 153.033C80.504 153.19 80.2954 153.329 80.165 153.433C80.0345 153.537 79.965 153.589 79.9737 153.607L79.9563 153.598Z" fill="#404040"/>
<path d="M54.7097 177.646C54.7097 177.646 54.7097 177.724 54.7358 177.863C54.7793 178.002 54.8402 178.202 54.988 178.428C55.2749 178.889 55.9095 179.445 56.8572 179.689C57.8135 179.941 59.0046 179.758 60.1957 179.35C60.7868 179.141 61.4128 178.932 62.0388 178.637C62.6561 178.341 63.3255 177.907 63.6559 177.176C63.682 177.115 63.708 177.046 63.7341 176.985L63.4559 177.063C64.5774 177.95 65.725 178.724 66.9074 179.167C68.0724 179.628 69.2548 179.706 70.1851 179.524C71.124 179.35 71.8108 178.959 72.2108 178.619C72.4107 178.454 72.5498 178.298 72.6368 178.193C72.7237 178.08 72.7585 178.02 72.7498 178.02C72.7237 178.002 72.5411 178.22 72.1238 178.515C71.7152 178.811 71.0371 179.15 70.1416 179.28C69.2461 179.419 68.142 179.324 67.0204 178.863C65.8989 178.419 64.7774 177.663 63.6733 176.785L63.4907 176.637L63.4037 176.863C63.3864 176.915 63.3603 176.968 63.3429 177.02C63.0734 177.628 62.4822 178.028 61.891 178.315C61.2911 178.602 60.6738 178.819 60.0913 179.037C58.935 179.454 57.8135 179.645 56.918 179.445C56.0225 179.245 55.4053 178.759 55.101 178.35C54.788 177.941 54.7445 177.637 54.701 177.646H54.7097Z" fill="#404040"/>
<path d="M68.5861 207.953C68.5687 206.683 67.0646 203.719 65.8127 203.545C62.4655 203.066 56.4579 203.414 56.5101 211.891C56.5797 223.48 68.2035 221.011 68.2209 220.681C68.2383 220.42 68.6556 212.326 68.5861 207.953Z" fill="#FFBF9D"/>
<path d="M64.9947 216.464C64.9426 216.429 64.7948 216.603 64.4557 216.768C64.1253 216.925 63.5515 217.029 62.9429 216.812C61.7171 216.368 60.6738 214.43 60.6043 212.343C60.5695 211.291 60.7781 210.283 61.152 209.448C61.4997 208.596 62.0475 208.005 62.6647 207.892C63.2733 207.744 63.7167 208.109 63.8558 208.439C64.0123 208.761 63.9428 208.996 64.0036 209.013C64.0384 209.039 64.247 208.822 64.1514 208.344C64.0992 208.118 63.9688 207.84 63.6906 207.622C63.4124 207.396 63.0038 207.283 62.5691 207.335C61.6736 207.405 60.8738 208.231 60.4738 209.144C60.0218 210.065 59.7522 211.195 59.7957 212.378C59.8827 214.717 61.0911 216.89 62.7691 217.359C63.5863 217.568 64.2644 217.316 64.6122 217.038C64.9686 216.751 65.0295 216.49 64.986 216.473L64.9947 216.464Z" fill="#404040"/>
<g opacity="0.3">
<path d="M96.6729 206.07C100.496 202.247 100.496 196.048 96.6729 192.225C92.8499 188.402 86.6516 188.402 82.8285 192.225C79.0055 196.048 79.0055 202.247 82.8286 206.07C86.6516 209.893 92.8499 209.893 96.6729 206.07Z" fill="white"/>
</g>
<g opacity="0.3">
<path d="M120.342 206.066C124.165 202.243 124.165 196.045 120.342 192.222C116.519 188.399 110.321 188.399 106.498 192.222C102.675 196.045 102.675 202.243 106.498 206.066C110.321 209.889 116.519 209.889 120.342 206.066Z" fill="white"/>
</g>
<path d="M103.317 197.694C103.239 197.798 102.474 197.294 101.405 197.363C100.335 197.407 99.6225 197.989 99.5356 197.885C99.4921 197.841 99.6225 197.633 99.9355 197.398C100.249 197.163 100.77 196.946 101.379 196.911C101.987 196.876 102.526 197.05 102.865 197.25C103.204 197.45 103.352 197.65 103.317 197.694Z" fill="#404040"/>
<path d="M80.3476 198.364C80.3737 198.425 79.6086 198.764 78.3654 199.277C77.1221 199.79 75.392 200.468 73.4707 201.189C71.5493 201.911 69.8018 202.537 68.5325 202.972C67.8978 203.198 67.3588 203.354 66.9676 203.38C66.5763 203.415 66.3677 203.354 66.3764 203.328C66.3764 203.293 66.585 203.293 66.9415 203.206C67.2979 203.128 67.7935 202.937 68.4194 202.676C69.6627 202.163 71.3928 201.485 73.3142 200.763C75.2355 200.042 76.983 199.416 78.2524 198.981C79.5217 198.546 80.3215 198.303 80.3476 198.364Z" fill="#404040"/>
<path d="M231.467 339.588C232.041 340.631 232.215 341.857 232.293 343.048C232.371 344.239 232.528 346.482 232.78 347.647L233.11 355.28C231.511 358.836 227.598 357.671 226.816 355.646C226.399 356.715 226.503 357.35 225.581 358.036C224.66 358.723 223.425 359.036 222.33 358.68C221.243 358.323 220.391 357.211 220.513 356.063C219.504 357.515 217.531 358.219 215.835 357.741C214.81 357.454 213.931 356.741 213.375 355.846C213.097 355.393 212.906 354.898 212.793 354.376C212.758 354.194 212.688 353.968 212.714 353.776C212.732 353.681 212.775 353.603 212.819 353.524C213.045 353.159 213.323 352.837 213.523 352.446C213.601 352.298 213.671 352.151 213.732 352.003C214.027 351.316 214.201 350.586 214.288 349.847C214.331 349.508 214.297 349.125 214.392 348.795C214.453 348.569 214.618 348.395 214.714 348.195C215.34 346.882 215.296 345.291 215.323 343.874C215.357 342.274 215.462 340.579 216.366 339.257C217.27 337.936 219.252 337.232 220.522 338.214C220.374 337.206 221.208 336.215 222.208 336.015C223.208 335.806 224.26 336.275 224.947 337.023C225.634 337.771 226.007 338.771 226.207 339.762C226.207 338.562 227.433 337.606 228.624 337.649C229.815 337.693 230.876 338.545 231.45 339.596L231.467 339.588Z" fill="#FFBF9D"/>
<path d="M208.61 355.09C207.628 355.073 206.559 354.812 205.941 354.047C205.211 353.134 205.141 351.395 205.289 350.239C206.672 350.056 207.376 350.039 208.758 349.847C209.045 349.804 209.289 349.891 209.532 349.734C210.184 349.317 210.158 347.804 210.454 347.091C210.958 345.848 212.61 345.318 213.844 345.848C215.079 346.379 215.818 347.761 215.809 349.1C215.809 350.439 215.148 351.717 214.227 352.699C212.792 354.229 210.706 355.125 208.602 355.09H208.61Z" fill="#FFBF9D"/>
<path d="M220.521 356.463C220.773 356.463 220.991 352.377 220.999 347.334C220.999 342.292 220.799 338.206 220.547 338.206C220.295 338.206 220.078 342.292 220.069 347.334C220.069 352.377 220.269 356.463 220.521 356.463Z" fill="#404040"/>
<path d="M226.842 355.933C227.086 355.959 227.616 352.256 227.451 347.657C227.303 343.058 226.529 339.397 226.286 339.441C226.025 339.476 226.381 343.153 226.52 347.683C226.677 352.212 226.573 355.907 226.833 355.925L226.842 355.933Z" fill="#404040"/>
<path d="M233.023 355.412C233.284 355.429 233.553 352.334 233.266 348.561C232.988 344.796 232.562 341.779 232.319 341.788C232.049 341.797 232.058 344.874 232.336 348.622C232.614 352.369 232.762 355.394 233.014 355.403L233.023 355.412Z" fill="#404040"/>
<path d="M210.611 354.55C210.594 354.663 211.255 354.837 212.22 354.463C213.176 354.107 214.297 353.072 214.88 351.655C215.454 350.229 215.689 348.986 215.697 347.925C215.645 346.787 214.836 346.413 214.81 346.561C214.732 346.656 215.158 347.073 215.036 347.908C214.88 348.717 214.532 350.047 214.019 351.273C213.498 352.525 212.654 353.411 211.907 353.863C211.168 354.324 210.585 354.403 210.594 354.542L210.611 354.55Z" fill="#404040"/>
<path d="M295.066 171.272C295.64 170.229 295.814 169.003 295.892 167.812C295.97 166.621 296.127 164.378 296.379 163.213L296.709 155.58C295.11 152.024 291.197 153.189 290.415 155.214C289.997 154.145 290.102 153.51 289.18 152.824C288.259 152.137 287.024 151.824 285.929 152.18C284.842 152.537 283.99 153.65 284.112 154.797C283.103 153.345 281.13 152.641 279.434 153.119C278.408 153.406 277.53 154.119 276.974 155.014C276.696 155.467 276.504 155.962 276.391 156.484C276.357 156.666 276.287 156.892 276.313 157.084C276.33 157.179 276.374 157.258 276.417 157.336C276.643 157.701 276.922 158.023 277.122 158.414C277.2 158.562 277.269 158.709 277.33 158.857C277.626 159.544 277.8 160.274 277.887 161.013C277.93 161.352 277.895 161.735 277.991 162.065C278.052 162.291 278.217 162.465 278.313 162.665C278.939 163.978 278.895 165.569 278.921 166.986C278.956 168.586 279.06 170.281 279.965 171.603C280.869 172.924 282.851 173.628 284.12 172.655C283.972 173.663 284.807 174.654 285.807 174.854C286.807 175.063 287.859 174.593 288.546 173.846C289.232 173.098 289.606 172.098 289.806 171.107C289.806 172.307 291.032 173.263 292.223 173.22C293.414 173.176 294.475 172.324 295.049 171.272H295.066Z" fill="#FFBF9D"/>
<path d="M272.2 155.771C271.217 155.788 270.148 156.049 269.53 156.814C268.8 157.727 268.731 159.466 268.878 160.622C270.261 160.805 270.965 160.822 272.347 161.005C272.634 161.048 272.878 160.961 273.121 161.118C273.773 161.535 273.747 163.048 274.043 163.761C274.547 165.004 276.199 165.534 277.433 165.004C278.668 164.474 279.407 163.091 279.398 161.752C279.398 160.413 278.737 159.135 277.816 158.153C276.381 156.623 274.295 155.727 272.191 155.762L272.2 155.771Z" fill="#FFBF9D"/>
<path d="M284.11 154.397C284.362 154.397 284.58 158.483 284.588 163.526C284.588 168.568 284.389 172.654 284.136 172.654C283.884 172.654 283.667 168.568 283.658 163.526C283.658 158.483 283.858 154.397 284.11 154.397Z" fill="#404040"/>
<path d="M290.431 154.936C290.675 154.91 291.205 158.614 291.04 163.213C290.892 167.812 290.118 171.472 289.875 171.429C289.614 171.394 289.97 167.716 290.109 163.187C290.266 158.657 290.162 154.962 290.422 154.945L290.431 154.936Z" fill="#404040"/>
<path d="M296.613 155.458C296.874 155.441 297.143 158.536 296.856 162.309C296.578 166.073 296.152 169.09 295.909 169.082C295.639 169.073 295.648 165.995 295.926 162.248C296.204 158.501 296.352 155.475 296.604 155.467L296.613 155.458Z" fill="#404040"/>
<path d="M274.2 156.31C274.182 156.197 274.843 156.024 275.808 156.397C276.764 156.754 277.886 157.788 278.468 159.206C279.042 160.631 279.277 161.875 279.285 162.935C279.233 164.074 278.425 164.448 278.399 164.3C278.32 164.205 278.746 163.787 278.625 162.953C278.468 162.144 278.12 160.814 277.608 159.588C277.086 158.336 276.243 157.449 275.495 156.997C274.756 156.536 274.173 156.458 274.182 156.319L274.2 156.31Z" fill="#404040"/>
<path d="M548.337 189.705C541.382 179.472 531.393 173.038 519.082 171.734C512.135 170.995 509.136 172.186 504.006 173.09C498.877 173.994 494.121 176.281 490.757 180.254C486.758 184.975 483.28 190.348 482.063 196.416C480.811 202.65 480.741 208.84 481.489 214.022C482.393 220.307 485.784 230.106 489.044 235.557L499.599 237.808C508.44 238.904 517.404 239.991 526.22 238.739C535.035 237.487 543.851 233.583 549.146 226.428C556.51 216.482 555.292 199.946 548.337 189.705Z" fill="#404040"/>
<path d="M534.062 188.322L513.413 177.906L507.762 178.054C495.173 176.976 485.262 190.078 484.271 200.267C483.167 211.578 482.271 225.436 483.323 233.939C485.445 251.04 499.642 253.718 499.642 253.718C499.642 253.718 498.555 262.638 497.938 268.263L530.923 268.819L539.2 194.581C539.365 191.478 537.131 188.765 534.053 188.33L534.062 188.322Z" fill="#FFC9BB"/>
<path d="M508.85 232.261C508.816 231.366 508.39 230.54 507.816 229.949C506.659 228.766 504.834 228.497 503.408 229.305C501.982 230.114 501.043 231.94 501.139 233.73C501.8 234.835 502.886 235.634 504.156 235.86C504.356 235.895 504.547 235.921 504.755 235.93C505.721 235.991 506.738 235.756 507.538 235.104C508.337 234.461 508.894 233.365 508.85 232.261Z" fill="#F2A191"/>
<path d="M487.549 215.543C487.471 216.69 488.375 217.707 489.575 217.812C490.774 217.916 491.809 217.073 491.887 215.925C491.966 214.778 491.061 213.76 489.862 213.647C488.662 213.543 487.619 214.386 487.54 215.543H487.549Z" fill="#404040"/>
<path d="M487.601 206.266C487.862 206.562 489.557 205.397 491.905 205.475C494.252 205.527 495.93 206.797 496.199 206.518C496.33 206.397 496.069 205.875 495.339 205.301C494.617 204.736 493.374 204.162 491.913 204.119C490.453 204.075 489.201 204.571 488.479 205.101C487.74 205.632 487.479 206.136 487.601 206.266Z" fill="#404040"/>
<path d="M500.981 225.932C500.998 225.801 499.546 225.497 497.19 225.114C496.59 225.027 496.025 224.897 495.938 224.48C495.808 224.045 496.086 223.402 496.399 222.715C497.016 221.28 497.651 219.785 498.329 218.211C501.016 211.795 502.981 206.509 502.72 206.405C502.459 206.301 500.077 211.413 497.39 217.829C496.747 219.411 496.121 220.924 495.538 222.367C495.286 223.045 494.869 223.802 495.147 224.706C495.295 225.158 495.721 225.497 496.104 225.619C496.486 225.749 496.816 225.766 497.121 225.792C499.494 226.001 500.972 226.062 500.99 225.932H500.981Z" fill="#404040"/>
<path d="M499.617 253.701C499.617 253.701 511.032 254.831 522.604 248.397C522.604 248.397 516.136 259.978 499.165 257.813L499.617 253.701Z" fill="#F2A191"/>
<path d="M487.593 199.076C487.967 199.659 489.775 199.337 491.87 199.589C493.974 199.772 495.687 200.45 496.165 199.945C496.382 199.702 496.165 199.137 495.461 198.528C494.765 197.928 493.539 197.355 492.096 197.207C490.653 197.059 489.349 197.381 488.549 197.824C487.741 198.267 487.428 198.789 487.584 199.067L487.593 199.076Z" fill="#404040"/>
<path d="M511.649 217.308C511.605 218.464 510.597 219.377 509.388 219.351C508.189 219.333 507.241 218.377 507.285 217.229C507.328 216.073 508.337 215.16 509.536 215.177C510.745 215.195 511.684 216.151 511.64 217.299L511.649 217.308Z" fill="#404040"/>
<path d="M519.3 208.179C519.013 208.44 517.448 207.101 515.1 206.944C512.762 206.753 510.953 207.831 510.719 207.527C510.606 207.388 510.919 206.901 511.701 206.405C512.475 205.918 513.77 205.475 515.231 205.588C516.691 205.701 517.883 206.327 518.543 206.927C519.221 207.536 519.43 208.066 519.291 208.179H519.3Z" fill="#404040"/>
<path d="M516.205 199.903C515.718 200.407 513.936 199.755 511.763 199.616C509.589 199.407 507.72 199.755 507.329 199.172C507.155 198.894 507.477 198.372 508.311 197.912C509.128 197.451 510.485 197.112 511.971 197.233C513.467 197.355 514.736 197.912 515.458 198.494C516.197 199.085 516.423 199.642 516.205 199.894V199.903Z" fill="#404040"/>
<path d="M533.767 222.759C533.81 221.49 535.375 218.551 536.636 218.403C539.992 217.995 546.008 218.473 545.773 226.958C545.452 238.556 533.871 235.843 533.863 235.513C533.863 235.252 533.61 227.132 533.767 222.759Z" fill="#FFC9BB"/>
<path d="M537.174 231.365C537.226 231.331 537.374 231.513 537.713 231.678C538.043 231.844 538.609 231.965 539.226 231.748C540.46 231.331 541.547 229.418 541.66 227.323C541.721 226.271 541.53 225.254 541.173 224.41C540.843 223.549 540.313 222.941 539.695 222.819C539.087 222.663 538.635 223.019 538.487 223.341C538.322 223.662 538.391 223.897 538.33 223.915C538.296 223.941 538.087 223.715 538.191 223.236C538.243 223.01 538.391 222.741 538.669 222.524C538.956 222.306 539.365 222.202 539.791 222.263C540.686 222.35 541.469 223.193 541.851 224.123C542.286 225.054 542.53 226.192 542.46 227.375C542.321 229.714 541.069 231.861 539.374 232.304C538.556 232.496 537.878 232.226 537.531 231.948C537.183 231.652 537.122 231.391 537.165 231.374L537.174 231.365Z" fill="#F2A191"/>
<path d="M537.105 218.481L533.905 221.263C515.439 209.118 496.66 176.054 501.512 177.402C501.512 177.402 510.501 174.611 519.769 177.054C529.037 179.497 546.477 185.8 545.208 196.876C543.947 207.953 537.105 218.481 537.105 218.481Z" fill="#404040"/>
<path d="M542.53 172.107C538.035 174.733 534.027 182.392 535.87 187.27C535.035 192.364 537 197.824 540.887 201.224C544.773 204.623 550.45 205.84 555.388 204.336C558.796 203.301 561.83 201.006 563.665 197.955C565.838 194.329 566.247 189.834 565.473 185.679C564.517 180.558 561.709 175.681 557.344 172.838C552.98 169.995 547.025 169.482 542.53 172.107Z" fill="#404040"/>
<path d="M543.547 218.507C543.521 218.559 542.764 218.238 541.434 217.594C540.104 216.951 538.2 215.96 535.896 214.647C531.314 212.022 525.098 208.005 519.256 202.345C513.413 196.685 509.353 190.4 507.215 185.531C506.128 183.105 505.441 181.053 505.067 179.619C504.685 178.184 504.546 177.376 504.598 177.359C504.763 177.306 505.484 180.523 507.78 185.261C510.031 190 514.1 196.12 519.864 201.702C525.628 207.292 531.723 211.343 536.209 214.099C538.461 215.473 540.313 216.542 541.591 217.281C542.869 218.02 543.573 218.438 543.547 218.499V218.507Z" fill="#404040"/>
<path d="M553.667 209.796C553.51 209.796 553.441 207.631 552.789 204.232C552.154 200.833 550.772 196.199 548.268 191.547C545.738 186.905 542.617 183.219 540.113 180.828C537.609 178.428 535.835 177.185 535.931 177.055C535.966 177.002 536.435 177.281 537.253 177.82C538.087 178.341 539.217 179.211 540.539 180.376C543.191 182.688 546.46 186.392 549.042 191.13C551.606 195.877 552.919 200.641 553.406 204.128C553.658 205.866 553.762 207.292 553.754 208.275C553.754 209.257 553.728 209.796 553.667 209.796Z" fill="#404040"/>
<path d="M541.348 236.704C541.348 239.103 539.401 241.051 537.001 241.051C534.602 241.051 532.654 239.103 532.654 236.704C532.654 234.304 534.602 232.357 537.001 232.357C539.401 232.357 541.348 234.304 541.348 236.704Z" fill="#404040"/>
<path d="M500.434 234.096C500.486 233.687 503.199 234.156 505.529 232.174C507.867 230.201 508.076 227.253 508.459 227.297C508.633 227.297 508.876 228.036 508.693 229.262C508.528 230.461 507.833 232.148 506.407 233.357C504.972 234.565 503.294 234.895 502.164 234.791C501.008 234.695 500.391 234.278 500.443 234.087L500.434 234.096Z" fill="#404040"/>
<path d="M531.41 264.473C531.41 264.473 543.547 270.732 542.478 290.729C541.382 311.186 516.04 373.382 516.04 373.382H453.825L440.158 373.947L472.091 284.782L499.564 257.909L531.41 264.464V264.473Z" fill="#404040"/>
<g opacity="0.3">
<path d="M450.435 370.357C450.435 370.357 457.66 370.652 468.188 358.837C478.717 347.022 480.821 342.388 480.821 342.388L490.193 344.657L501.13 318.627L480.821 325.678L450.435 370.357Z" fill="black"/>
</g>
<path d="M445.965 320.244C445.965 320.244 467.692 279.504 474.421 269.254C480.55 259.925 491.278 253.718 502.381 259.343C511.901 264.168 518.047 278.009 511.031 295.945C503.693 314.715 489.54 340.78 489.54 340.78L445.957 320.244H445.965Z" fill="#404040"/>
<path d="M452.329 323.357L437.61 346.77L388.393 348.196L386.907 364.445C386.907 364.445 440.462 375.556 450.434 370.357C461.414 364.637 477.629 334.999 477.629 334.999L452.338 323.357H452.329Z" fill="#FFC9BB"/>
<path d="M391.341 349.448C391.341 349.448 386.55 339.885 377.874 341.589C377.874 341.589 365.85 330.199 363.181 334.607C361.259 337.789 364.893 339.276 368.258 343.701C371.623 348.126 374.483 353.752 374.483 353.752L386.576 355.725L391.341 349.457V349.448Z" fill="#FFC9BB"/>
<path d="M345.949 350.865C345.949 350.865 364.059 361.419 367.206 361.576C370.353 361.732 388.889 365.088 388.889 365.088L390.454 347.987L345.958 349.717" fill="#FFC9BB"/>
<path d="M507.285 303.205C507.285 303.205 507.311 303.039 507.407 302.752C507.52 302.413 507.659 301.987 507.824 301.474C508.224 300.309 508.772 298.727 509.441 296.806C510.12 294.832 510.946 292.494 511.711 289.851C512.476 287.216 513.197 284.269 513.354 281.104C513.493 277.957 513.18 274.914 512.484 272.28C511.754 269.646 510.476 267.49 509.163 265.899C507.85 264.29 506.642 263.117 505.833 262.273C505.46 261.882 505.147 261.56 504.903 261.308C504.695 261.082 504.59 260.96 504.599 260.952C504.608 260.943 504.738 261.039 504.964 261.247C505.225 261.491 505.555 261.786 505.955 262.151C506.798 262.951 508.05 264.09 509.415 265.699C510.78 267.281 512.128 269.481 512.893 272.167C513.632 274.853 513.954 277.922 513.815 281.13C513.658 284.339 512.902 287.321 512.119 289.964C511.319 292.615 510.467 294.945 509.746 296.901C509.024 298.858 508.416 300.431 507.998 301.518C507.798 302.022 507.633 302.431 507.503 302.761C507.381 303.048 507.311 303.187 507.303 303.187L507.285 303.205Z" fill="#404040"/>
<path d="M433.787 301.9C433.787 300.84 433.735 274.862 433.648 228.636L433.787 228.775C373.686 228.792 279.06 228.827 172.88 228.862H172.863L173.089 228.636C173.089 253.883 173.089 278.47 173.089 301.9L172.872 301.683C247.562 301.726 312.767 301.761 359.297 301.787C405.827 301.865 432.709 301.909 433.787 301.909C432.709 301.909 405.88 301.952 359.445 302.031C312.871 302.057 247.614 302.091 172.863 302.135H172.646V301.918C172.646 278.496 172.646 253.901 172.646 228.653V228.427H172.889C279.069 228.462 373.694 228.497 433.796 228.514H433.935V228.653C433.848 274.879 433.796 300.857 433.796 301.918L433.787 301.9Z" fill="#404040"/>
<path d="M174.619 226.314H170.22V230.714H174.619V226.314Z" fill="#404040"/>
<path d="M436.544 264.664H432.145V269.063H436.544V264.664Z" fill="#404040"/>
<path d="M174.619 264.664H170.22V269.063H174.619V264.664Z" fill="#404040"/>
<path d="M435.987 226.314H431.588V230.714H435.987V226.314Z" fill="#404040"/>
<path d="M174.619 299.118H170.22V303.517H174.619V299.118Z" fill="#404040"/>
<path d="M435.987 299.118H431.588V303.517H435.987V299.118Z" fill="#404040"/>
<path d="M192.88 285L200.58 246.5H209.435L220.05 272.735H215.375L235.945 246.5H245.24L237.65 285H227.585L232.15 261.68L233.965 261.625L218.73 281.205H213.945L205.64 261.57L207.565 261.735L202.89 285H192.88ZM240.736 285L265.431 246.5H276.156L285.451 285H274.616L267.741 251.67H272.031L252.231 285H240.736ZM251.516 277.52L255.916 269.49H274.726L275.936 277.52H251.516ZM288.593 285L296.293 246.5H312.738C317.688 246.5 321.501 247.582 324.178 249.745C326.891 251.908 328.248 254.915 328.248 258.765C328.248 261.992 327.46 264.815 325.883 267.235C324.343 269.618 322.143 271.47 319.283 272.79C316.423 274.11 313.05 274.77 309.163 274.77H296.678L302.453 270.095L299.483 285H288.593ZM312.738 285L304.873 270.975H316.148L324.123 285H312.738ZM302.178 271.36L298.383 266.355H309.658C312.078 266.355 313.948 265.787 315.268 264.65C316.588 263.513 317.248 261.9 317.248 259.81C317.248 258.197 316.716 257.005 315.653 256.235C314.59 255.465 313.105 255.08 311.198 255.08H300.693L306.523 249.91L302.178 271.36ZM340.801 276.64L342.396 264.21L361.976 246.5H374.791L354.716 264.43L347.456 270.645L340.801 276.64ZM329.306 285L337.006 246.5H347.731L340.031 285H329.306ZM355.761 285L345.586 269.105L353.506 261.79L367.916 285H355.761ZM364.217 285L388.912 246.5H399.637L408.932 285H398.097L391.222 251.67H395.512L375.712 285H364.217ZM374.997 277.52L379.397 269.49H398.207L399.417 277.52H374.997Z" fill="#404040"/>
</svg>
