<svg width="605" height="348" viewBox="0 0 605 348" fill="none" xmlns="http://www.w3.org/2000/svg">
<path d="M525.826 37.0903C527.297 36.205 528.878 35.5174 530.528 35.0454L531.495 30.3947L539.355 30.2566L540.485 34.8728C542.152 35.2814 543.757 35.9112 545.257 36.7452L549.226 34.1567L554.878 39.6271L552.419 43.6911C553.307 45.1603 553.995 46.7419 554.464 48.3936L559.114 49.36L559.252 57.2205L554.636 58.3508C554.222 60.0132 553.593 61.6144 552.764 63.1138L555.352 67.0915L549.899 72.7431L545.835 70.284C544.365 71.1682 542.783 71.853 541.133 72.3203L540.166 76.9711L532.306 77.1091L531.175 72.4929C529.511 72.0857 527.909 71.4559 526.412 70.6205L522.435 73.209L516.783 67.7472L519.242 63.6832C518.355 62.2177 517.67 60.6387 517.206 58.9894L512.555 58.023L512.417 50.1624L517.025 49.0321C517.436 47.3649 518.069 45.7602 518.906 44.2606L516.317 40.2915L521.779 34.6398L525.834 37.099L525.826 37.0903ZM530.019 47.5566C528.861 48.7561 528.085 50.2719 527.789 51.9124C527.493 53.5529 527.689 55.2444 528.354 56.7731C529.019 58.3018 530.122 59.599 531.524 60.5009C532.927 61.4027 534.564 61.8685 536.231 61.8396C537.898 61.8106 539.519 61.2882 540.889 60.3382C542.259 59.3883 543.316 58.0535 543.927 56.5026C544.539 54.9518 544.677 53.2545 544.324 51.6253C543.971 49.9961 543.142 48.5081 541.944 47.3496C540.334 45.7971 538.174 44.9469 535.939 44.9857C533.703 45.0245 531.574 45.9492 530.019 47.5566Z" fill="#EBEBEB"/>
<path d="M268.793 55.7794C269.977 55.0638 271.251 54.5096 272.581 54.1313L273.358 50.3866L279.699 50.2744L280.606 53.9933C281.95 54.3235 283.244 54.8313 284.454 55.5033L287.655 53.4065L292.211 57.8071L290.226 61.0859C290.945 62.2676 291.5 63.542 291.874 64.8738L295.628 65.6503L295.74 71.9922L292.021 72.8982C291.688 74.2427 291.177 75.5368 290.502 76.7465L292.608 79.9477L288.199 84.4949L284.928 82.5103C283.745 83.2264 282.471 83.7807 281.14 84.1584L280.355 87.9118L274.022 88.0239L273.107 84.305C271.764 83.9678 270.473 83.4512 269.268 82.7692L266.058 84.8745L261.502 80.4654L263.487 77.1952C262.774 76.01 262.22 74.7366 261.839 73.4073L258.094 72.6221L257.982 66.2888L261.701 65.3742C262.029 64.0324 262.537 62.7409 263.211 61.5346L261.114 58.3248L265.514 53.7689L268.793 55.7535V55.7794ZM272.167 64.218C271.232 65.1849 270.605 66.4072 270.365 67.7305C270.125 69.0538 270.283 70.4186 270.818 71.6522C271.354 72.8858 272.243 73.9328 273.374 74.6609C274.505 75.3889 275.826 75.7653 277.171 75.7424C278.516 75.7194 279.823 75.2982 280.929 74.532C282.034 73.7658 282.887 72.6891 283.38 71.4379C283.874 70.1868 283.985 68.8174 283.7 67.5031C283.415 66.1888 282.746 64.9885 281.779 64.0541C280.481 62.8036 278.741 62.1187 276.939 62.1495C275.137 62.1802 273.421 62.9241 272.167 64.218Z" fill="#F5F5F5"/>
<path d="M272.167 64.2182C272.524 63.7813 272.953 63.4079 273.435 63.1138C274.747 62.2604 276.315 61.8884 277.87 62.0611C279.028 62.1866 280.135 62.6029 281.088 63.2712C282.042 63.9395 282.81 64.8382 283.323 65.8835C283.624 66.4842 283.83 67.1273 283.936 67.7904C284.067 68.4791 284.082 69.185 283.979 69.8785C283.801 71.3635 283.144 72.7504 282.11 73.8304C281.075 74.9103 279.717 75.6249 278.241 75.8666C277.547 75.9828 276.839 75.9828 276.144 75.8666C275.479 75.7869 274.829 75.6035 274.22 75.323C273.082 74.8072 272.102 73.997 271.382 72.9761C270.766 72.0886 270.367 71.069 270.217 69.9993C269.976 68.4544 270.281 66.8739 271.08 65.5298C271.358 65.037 271.717 64.5938 272.141 64.2182C272.141 64.2182 271.735 64.6669 271.209 65.5988C270.482 66.9277 270.218 68.4606 270.458 69.9562C270.632 71.0528 271.079 72.0882 271.757 72.9671C272.436 73.8461 273.324 74.5405 274.341 74.9865C275.536 75.5134 276.86 75.6755 278.146 75.4525C279.533 75.2164 280.807 74.543 281.784 73.5308C282.76 72.5187 283.387 71.2207 283.574 69.8267C283.677 69.1722 283.677 68.5054 283.574 67.8508C283.477 67.2203 283.282 66.6089 282.995 66.0388C282.512 65.0374 281.784 64.1736 280.88 63.5268C279.975 62.88 278.922 62.471 277.818 62.3372C276.32 62.151 274.801 62.4698 273.504 63.2432C272.598 63.7868 272.201 64.2614 272.167 64.2182Z" fill="#F5F5F5"/>
<path d="M268.793 55.7795C268.717 55.7498 268.645 55.7122 268.577 55.6673L267.947 55.3049L265.48 53.8467H265.557L261.183 58.4284V58.3076L263.288 61.5001L263.331 61.5605V61.6209C262.669 62.8245 262.167 64.1096 261.838 65.4434V65.5124H261.769L258.05 66.4356L258.154 66.2976C258.188 68.2879 258.229 70.399 258.275 72.6309L258.154 72.4842L261.907 73.2521H262.002V73.347C262.385 74.6607 262.936 75.9194 263.642 77.0918L263.693 77.1781L263.642 77.2643L261.657 80.5432V80.3274C263.089 81.708 264.634 83.2007 266.222 84.7193H265.997L269.198 82.614L269.293 82.5536L269.388 82.6054C270.581 83.2705 271.858 83.7725 273.185 84.0981H273.297V84.2102C273.59 85.3751 273.901 86.6521 274.212 87.9291L274.03 87.7911L280.364 87.6702L280.174 87.8256C280.424 86.6435 280.692 85.3665 280.959 84.0808V83.96H281.08C282.391 83.5829 283.648 83.0346 284.816 82.3292L284.919 82.2688L285.023 82.3292L288.293 84.3138H288.052L292.452 79.758V79.9909L290.355 76.7898L290.286 76.6949L290.347 76.5913C291.013 75.3988 291.515 74.1217 291.839 72.7948V72.6826H291.943L295.671 71.8198L295.524 72.001C295.489 69.8381 295.455 67.727 295.42 65.6677L295.567 65.8403L291.814 65.0551H291.71V64.9515C291.331 63.6322 290.777 62.3698 290.062 61.1982L290.01 61.1119L290.062 61.017L292.047 57.7468V57.9539L287.499 53.5361H287.689L284.479 55.6328H284.41H284.333C283.134 54.9682 281.856 54.4607 280.528 54.1228H280.45V54.0452C280.122 52.6991 279.829 51.4566 279.587 50.3263L279.699 50.4126L273.357 50.4989L273.444 50.4298C273.124 51.9226 272.857 53.1478 272.641 54.1746C271.642 54.453 270.671 54.8257 269.742 55.2877L269.06 55.6501C268.991 55.697 268.915 55.7347 268.836 55.7622L269.043 55.6155C269.19 55.5293 269.405 55.3998 269.716 55.2359C270.636 54.7432 271.605 54.3471 272.607 54.0538L272.563 54.1056C272.771 53.0788 273.012 51.8449 273.314 50.3522V50.2832H273.383L279.716 50.1365H279.811V50.2314L280.735 53.9416L280.64 53.8553C281.995 54.1845 283.301 54.6922 284.523 55.3653H284.376C285.394 54.6923 286.447 53.9934 287.577 53.26L287.672 53.1909L287.758 53.2772L292.323 57.6691L292.418 57.7554L292.349 57.8676L290.373 61.1464V60.9652C291.095 62.1638 291.658 63.4518 292.047 64.7962L291.909 64.6754L295.662 65.452H295.8V65.5987C295.8 67.6609 295.878 69.7748 295.912 71.932V72.0786L295.765 72.1218L292.047 73.0364L292.185 72.8983C291.847 74.2564 291.334 75.5646 290.657 76.7898V76.5913L292.754 79.7925L292.84 79.9219L292.737 80.0341L288.336 84.5899L288.224 84.7021L288.095 84.6244L284.816 82.6399H285.014C283.816 83.3617 282.528 83.9217 281.183 84.3052L281.321 84.1585C281.054 85.4441 280.786 86.747 280.536 87.9032V88.0585H280.381L274.039 88.1707H273.892L273.849 88.024C273.539 86.7384 273.228 85.4355 272.943 84.3052L273.081 84.4432C271.722 84.1047 270.414 83.5883 269.19 82.9074H269.354L266.153 85.0041L266.032 85.0817L265.928 84.9868L261.372 80.5777L261.277 80.4828L261.347 80.362L263.331 77.0918V77.2643C262.614 76.0652 262.057 74.7772 261.674 73.4333L261.804 73.5455L258.05 72.7603H257.93V72.6395C257.93 70.4133 257.861 68.3253 257.835 66.2976V66.1854H257.947L261.666 65.3226L261.579 65.4175C261.916 64.0631 262.432 62.7601 263.115 61.5433V61.6641L261.027 58.4543L260.984 58.3853L261.045 58.3335L265.471 53.7949L267.878 55.2963C268.146 55.4602 268.353 55.5897 268.5 55.6932L268.793 55.7795Z" fill="#F5F5F5"/>
<path d="M91.5297 33.7597C91.3762 33.0888 91.2981 32.4029 91.2967 31.7147C91.2615 30.8896 91.1692 30.068 91.0206 29.2556C90.8857 28.1426 90.6694 27.0409 90.3735 25.9595C89.6543 22.9727 88.4909 20.1106 86.9221 17.4691C84.8912 13.9643 82.2119 10.8779 79.0271 8.37474C74.9027 5.11625 70.0281 2.94245 64.8479 2.0517C59.6677 1.16096 54.3469 1.58162 49.3711 3.27533C46.5036 4.222 43.7975 5.60121 41.3466 7.36521C40.0872 8.26042 38.8882 9.23755 37.7572 10.2903C36.6267 11.4043 35.5744 12.595 34.6078 13.8538C30.534 19.1197 28.2526 25.5512 28.0973 32.2071C27.9421 38.863 29.9212 45.3939 33.7449 50.844C34.6563 52.1436 35.6506 53.3829 36.7217 54.5542C37.8012 55.6686 38.9542 56.7092 40.1731 57.6691C42.5198 59.5467 45.1382 61.0567 47.9387 62.1473C54.7531 64.8162 62.2814 65.0438 69.2446 62.7914C76.2078 60.539 82.1765 55.9456 86.1369 49.7913C87.8182 47.2254 89.112 44.4255 89.9766 41.4821C90.3178 40.4115 90.5859 39.3189 90.779 38.2119C90.9673 37.4084 91.0971 36.5924 91.1673 35.7701C91.2048 35.0839 91.3176 34.4039 91.5038 33.7424C91.5833 34.4275 91.5833 35.1195 91.5038 35.8046C91.4989 36.641 91.4209 37.4754 91.2708 38.2982C91.1376 39.4356 90.9155 40.5607 90.6065 41.6633C89.8446 44.7127 88.6102 47.6241 86.948 50.2918C84.5162 54.2584 81.2638 57.6588 77.4093 60.2647C73.5548 62.8705 69.1874 64.6216 64.6003 65.4002C58.7971 66.3779 52.838 65.782 47.3434 63.6745C44.3651 62.5512 41.5772 60.9769 39.0773 59.0065C37.7816 58.0015 36.5537 56.9119 35.4016 55.745C34.2634 54.5189 33.2111 53.2158 32.2522 51.8449C28.2024 46.0956 26.1084 39.1966 26.2793 32.1663C26.4502 25.136 28.877 18.3468 33.2013 12.8011C34.227 11.4776 35.3427 10.2264 36.5405 9.05639C37.7589 7.94449 39.0503 6.9154 40.4061 5.97603C42.9957 4.13205 45.8535 2.69733 48.8792 1.7222C54.4711 -0.128925 60.4569 -0.44773 66.2138 0.798959C70.7533 1.80299 75.0261 3.76493 78.7462 6.55352C82.4663 9.3421 85.5479 12.893 87.785 16.9687C89.3282 19.731 90.4287 22.7182 91.0465 25.8215C91.2949 26.9383 91.4621 28.0715 91.547 29.2125C91.6532 30.042 91.6878 30.8792 91.6505 31.7147C91.6893 32.3987 91.6487 33.085 91.5297 33.7597Z" fill="#EBEBEB"/>
<path d="M85.0928 13.6554C85.1619 13.7589 84.5838 14.2594 83.4621 15.0963L81.3912 16.5804C80.9771 16.8652 80.5284 17.1844 80.0711 17.4433L78.4921 18.3061C72.7413 21.5924 66.1998 23.2397 59.5785 23.069L56.7139 22.9482L53.9614 22.5168C53.5127 22.4392 53.0985 22.3788 52.624 22.2925L51.347 21.9473C50.4841 21.7144 49.6213 21.5159 48.8706 21.2657C46.0723 20.3193 43.3824 19.0785 40.8461 17.5641C36.5319 14.9755 34.4352 12.5855 34.5991 12.387C34.7631 12.1886 37.1186 14.1731 41.4587 16.4338C43.9802 17.7538 46.6135 18.8481 49.3279 19.7039C50.0958 19.9283 50.8983 20.1008 51.7094 20.3079L52.9432 20.6099L54.2202 20.8084L56.8519 21.1967L59.5785 21.3002C65.9389 21.4421 72.238 20.0324 77.9312 17.1931L79.5275 16.4942C80.0193 16.2439 80.4594 15.9678 80.8908 15.7262L83.0824 14.5182C84.3077 13.8711 85.0238 13.5605 85.0928 13.6554Z" fill="#EBEBEB"/>
<path d="M33.624 52.7768C33.5464 52.6733 34.1331 52.1728 35.2462 51.3359L37.317 49.8518C37.7312 49.5757 38.1798 49.2564 38.6372 48.9889L40.2248 48.1261C45.9767 44.8427 52.5174 43.1956 59.1384 43.3632L62.003 43.4926L64.7469 43.924C65.1955 44.0017 65.6097 44.0535 66.0843 44.1484L67.3613 44.4849C68.2241 44.7178 69.0438 44.9163 69.8376 45.1752C72.6355 46.1189 75.3254 47.3569 77.8621 48.8681C82.1763 51.4567 84.2731 53.8468 84.1091 54.0452C83.9452 54.2437 81.5896 52.2591 77.2064 50.0071C74.675 48.6983 72.0331 47.6155 69.3113 46.7714C68.5348 46.5471 67.7323 46.3831 66.9212 46.1674L65.7219 45.8223L64.4535 45.667L61.865 45.2787L59.1297 45.1665C52.7833 45.0357 46.5001 46.4481 40.8202 49.2823L39.2153 49.9726C38.7234 50.2314 38.2834 50.5075 37.8606 50.7405L35.6603 51.9485C34.4092 52.5697 33.6931 52.8804 33.624 52.7768Z" fill="#EBEBEB"/>
<path d="M91.513 34.5102C91.513 34.9934 77.0862 35.0452 59.3202 34.6138C41.5542 34.1824 27.162 33.4317 27.1792 32.9485C27.1965 32.4653 41.5974 32.4135 59.3633 32.8449C77.1293 33.2764 91.5216 34.0184 91.513 34.5102Z" fill="#EBEBEB"/>
<path d="M57.8618 65.1153C57.37 65.1153 57.3269 50.6972 57.7583 32.9398C58.1897 15.1825 58.9318 0.798828 59.4236 0.798828C59.9154 0.798828 59.9586 15.2083 59.5271 32.9743C59.0957 50.7403 58.345 65.124 57.8618 65.1153Z" fill="#EBEBEB"/>
<path d="M57.8611 65.0638C57.7403 65.2536 54.194 62.8549 50.0955 57.4104C47.7088 54.2112 45.7751 50.6979 44.3489 46.9699C42.6163 42.3643 41.773 37.4717 41.8639 32.5518C41.9852 27.6252 43.0912 22.7728 45.1169 18.2803C46.7453 14.6418 48.8583 11.2401 51.3984 8.16777C55.7126 2.9303 59.302 0.609246 59.4228 0.799072C59.5436 0.988898 56.3598 3.62921 52.382 8.93571C50.0672 12.0217 48.1294 15.3731 46.6096 18.9188C44.7597 23.2447 43.7495 27.8829 43.6328 32.5863C43.5493 37.286 44.3121 41.9623 45.8848 46.3918C47.1972 50.0215 48.9566 53.4736 51.1223 56.6683C54.8498 62.1733 58.0423 64.874 57.8611 65.0638Z" fill="#EBEBEB"/>
<path d="M60.1398 0.798959C60.2606 0.609133 63.8069 3.01647 67.9054 8.4524C70.2973 11.6576 72.2314 15.1802 73.652 18.9187C75.3887 23.5233 76.2321 28.4166 76.1369 33.3369C76.0184 38.2628 74.9153 43.1153 72.8926 47.6083C71.2513 51.2537 69.13 54.6634 66.5852 57.7468C62.271 62.9842 58.673 65.3053 58.5522 65.1155C58.4314 64.9257 61.6153 62.2853 65.593 56.9788C67.9084 53.8902 69.8463 50.5358 71.3654 46.9871C73.2261 42.6552 74.2395 38.007 74.3509 33.2937C74.4385 28.5938 73.6755 23.9167 72.0988 19.4882C70.7864 15.8585 69.0271 12.4065 66.8614 9.2117C63.1339 3.70675 59.9672 1.00604 60.1398 0.798959Z" fill="#EBEBEB"/>
<path d="M130.151 67.1174C132.824 65.5042 135.7 64.2536 138.702 63.3985L140.428 54.9426L154.716 54.6924L156.77 63.0879C159.802 63.8437 162.719 65.0046 165.442 66.5393L172.664 61.8022L182.949 71.7336L178.471 79.1195C180.084 81.7893 181.334 84.6619 182.189 87.6617L190.645 89.3874L190.896 103.676L182.5 105.738C181.753 108.753 180.606 111.655 179.092 114.367L183.829 121.589L173.932 131.952L166.546 127.473C163.876 129.084 161.003 130.332 158.004 131.184L156.278 139.64L141.989 139.898L139.927 131.46C136.897 130.698 133.981 129.538 131.256 128.008L123.999 132.814L113.714 122.892L118.192 115.506C116.578 112.834 115.33 109.958 114.482 106.955L106.026 105.229L105.767 90.9405L114.163 88.887C114.922 85.8694 116.083 82.9674 117.614 80.2585L112.886 73.0365L122.808 62.7514L130.194 67.2295L130.151 67.1174ZM137.77 86.1517C135.664 88.3334 134.252 91.0906 133.713 94.0747C133.174 97.0587 133.532 100.136 134.741 102.916C135.951 105.697 137.958 108.057 140.508 109.697C143.059 111.337 146.038 112.184 149.07 112.131C152.102 112.078 155.05 111.127 157.541 109.399C160.033 107.67 161.956 105.242 163.067 102.42C164.179 99.599 164.429 96.5115 163.785 93.5481C163.142 90.5848 161.635 87.8787 159.453 85.7721C158.005 84.373 156.295 83.273 154.421 82.5349C152.547 81.7968 150.547 81.4351 148.533 81.4703C146.52 81.5056 144.533 81.9372 142.686 82.7404C140.839 83.5436 139.169 84.7028 137.77 86.1517Z" fill="#E0E0E0"/>
<path d="M137.769 86.1516C138.577 85.1657 139.542 84.3202 140.625 83.6494C143.584 81.7258 147.119 80.8901 150.626 81.2852C153.052 81.5407 155.382 82.3688 157.425 83.7011C159.782 85.2336 161.681 87.374 162.921 89.8964C163.612 91.2518 164.083 92.7078 164.319 94.2106C164.603 95.7717 164.633 97.3686 164.405 98.939C163.971 102.266 162.479 105.364 160.148 107.777C157.817 110.19 154.772 111.79 151.463 112.339C149.904 112.621 148.311 112.651 146.743 112.425C145.25 112.232 143.796 111.813 142.429 111.183C139.866 110.026 137.661 108.202 136.044 105.902C134.643 103.904 133.732 101.605 133.386 99.1892C132.869 95.6974 133.583 92.1345 135.405 89.1112C136.037 88.0049 136.848 87.0107 137.804 86.1689C137.89 86.2379 136.881 87.1784 135.699 89.2837C134.043 92.2692 133.436 95.7231 133.973 99.0943C134.372 101.565 135.382 103.898 136.911 105.879C138.441 107.861 140.441 109.429 142.731 110.441C145.44 111.635 148.442 112.002 151.359 111.493C154.483 110.959 157.354 109.442 159.555 107.162C161.756 104.882 163.171 101.959 163.594 98.8182C163.816 97.3349 163.796 95.8254 163.534 94.3486C163.313 92.9303 162.876 91.554 162.24 90.2674C161.15 88.0059 159.508 86.0549 157.467 84.5939C155.425 83.1328 153.049 82.2087 150.557 81.9064C147.17 81.4791 143.737 82.199 140.807 83.9513C138.744 85.1938 137.847 86.2206 137.769 86.1516Z" fill="#E0E0E0"/>
<path d="M130.151 67.1172C130.151 67.1172 129.996 67.0395 129.677 66.867L128.261 66.0473L122.67 62.7598H122.843L112.972 73.114V72.8379L117.735 80.034L117.821 80.1634L117.743 80.3015C116.251 83.0178 115.122 85.9189 114.387 88.9299V89.0939L114.214 89.137L105.828 91.2165L106.069 90.9145C106.155 95.4099 106.25 100.19 106.354 105.203L106.078 104.867L114.534 106.592H114.749L114.81 106.808C115.66 109.775 116.902 112.616 118.503 115.255L118.624 115.454L118.503 115.652C117.114 117.939 115.586 120.467 114.033 123.038L113.973 122.555L124.267 132.469L123.757 132.426L130.979 127.68L131.187 127.542L131.411 127.663C134.105 129.16 136.986 130.292 139.979 131.028L140.229 131.089L140.29 131.339C140.937 133.97 141.644 136.835 142.352 139.734L141.929 139.406L156.218 139.148L155.795 139.493C156.356 136.818 156.951 133.936 157.521 131.037L157.572 130.778L157.831 130.7C160.791 129.859 163.625 128.629 166.261 127.042L166.494 126.904L166.719 127.042L174.096 131.52L173.561 131.589L183.484 121.313L183.432 121.856L178.755 114.634L178.617 114.418L178.738 114.185C180.241 111.496 181.376 108.617 182.112 105.626L182.181 105.376L182.431 105.315L190.818 103.262L190.499 103.676C190.424 98.8038 190.346 94.0409 190.266 89.3872L190.585 89.7755L182.129 88.0067L181.896 87.9549L181.836 87.7306C180.995 84.7587 179.762 81.9121 178.168 79.2661L178.056 79.0676L178.168 78.8778L182.664 71.5005L182.724 71.9491L172.456 62.0005H172.879L165.64 66.7117L165.485 66.8238L165.312 66.7289C162.602 65.2115 159.699 64.0652 156.684 63.3207L156.511 63.2775V63.105C155.769 60.0591 155.105 57.3066 154.483 54.7095L154.734 54.9079L140.445 55.0978L140.635 54.9424C139.91 58.3162 139.315 61.0859 138.823 63.3897V63.476H138.745C136.49 64.0984 134.302 64.9424 132.213 65.9955L130.669 66.7979C130.506 66.8966 130.336 66.9832 130.16 67.0568C130.16 67.0568 130.324 66.936 130.634 66.7289C130.945 66.5218 131.497 66.2285 132.144 65.8661C134.218 64.7501 136.404 63.8592 138.667 63.2085L138.572 63.312C139.03 60.9996 139.591 58.2299 140.298 54.8389V54.6922H140.454L154.742 54.3816H154.949L155.001 54.5887C155.648 57.1772 156.33 59.9211 157.089 62.9755L156.873 62.7598C159.933 63.515 162.879 64.6757 165.631 66.2112H165.303L172.517 61.4656L172.741 61.3102L172.931 61.5001L183.233 71.4055L183.449 71.6126L183.294 71.8628L178.833 79.2488V78.8605C180.467 81.5556 181.732 84.4576 182.595 87.489L182.302 87.2042L190.757 88.9299L191.077 88.999V89.3182C191.163 93.9661 191.249 98.7319 191.336 103.616V103.943L191.008 104.03L182.621 106.092L182.931 105.781C182.178 108.847 181.017 111.799 179.48 114.556V114.108C181.045 116.501 182.624 118.908 184.217 121.33L184.407 121.623L184.165 121.873L174.243 132.159L174.001 132.409L173.699 132.228L166.313 127.749H166.762C164.064 129.377 161.163 130.639 158.133 131.503L158.444 131.175C157.831 134.074 157.236 136.956 156.718 139.631L156.649 139.967H156.304L142.007 140.209H141.653L141.567 139.872C140.859 136.982 140.16 134.109 139.513 131.485L139.824 131.796C136.762 131.036 133.815 129.876 131.057 128.345H131.489L124.258 133.073L123.982 133.254L123.749 133.021L113.481 123.081L113.257 122.866L113.421 122.598C114.982 120.01 116.51 117.507 117.907 115.221V115.618C116.282 112.92 115.023 110.019 114.163 106.989L114.439 107.248L105.983 105.471L105.715 105.41V105.203C105.646 100.19 105.569 95.4099 105.5 90.9145V90.6642L105.741 90.6039L114.137 88.5675L113.93 88.7832C114.687 85.7322 115.848 82.7956 117.381 80.0513V80.3187L112.679 73.0795L112.584 72.9241L112.704 72.8033L122.67 62.5441L122.757 62.4578L122.851 62.5182L128.287 65.9006L129.685 66.7634C129.85 66.8676 130.006 66.986 130.151 67.1172Z" fill="#E0E0E0"/>
<path d="M205.995 9.94503C207.998 8.73417 210.154 7.79685 212.406 7.15804L213.735 0.798873L224.486 0.617676L226.03 6.91645C228.307 7.4864 230.498 8.35689 232.545 9.50498L237.963 5.95006L245.686 13.405L242.312 18.9186C243.524 20.9244 244.461 23.0835 245.099 25.3382L251.45 26.6842L251.639 37.418L245.341 38.9625C244.767 41.2382 243.897 43.4285 242.752 45.477L246.307 50.8957L238.878 58.6095L233.33 55.2531C231.324 56.4646 229.165 57.402 226.91 58.04L225.59 64.3906L214.856 64.5804L213.312 58.2816C211.036 57.7083 208.846 56.838 206.797 55.6931L201.379 59.248L193.613 51.793L196.969 46.2449C195.758 44.2392 194.821 42.0801 194.182 39.8254L187.832 38.5052L187.642 27.7714L193.941 26.2269C194.511 23.9502 195.381 21.7595 196.529 19.7124L192.974 14.2938L200.429 6.57131L205.978 9.92778L205.995 9.94503ZM211.715 24.2424C210.132 25.8809 209.07 27.9523 208.664 30.1944C208.258 32.4366 208.526 34.7488 209.435 36.8385C210.343 38.9282 211.851 40.7017 213.767 41.9344C215.683 43.1672 217.922 43.804 220.2 43.7641C222.479 43.7243 224.694 43.0096 226.566 41.7106C228.438 40.4116 229.883 38.5865 230.717 36.4663C231.552 34.3461 231.739 32.0259 231.255 29.7994C230.771 27.5728 229.637 25.5398 227.997 23.9576C225.8 21.8373 222.851 20.6763 219.797 20.7297C216.744 20.7831 213.837 22.0465 211.715 24.2424Z" fill="#EBEBEB"/>
<path d="M82.979 297.954C83.1694 297.683 83.3893 297.435 83.6348 297.212L85.5158 295.323C87.112 293.744 89.3468 291.578 91.8318 289.205L91.8922 289.153V289.473C89.3899 287.152 87.1379 285.029 85.5244 283.476L83.6348 281.621C83.392 281.405 83.1722 281.165 82.979 280.905C83.26 281.068 83.5182 281.269 83.7469 281.5L85.7401 283.226C87.4054 284.718 89.6833 286.798 92.1856 289.127L92.3581 289.283L92.1856 289.447L92.1338 289.498C89.6488 291.871 87.3795 293.994 85.7229 295.538L83.7469 297.333C83.5153 297.569 83.2577 297.777 82.979 297.954Z" fill="#E0E0E0"/>
<path d="M63.6775 280.905C63.4827 281.169 63.2631 281.415 63.0217 281.638L61.1407 283.528C59.5444 285.107 57.3097 287.272 54.8247 289.645L54.7643 289.697V289.378C57.2665 291.707 59.5186 293.821 61.1321 295.374L63.0217 297.23C63.2687 297.444 63.4888 297.687 63.6775 297.954C63.4004 297.781 63.1429 297.579 62.9095 297.35C62.3659 296.876 61.7016 296.298 60.9164 295.625C59.2511 294.141 56.9732 292.053 54.4709 289.723L54.2983 289.568L54.4709 289.404L54.5227 289.352C57.0077 286.979 59.277 284.856 60.9336 283.312L62.9095 281.526C63.1381 281.287 63.3961 281.078 63.6775 280.905Z" fill="#E0E0E0"/>
<path d="M68.63 301.932C68.5179 301.889 70.5456 296.186 73.16 289.196C75.7744 282.207 77.9919 276.573 78.1041 276.616C78.2163 276.659 76.1886 282.363 73.5741 289.352C70.9597 296.341 68.7508 302.01 68.63 301.932Z" fill="#E0E0E0"/>
<path d="M104.964 314.167C104.964 314.167 104.964 313.839 104.964 313.21C104.964 312.58 104.964 311.665 104.964 310.474C104.964 308.058 104.964 304.555 104.912 300.12C104.912 291.172 104.861 278.394 104.826 262.975L105.007 263.165H42.1491L42.3648 262.94C42.3648 281.465 42.3648 298.947 42.3648 314.167L42.1663 313.969L87.5606 314.072L100.426 314.124H103.877H100.495L87.6728 314.176L42.1577 314.279H41.9592V314.081C41.9592 298.86 41.9592 281.379 41.9592 262.854V262.638H42.1836H105.042H105.223V262.819C105.18 278.282 105.145 291.103 105.128 300.077C105.128 304.529 105.128 308.024 105.076 310.431C105.076 311.605 105.076 312.511 105.076 313.141C105.076 313.77 104.964 314.167 104.964 314.167Z" fill="#E0E0E0"/>
<path d="M105.456 270.542C105.456 270.662 91.2624 270.766 73.7639 270.766C56.2653 270.766 42.0715 270.662 42.0715 270.542C42.0715 270.421 56.2567 270.326 73.7639 270.326C91.271 270.326 105.456 270.421 105.456 270.542Z" fill="#E0E0E0"/>
<path d="M47.2309 266.806C47.2309 267.035 47.14 267.254 46.9782 267.416C46.8164 267.578 46.5969 267.669 46.3681 267.669C46.1393 267.669 45.9198 267.578 45.758 267.416C45.5962 267.254 45.5052 267.035 45.5052 266.806C45.5052 266.577 45.5962 266.357 45.758 266.196C45.9198 266.034 46.1393 265.943 46.3681 265.943C46.5969 265.943 46.8164 266.034 46.9782 266.196C47.14 266.357 47.2309 266.577 47.2309 266.806Z" fill="#E0E0E0"/>
<path d="M49.4656 267.651C49.9326 267.651 50.3112 267.273 50.3112 266.806C50.3112 266.339 49.9326 265.96 49.4656 265.96C48.9986 265.96 48.62 266.339 48.62 266.806C48.62 267.273 48.9986 267.651 49.4656 267.651Z" fill="#E0E0E0"/>
<path d="M53.4005 266.806C53.4005 266.976 53.3499 267.143 53.2551 267.285C53.1603 267.427 53.0255 267.538 52.8678 267.603C52.7102 267.668 52.5367 267.685 52.3693 267.652C52.2019 267.619 52.0482 267.536 51.9275 267.416C51.8069 267.295 51.7247 267.141 51.6914 266.974C51.6581 266.807 51.6752 266.633 51.7405 266.476C51.8058 266.318 51.9164 266.183 52.0583 266.088C52.2002 265.993 52.367 265.943 52.5377 265.943C52.7665 265.943 52.986 266.034 53.1478 266.196C53.3096 266.357 53.4005 266.577 53.4005 266.806Z" fill="#E0E0E0"/>
<path d="M605 347.723C605 347.853 473.425 347.948 311.158 347.948C148.891 347.948 17.2988 347.853 17.2988 347.723C17.2988 347.594 148.84 347.499 311.158 347.499C473.477 347.499 605 347.603 605 347.723Z" fill="#263238"/>
<path d="M514.16 346.239H582.282V137.551H514.16V346.239Z" fill="#EBEBEB"/>
<path d="M460.414 346.239H514.16L514.255 137.551H460.414V346.239Z" fill="#E0E0E0"/>
<path d="M520.727 187.217H578.511V170.944H520.727V187.217Z" fill="#263238"/>
<path d="M573.662 185.448H576.898V172.997H573.662V185.448Z" fill="#455A64"/>
<path d="M569.849 175.611C569.847 175.817 569.906 176.018 570.019 176.19C570.133 176.361 570.294 176.495 570.484 176.575C570.673 176.654 570.882 176.675 571.084 176.636C571.285 176.596 571.471 176.497 571.616 176.352C571.761 176.207 571.86 176.021 571.9 175.82C571.94 175.618 571.918 175.409 571.839 175.22C571.759 175.03 571.625 174.869 571.454 174.755C571.282 174.642 571.081 174.583 570.875 174.585C570.604 174.587 570.344 174.696 570.152 174.888C569.96 175.08 569.851 175.34 569.849 175.611Z" fill="white"/>
<path d="M569.849 180.012C569.847 180.217 569.906 180.419 570.019 180.59C570.133 180.762 570.294 180.896 570.484 180.975C570.673 181.055 570.882 181.076 571.084 181.036C571.285 180.997 571.471 180.898 571.616 180.753C571.761 180.607 571.86 180.422 571.9 180.22C571.94 180.019 571.918 179.81 571.839 179.62C571.759 179.431 571.625 179.269 571.454 179.156C571.282 179.043 571.081 178.983 570.875 178.985C570.74 178.985 570.607 179.012 570.482 179.063C570.358 179.115 570.245 179.191 570.149 179.286C570.054 179.381 569.978 179.494 569.927 179.619C569.875 179.744 569.849 179.877 569.849 180.012Z" fill="white"/>
<path d="M562.557 184.154H565.741V174.585H562.557V184.154Z" fill="#455A64"/>
<path d="M557.959 184.154H561.142V174.585H557.959V184.154Z" fill="#455A64"/>
<path d="M553.368 184.154H556.552V174.585H553.368V184.154Z" fill="#455A64"/>
<path d="M548.778 184.154H551.962V174.585H548.778V184.154Z" fill="#455A64"/>
<path d="M544.179 184.154H547.363V174.585H544.179V184.154Z" fill="#455A64"/>
<path d="M539.588 184.154H542.772V174.585H539.588V184.154Z" fill="#455A64"/>
<path d="M534.998 184.154H538.182V174.585H534.998V184.154Z" fill="#455A64"/>
<path d="M530.399 184.154H533.583V174.585H530.399V184.154Z" fill="#455A64"/>
<path d="M525.809 184.154H528.992V174.585H525.809V184.154Z" fill="#455A64"/>
<path d="M521.218 184.154H524.402V174.585H521.218V184.154Z" fill="#455A64"/>
<path d="M520.727 210.591H578.511V194.318H520.727V210.591Z" fill="#263238"/>
<path d="M573.662 208.814H576.898V196.363H573.662V208.814Z" fill="#455A64"/>
<path d="M569.849 198.986C569.847 199.191 569.906 199.393 570.019 199.564C570.133 199.736 570.294 199.87 570.484 199.949C570.673 200.029 570.882 200.05 571.084 200.01C571.285 199.971 571.471 199.872 571.616 199.727C571.761 199.581 571.86 199.396 571.9 199.194C571.94 198.993 571.918 198.784 571.839 198.594C571.759 198.405 571.625 198.243 571.454 198.13C571.282 198.017 571.081 197.957 570.875 197.959C570.74 197.959 570.607 197.986 570.482 198.037C570.358 198.089 570.245 198.164 570.149 198.26C570.054 198.355 569.978 198.468 569.927 198.593C569.875 198.717 569.849 198.851 569.849 198.986Z" fill="white"/>
<path d="M569.849 203.386C569.847 203.592 569.906 203.793 570.019 203.965C570.133 204.136 570.294 204.271 570.484 204.35C570.673 204.429 570.882 204.451 571.084 204.411C571.285 204.371 571.471 204.273 571.616 204.127C571.761 203.982 571.86 203.797 571.9 203.595C571.94 203.393 571.918 203.184 571.839 202.995C571.759 202.805 571.625 202.644 571.454 202.531C571.282 202.417 571.081 202.358 570.875 202.36C570.74 202.36 570.607 202.386 570.482 202.438C570.358 202.489 570.245 202.565 570.149 202.66C570.054 202.756 569.978 202.869 569.927 202.993C569.875 203.118 569.849 203.252 569.849 203.386Z" fill="white"/>
<path d="M562.557 207.519H565.741V197.959H562.557V207.519Z" fill="#455A64"/>
<path d="M557.959 207.519H561.142V197.959H557.959V207.519Z" fill="#455A64"/>
<path d="M553.368 207.519H556.552V197.959H553.368V207.519Z" fill="#455A64"/>
<path d="M548.778 207.519H551.962V197.959H548.778V207.519Z" fill="#455A64"/>
<path d="M544.179 207.519H547.363V197.959H544.179V207.519Z" fill="#455A64"/>
<path d="M539.588 207.519H542.772V197.959H539.588V207.519Z" fill="#455A64"/>
<path d="M534.998 207.519H538.182V197.959H534.998V207.519Z" fill="#455A64"/>
<path d="M530.399 207.519H533.583V197.959H530.399V207.519Z" fill="#455A64"/>
<path d="M525.809 207.519H528.992V197.959H525.809V207.519Z" fill="#455A64"/>
<path d="M521.218 207.519H524.402V197.959H521.218V207.519Z" fill="#455A64"/>
<path d="M520.727 234.156H578.511V217.882H520.727V234.156Z" fill="#263238"/>
<path d="M573.662 232.378H576.898V219.927H573.662V232.378Z" fill="#455A64"/>
<path d="M569.849 222.55C569.849 222.755 569.909 222.956 570.024 223.126C570.138 223.297 570.3 223.429 570.49 223.508C570.679 223.586 570.888 223.606 571.089 223.565C571.29 223.524 571.475 223.425 571.619 223.279C571.764 223.133 571.861 222.948 571.9 222.747C571.939 222.545 571.918 222.337 571.838 222.148C571.758 221.959 571.624 221.798 571.453 221.685C571.281 221.572 571.08 221.513 570.875 221.515C570.602 221.517 570.341 221.627 570.149 221.821C569.956 222.015 569.849 222.277 569.849 222.55Z" fill="white"/>
<path d="M569.849 226.942C569.847 227.148 569.906 227.349 570.019 227.521C570.133 227.692 570.294 227.826 570.484 227.906C570.673 227.985 570.882 228.006 571.084 227.967C571.285 227.927 571.471 227.828 571.616 227.683C571.761 227.538 571.86 227.352 571.9 227.151C571.94 226.949 571.918 226.74 571.839 226.55C571.759 226.361 571.625 226.199 571.454 226.086C571.282 225.973 571.081 225.914 570.875 225.915C570.604 225.918 570.344 226.026 570.152 226.219C569.96 226.411 569.851 226.67 569.849 226.942Z" fill="white"/>
<path d="M562.557 231.084H565.741V221.523H562.557V231.084Z" fill="#455A64"/>
<path d="M557.959 231.084H561.142V221.523H557.959V231.084Z" fill="#455A64"/>
<path d="M553.368 231.084H556.552V221.523H553.368V231.084Z" fill="#455A64"/>
<path d="M548.778 231.084H551.962V221.523H548.778V231.084Z" fill="#455A64"/>
<path d="M544.179 231.084H547.363V221.523H544.179V231.084Z" fill="#455A64"/>
<path d="M539.588 231.084H542.772V221.523H539.588V231.084Z" fill="#455A64"/>
<path d="M534.998 231.084H538.182V221.523H534.998V231.084Z" fill="#455A64"/>
<path d="M530.399 231.084H533.583V221.523H530.399V231.084Z" fill="#455A64"/>
<path d="M525.809 231.084H528.992V221.523H525.809V231.084Z" fill="#455A64"/>
<path d="M521.218 231.084H524.402V221.523H521.218V231.084Z" fill="#455A64"/>
<path d="M520.727 259.601H578.511V243.328H520.727V259.601Z" fill="#263238"/>
<path d="M573.662 257.823H576.898V245.372H573.662V257.823Z" fill="#455A64"/>
<path d="M569.849 247.996C569.847 248.201 569.906 248.402 570.019 248.574C570.133 248.746 570.294 248.88 570.484 248.959C570.673 249.039 570.882 249.06 571.084 249.02C571.285 248.98 571.471 248.882 571.616 248.736C571.761 248.591 571.86 248.406 571.9 248.204C571.94 248.002 571.918 247.794 571.839 247.604C571.759 247.414 571.625 247.253 571.454 247.14C571.282 247.027 571.081 246.967 570.875 246.969C570.74 246.969 570.607 246.995 570.482 247.047C570.358 247.099 570.245 247.174 570.149 247.27C570.054 247.365 569.978 247.478 569.927 247.603C569.875 247.727 569.849 247.861 569.849 247.996Z" fill="white"/>
<path d="M569.849 252.396C569.847 252.601 569.906 252.803 570.019 252.974C570.133 253.146 570.294 253.28 570.484 253.36C570.673 253.439 570.882 253.46 571.084 253.42C571.285 253.381 571.471 253.282 571.616 253.137C571.761 252.991 571.86 252.806 571.9 252.604C571.94 252.403 571.918 252.194 571.839 252.004C571.759 251.815 571.625 251.653 571.454 251.54C571.282 251.427 571.081 251.367 570.875 251.369C570.74 251.369 570.607 251.396 570.482 251.447C570.358 251.499 570.245 251.575 570.149 251.67C570.054 251.765 569.978 251.878 569.927 252.003C569.875 252.128 569.849 252.261 569.849 252.396Z" fill="white"/>
<path d="M562.557 256.529H565.741V246.969H562.557V256.529Z" fill="#455A64"/>
<path d="M557.959 256.529H561.142V246.969H557.959V256.529Z" fill="#455A64"/>
<path d="M553.368 256.529H556.552V246.969H553.368V256.529Z" fill="#455A64"/>
<path d="M548.778 256.529H551.962V246.969H548.778V256.529Z" fill="#455A64"/>
<path d="M544.179 256.529H547.363V246.969H544.179V256.529Z" fill="#455A64"/>
<path d="M539.588 256.529H542.772V246.969H539.588V256.529Z" fill="#455A64"/>
<path d="M534.998 256.529H538.182V246.969H534.998V256.529Z" fill="#455A64"/>
<path d="M530.399 256.529H533.583V246.969H530.399V256.529Z" fill="#455A64"/>
<path d="M525.809 256.529H528.992V246.969H525.809V256.529Z" fill="#455A64"/>
<path d="M521.218 256.529H524.402V246.969H521.218V256.529Z" fill="#455A64"/>
<path d="M520.727 285.305H578.511V269.032H520.727V285.305Z" fill="#263238"/>
<path d="M573.662 283.536H576.898V271.085H573.662V283.536Z" fill="#455A64"/>
<path d="M569.849 273.7C569.847 273.905 569.906 274.107 570.019 274.278C570.133 274.45 570.294 274.584 570.484 274.663C570.673 274.743 570.882 274.764 571.084 274.724C571.285 274.685 571.471 274.586 571.616 274.44C571.761 274.295 571.86 274.11 571.9 273.908C571.94 273.707 571.918 273.498 571.839 273.308C571.759 273.119 571.625 272.957 571.454 272.844C571.282 272.731 571.081 272.671 570.875 272.673C570.74 272.673 570.607 272.699 570.482 272.751C570.358 272.803 570.245 272.878 570.149 272.974C570.054 273.069 569.978 273.182 569.927 273.307C569.875 273.431 569.849 273.565 569.849 273.7Z" fill="white"/>
<path d="M569.849 278.1C569.847 278.306 569.906 278.507 570.019 278.679C570.133 278.85 570.294 278.984 570.484 279.064C570.673 279.143 570.882 279.165 571.084 279.125C571.285 279.085 571.471 278.986 571.616 278.841C571.761 278.696 571.86 278.51 571.9 278.309C571.94 278.107 571.918 277.898 571.839 277.709C571.759 277.519 571.625 277.358 571.454 277.244C571.282 277.131 571.081 277.072 570.875 277.074C570.74 277.074 570.607 277.1 570.482 277.152C570.358 277.203 570.245 277.279 570.149 277.374C570.054 277.47 569.978 277.583 569.927 277.707C569.875 277.832 569.849 277.965 569.849 278.1Z" fill="white"/>
<path d="M562.557 282.233H565.741V272.673H562.557V282.233Z" fill="#455A64"/>
<path d="M557.959 282.233H561.142V272.673H557.959V282.233Z" fill="#455A64"/>
<path d="M553.368 282.233H556.552V272.673H553.368V282.233Z" fill="#455A64"/>
<path d="M548.778 282.233H551.962V272.673H548.778V282.233Z" fill="#455A64"/>
<path d="M544.179 282.233H547.363V272.673H544.179V282.233Z" fill="#455A64"/>
<path d="M539.588 282.233H542.772V272.673H539.588V282.233Z" fill="#455A64"/>
<path d="M534.998 282.233H538.182V272.673H534.998V282.233Z" fill="#455A64"/>
<path d="M530.399 282.233H533.583V272.673H530.399V282.233Z" fill="#455A64"/>
<path d="M525.809 282.233H528.992V272.673H525.809V282.233Z" fill="#455A64"/>
<path d="M521.218 282.233H524.402V272.673H521.218V282.233Z" fill="#455A64"/>
<path d="M520.727 336.454H578.511V320.181H520.727V336.454Z" fill="#263238"/>
<path d="M573.662 334.677H576.898V322.226H573.662V334.677Z" fill="#455A64"/>
<path d="M569.849 324.849C569.847 325.055 569.906 325.256 570.019 325.428C570.133 325.599 570.294 325.733 570.484 325.813C570.673 325.892 570.882 325.913 571.084 325.874C571.285 325.834 571.471 325.735 571.616 325.59C571.761 325.445 571.86 325.259 571.9 325.058C571.94 324.856 571.918 324.647 571.839 324.457C571.759 324.268 571.625 324.106 571.454 323.993C571.282 323.88 571.081 323.821 570.875 323.822C570.74 323.822 570.607 323.849 570.482 323.9C570.358 323.952 570.245 324.028 570.149 324.123C570.054 324.218 569.978 324.332 569.927 324.456C569.875 324.581 569.849 324.714 569.849 324.849Z" fill="white"/>
<path d="M569.849 329.25C569.847 329.455 569.906 329.657 570.019 329.828C570.133 330 570.294 330.134 570.484 330.213C570.673 330.293 570.882 330.314 571.084 330.274C571.285 330.235 571.471 330.136 571.616 329.99C571.761 329.845 571.86 329.66 571.9 329.458C571.94 329.257 571.918 329.048 571.839 328.858C571.759 328.669 571.625 328.507 571.454 328.394C571.282 328.281 571.081 328.221 570.875 328.223C570.74 328.223 570.607 328.249 570.482 328.301C570.358 328.353 570.245 328.428 570.149 328.524C570.054 328.619 569.978 328.732 569.927 328.857C569.875 328.981 569.849 329.115 569.849 329.25Z" fill="white"/>
<path d="M562.557 333.383H565.741V323.822H562.557V333.383Z" fill="#455A64"/>
<path d="M557.959 333.383H561.142V323.822H557.959V333.383Z" fill="#455A64"/>
<path d="M553.368 333.383H556.552V323.822H553.368V333.383Z" fill="#455A64"/>
<path d="M548.778 333.383H551.962V323.822H548.778V333.383Z" fill="#455A64"/>
<path d="M544.179 333.383H547.363V323.822H544.179V333.383Z" fill="#455A64"/>
<path d="M539.588 333.383H542.772V323.822H539.588V333.383Z" fill="#455A64"/>
<path d="M534.998 333.383H538.182V323.822H534.998V333.383Z" fill="#455A64"/>
<path d="M530.399 333.383H533.583V323.822H530.399V333.383Z" fill="#455A64"/>
<path d="M525.809 333.383H528.992V323.822H525.809V333.383Z" fill="#455A64"/>
<path d="M521.218 333.383H524.402V323.822H521.218V333.383Z" fill="#455A64"/>
<path d="M520.727 310.906H578.511V294.632H520.727V310.906Z" fill="#263238"/>
<path d="M573.662 309.128H576.898V296.677H573.662V309.128Z" fill="#455A64"/>
<path d="M569.849 299.343C569.849 299.548 569.909 299.749 570.024 299.919C570.138 300.09 570.3 300.223 570.49 300.301C570.679 300.379 570.888 300.399 571.089 300.358C571.29 300.318 571.475 300.218 571.619 300.072C571.764 299.927 571.861 299.741 571.9 299.54C571.939 299.339 571.918 299.13 571.838 298.941C571.758 298.752 571.624 298.591 571.453 298.478C571.281 298.365 571.08 298.306 570.875 298.308C570.602 298.31 570.341 298.42 570.149 298.614C569.956 298.808 569.849 299.07 569.849 299.343Z" fill="white"/>
<path d="M569.849 303.658C569.847 303.863 569.906 304.065 570.019 304.236C570.133 304.408 570.294 304.542 570.484 304.621C570.673 304.701 570.882 304.722 571.084 304.682C571.285 304.643 571.471 304.544 571.616 304.398C571.761 304.253 571.86 304.068 571.9 303.866C571.94 303.665 571.918 303.456 571.839 303.266C571.759 303.077 571.625 302.915 571.454 302.802C571.282 302.689 571.081 302.629 570.875 302.631C570.604 302.633 570.344 302.742 570.152 302.934C569.96 303.126 569.851 303.386 569.849 303.658Z" fill="white"/>
<path d="M562.557 307.834H565.741V298.273H562.557V307.834Z" fill="#455A64"/>
<path d="M557.959 307.834H561.142V298.273H557.959V307.834Z" fill="#455A64"/>
<path d="M553.368 307.834H556.552V298.273H553.368V307.834Z" fill="#455A64"/>
<path d="M548.778 307.834H551.962V298.273H548.778V307.834Z" fill="#455A64"/>
<path d="M544.179 307.834H547.363V298.273H544.179V307.834Z" fill="#455A64"/>
<path d="M539.588 307.834H542.772V298.273H539.588V307.834Z" fill="#455A64"/>
<path d="M534.998 307.834H538.182V298.273H534.998V307.834Z" fill="#455A64"/>
<path d="M530.399 307.834H533.583V298.273H530.399V307.834Z" fill="#455A64"/>
<path d="M525.809 307.834H528.992V298.273H525.809V307.834Z" fill="#455A64"/>
<path d="M521.218 307.834H524.402V298.273H521.218V307.834Z" fill="#455A64"/>
<path d="M542.773 170.952C542.813 170.788 542.833 170.62 542.833 170.452C542.833 170.112 542.851 169.629 542.885 169.002C542.885 168.372 542.885 167.604 542.963 166.715C542.989 165.715 543.119 164.721 543.351 163.747C543.682 162.585 544.204 161.486 544.895 160.494C545.682 159.347 546.781 158.449 548.062 157.906C549.507 157.379 551.022 157.071 552.557 156.991L557.536 156.56C564.353 155.973 570.539 155.593 575.026 155.507C577.269 155.507 579.081 155.507 580.332 155.507H581.782C581.948 155.526 582.116 155.526 582.283 155.507L581.782 155.455L580.341 155.369C579.081 155.317 577.269 155.266 575.017 155.274C570.531 155.274 564.327 155.628 557.502 156.223L552.523 156.663C550.953 156.745 549.404 157.068 547.933 157.621C546.599 158.177 545.457 159.11 544.645 160.305C543.941 161.329 543.419 162.468 543.101 163.67C542.878 164.664 542.762 165.679 542.756 166.698C542.756 167.561 542.756 168.355 542.756 168.985C542.756 169.615 542.756 170.063 542.756 170.426C542.747 170.601 542.753 170.777 542.773 170.952Z" fill="#263238"/>
<path d="M560.305 170.952C560.32 170.794 560.32 170.635 560.305 170.477C560.305 170.124 560.305 169.675 560.305 169.114C560.305 168.553 560.305 167.803 560.365 166.974C560.409 166.039 560.653 165.124 561.082 164.291C561.704 163.358 562.612 162.653 563.67 162.28C564.884 161.814 566.201 161.679 567.484 161.892C568.168 162.012 568.829 162.239 569.443 162.565C570.081 162.887 570.612 163.388 570.97 164.006C571.146 164.318 571.239 164.67 571.239 165.029C571.239 165.387 571.146 165.739 570.97 166.051C570.786 166.374 570.538 166.656 570.241 166.88C569.944 167.104 569.605 167.265 569.244 167.354C568.884 167.434 568.51 167.422 568.155 167.32C567.801 167.217 567.478 167.027 567.216 166.767C566.686 166.272 566.361 165.596 566.303 164.873C566.246 164.15 566.461 163.431 566.906 162.859C567.303 162.293 567.829 161.832 568.442 161.512C569.043 161.236 569.689 161.07 570.349 161.021C571.004 160.917 571.634 160.831 572.247 160.77C573.481 160.632 574.628 160.546 575.698 160.503C577.804 160.425 579.512 160.46 580.694 160.46H582.049C582.207 160.471 582.365 160.471 582.523 160.46C582.372 160.419 582.214 160.402 582.057 160.408L580.694 160.339C579.521 160.296 577.804 160.227 575.69 160.27C574.637 160.27 573.472 160.365 572.238 160.486C571.617 160.555 570.978 160.632 570.323 160.727C569.986 160.779 569.667 160.814 569.322 160.883C568.968 160.952 568.625 161.071 568.304 161.236C567.639 161.578 567.068 162.075 566.638 162.686C566.143 163.328 565.904 164.131 565.968 164.94C566.032 165.748 566.394 166.504 566.983 167.061C567.29 167.359 567.666 167.576 568.077 167.693C568.488 167.811 568.921 167.825 569.339 167.734C569.753 167.637 570.143 167.455 570.483 167.2C570.823 166.944 571.107 166.621 571.315 166.25C571.519 165.886 571.626 165.476 571.626 165.059C571.626 164.642 571.519 164.232 571.315 163.868C570.92 163.19 570.339 162.639 569.641 162.28C568.991 161.937 568.288 161.703 567.562 161.59C566.221 161.373 564.847 161.522 563.584 162.022C562.46 162.421 561.501 163.183 560.857 164.187C560.431 165.059 560.199 166.013 560.176 166.983C560.124 167.846 560.176 168.553 560.176 169.14C560.176 169.727 560.176 170.15 560.227 170.503C560.237 170.655 560.263 170.806 560.305 170.952Z" fill="#263238"/>
<path d="M538.052 170.952C538.109 170.775 538.149 170.593 538.173 170.409C538.233 170.055 538.337 169.546 538.475 168.864C538.876 166.976 539.454 165.13 540.201 163.35C541.251 160.696 542.987 158.368 545.231 156.603C546.59 155.629 548.183 155.034 549.847 154.877C551.646 154.677 553.456 154.579 555.266 154.584C562.73 154.437 569.503 154.472 574.395 154.282C576.846 154.196 578.822 154.083 580.194 153.989L581.764 153.851C581.947 153.845 582.129 153.822 582.308 153.781C582.124 153.77 581.939 153.77 581.755 153.781L580.185 153.842C578.813 153.894 576.837 153.971 574.387 154.023C569.494 154.144 562.73 154.075 555.257 154.213C553.432 154.207 551.609 154.308 549.795 154.515C548.072 154.696 546.428 155.333 545.033 156.361C543.801 157.305 542.726 158.438 541.849 159.718C541.099 160.837 540.469 162.031 539.968 163.281C539.239 165.081 538.701 166.952 538.363 168.864C538.242 169.537 538.164 170.063 538.121 170.426C538.089 170.6 538.066 170.776 538.052 170.952Z" fill="#263238"/>
<path d="M521.521 148.302H577.718V140.148H521.521V148.302Z" fill="#263238"/>
<path d="M534.765 148.311H565.361V144.23H534.765V148.311Z" fill="#455A64"/>
<path d="M498.586 309.344C498.586 309.387 499.208 309.447 500.312 309.758C501.829 310.219 503.263 310.921 504.557 311.837C505.452 312.463 506.256 313.209 506.947 314.055C507.324 314.523 507.65 315.029 507.922 315.565C508.184 316.148 508.39 316.755 508.535 317.377C509.182 319.965 508.984 322.908 508.854 326.005C508.725 329.103 508.932 332.14 510.14 334.634C510.691 335.799 511.472 336.841 512.435 337.697C513.273 338.436 514.222 339.039 515.248 339.483C516.092 339.854 516.979 340.121 517.888 340.277C518.574 340.379 519.268 340.408 519.959 340.363C520.393 340.334 520.823 340.264 521.245 340.156C521.396 340.129 521.543 340.085 521.685 340.027C521.685 339.983 521.072 340.173 519.959 340.216C519.28 340.238 518.6 340.188 517.931 340.07C517.038 339.904 516.169 339.628 515.343 339.25C514.354 338.796 513.438 338.197 512.625 337.473C511.699 336.636 510.954 335.621 510.433 334.487C509.277 332.097 509.079 329.112 509.208 326.057C509.337 323.003 509.527 320.017 508.846 317.36C508.691 316.716 508.474 316.089 508.199 315.487C507.912 314.93 507.565 314.406 507.163 313.925C506.448 313.07 505.618 312.317 504.695 311.691C503.383 310.779 501.924 310.099 500.381 309.68C499.958 309.572 499.529 309.491 499.096 309.439C498.93 309.39 498.759 309.358 498.586 309.344Z" fill="#263238"/>
<path d="M519.881 343.047H524.498V337.438H519.881V343.047Z" fill="#263238"/>
<path d="M472.727 323.512H498.595V295.167H472.727V323.512Z" fill="#455A64"/>
<path d="M493.545 312.72C495.334 308.37 493.258 303.393 488.909 301.604C484.559 299.815 479.582 301.89 477.793 306.24C476.003 310.59 478.079 315.566 482.429 317.356C486.779 319.145 491.755 317.069 493.545 312.72Z" fill="#263238"/>
<path d="M481.398 309.456C481.396 310.3 481.645 311.125 482.113 311.827C482.581 312.53 483.246 313.077 484.025 313.401C484.805 313.725 485.662 313.81 486.49 313.646C487.318 313.481 488.078 313.075 488.675 312.479C489.271 311.882 489.677 311.122 489.842 310.294C490.006 309.466 489.921 308.609 489.597 307.829C489.273 307.05 488.726 306.385 488.023 305.917C487.321 305.449 486.496 305.2 485.652 305.202C484.524 305.204 483.444 305.653 482.647 306.451C481.849 307.248 481.4 308.328 481.398 309.456Z" fill="#455A64"/>
<path d="M494.297 299.576C494.297 299.733 494.344 299.887 494.431 300.017C494.518 300.148 494.642 300.25 494.788 300.31C494.933 300.37 495.092 300.385 495.246 300.355C495.4 300.324 495.542 300.249 495.653 300.138C495.764 300.027 495.839 299.885 495.87 299.731C495.901 299.577 495.885 299.418 495.825 299.273C495.765 299.127 495.663 299.003 495.532 298.916C495.402 298.829 495.248 298.782 495.091 298.782C494.881 298.782 494.679 298.866 494.53 299.015C494.381 299.164 494.297 299.366 494.297 299.576Z" fill="#263238"/>
<path d="M476.678 300.37C477.117 300.37 477.472 300.015 477.472 299.576C477.472 299.138 477.117 298.782 476.678 298.782C476.24 298.782 475.884 299.138 475.884 299.576C475.884 300.015 476.24 300.37 476.678 300.37Z" fill="#263238"/>
<path d="M476.506 321.294C476.945 321.294 477.3 320.939 477.3 320.5C477.3 320.062 476.945 319.707 476.506 319.707C476.068 319.707 475.712 320.062 475.712 320.5C475.712 320.939 476.068 321.294 476.506 321.294Z" fill="#263238"/>
<path d="M494.297 320.828C494.297 320.985 494.344 321.139 494.431 321.269C494.518 321.4 494.642 321.502 494.788 321.562C494.933 321.622 495.092 321.637 495.246 321.607C495.4 321.576 495.542 321.501 495.653 321.39C495.764 321.279 495.839 321.137 495.87 320.983C495.901 320.829 495.885 320.67 495.825 320.524C495.765 320.379 495.663 320.255 495.532 320.168C495.402 320.081 495.248 320.034 495.091 320.034C494.881 320.034 494.679 320.118 494.53 320.267C494.381 320.416 494.297 320.618 494.297 320.828Z" fill="#263238"/>
<path d="M470.63 323.512H472.718V295.167H470.63V323.512Z" fill="#263238"/>
<path d="M95.8444 99.4221H453.805C455.347 99.4221 456.826 100.035 457.917 101.125C459.007 102.216 459.62 103.695 459.62 105.238V331.838C459.62 333.489 459.295 335.124 458.663 336.649C458.031 338.174 457.105 339.56 455.938 340.728C454.771 341.895 453.385 342.821 451.859 343.453C450.334 344.085 448.699 344.41 447.048 344.41H101.729C98.3948 344.41 95.1971 343.085 92.8395 340.728C90.4819 338.37 89.1573 335.172 89.1573 331.838V106.109C89.1573 104.336 89.8619 102.635 91.1159 101.381C92.37 100.127 94.0709 99.4221 95.8444 99.4221Z" fill="#455A64"/>
<path d="M73.6689 326.29H475.039V335.885C475.039 337.439 474.733 338.979 474.138 340.415C473.543 341.851 472.671 343.156 471.572 344.256C470.472 345.355 469.167 346.227 467.731 346.822C466.295 347.417 464.755 347.723 463.201 347.723H85.5072C83.9526 347.723 82.4132 347.417 80.9769 346.822C79.5406 346.227 78.2356 345.355 77.1363 344.256C76.037 343.156 75.165 341.851 74.5701 340.415C73.9752 338.979 73.6689 337.439 73.6689 335.885V326.29Z" fill="#455A64"/>
<path d="M448.645 109.155H99.1058V316.04H448.645V109.155Z" fill="#E0E0E0"/>
<path d="M237.869 326.29L242.856 334.211H312.936L317.561 326.29H237.869Z" fill="#263238"/>
<path d="M439.119 121.14H109.477V316.039H439.119V121.14Z" fill="#263238"/>
<path d="M134.75 310.328C134.577 310.328 134.439 268.816 134.439 217.623C134.439 166.431 134.577 124.911 134.75 124.911C134.922 124.911 135.06 166.414 135.06 217.623C135.06 268.833 134.939 310.328 134.75 310.328Z" fill="#E0E0E0"/>
<path d="M128.115 141.719C128.115 141.883 125.716 142.021 122.765 142.021C119.814 142.021 117.407 141.883 117.407 141.719C117.407 141.555 119.805 141.408 122.765 141.408C125.725 141.408 128.115 141.546 128.115 141.719Z" fill="#E0E0E0"/>
<path d="M128.529 131.192C128.529 131.365 126.13 131.503 123.171 131.503C120.211 131.503 117.821 131.365 117.821 131.192C117.821 131.019 120.22 130.881 123.171 130.881C126.122 130.881 128.529 131.019 128.529 131.192Z" fill="#E0E0E0"/>
<path d="M128.115 153.056C128.115 153.229 125.716 153.367 122.765 153.367C119.814 153.367 117.407 153.229 117.407 153.056C117.407 152.884 119.805 152.746 122.765 152.746C125.725 152.746 128.115 152.884 128.115 153.056Z" fill="#E0E0E0"/>
<path d="M128.115 164.394C128.115 164.567 125.716 164.705 122.765 164.705C119.814 164.705 117.407 164.567 117.407 164.394C117.407 164.222 119.805 164.084 122.765 164.084C125.725 164.084 128.115 164.222 128.115 164.394Z" fill="#E0E0E0"/>
<path d="M128.115 175.732C128.115 175.905 125.716 176.043 122.765 176.043C119.814 176.043 117.407 175.905 117.407 175.732C117.407 175.56 119.805 175.43 122.765 175.43C125.725 175.43 128.115 175.568 128.115 175.732Z" fill="#E0E0E0"/>
<path d="M128.115 187.078C128.115 187.251 125.716 187.389 122.765 187.389C119.814 187.389 117.407 187.251 117.407 187.078C117.407 186.906 119.805 186.768 122.765 186.768C125.725 186.768 128.115 186.906 128.115 187.078Z" fill="#E0E0E0"/>
<path d="M128.115 198.39C128.115 198.563 125.716 198.701 122.765 198.701C119.814 198.701 117.407 198.563 117.407 198.39C117.407 198.218 119.805 198.08 122.765 198.08C125.725 198.08 128.115 198.244 128.115 198.39Z" fill="#E0E0E0"/>
<path d="M128.115 209.754C128.115 209.927 125.716 210.065 122.765 210.065C119.814 210.065 117.407 209.927 117.407 209.754C117.407 209.582 119.805 209.452 122.765 209.452C125.725 209.452 128.115 209.607 128.115 209.754Z" fill="#E0E0E0"/>
<path d="M128.115 221.101C128.115 221.265 125.716 221.403 122.765 221.403C119.814 221.403 117.407 221.265 117.407 221.101C117.407 220.937 119.805 220.79 122.765 220.79C125.725 220.79 128.115 220.928 128.115 221.101Z" fill="#E0E0E0"/>
<path d="M128.115 232.438C128.115 232.611 125.716 232.749 122.765 232.749C119.814 232.749 117.407 232.611 117.407 232.438C117.407 232.266 119.805 232.128 122.765 232.128C125.725 232.128 128.115 232.266 128.115 232.438Z" fill="#E0E0E0"/>
<path d="M128.115 243.776C128.115 243.949 125.716 244.087 122.765 244.087C119.814 244.087 117.407 243.949 117.407 243.776C117.407 243.604 119.805 243.466 122.765 243.466C125.725 243.466 128.115 243.604 128.115 243.776Z" fill="#E0E0E0"/>
<path d="M128.115 255.123C128.115 255.287 125.716 255.425 122.765 255.425C119.814 255.425 117.407 255.287 117.407 255.123C117.407 254.959 119.805 254.812 122.765 254.812C125.725 254.812 128.115 254.95 128.115 255.123Z" fill="#E0E0E0"/>
<path d="M128.115 266.46C128.115 266.633 125.716 266.771 122.765 266.771C119.814 266.771 117.407 266.633 117.407 266.46C117.407 266.288 119.805 266.15 122.765 266.15C125.725 266.15 128.115 266.288 128.115 266.46Z" fill="#E0E0E0"/>
<path d="M128.115 277.772C128.115 277.945 125.716 278.083 122.765 278.083C119.814 278.083 117.407 277.945 117.407 277.772C117.407 277.6 119.805 277.462 122.765 277.462C125.725 277.462 128.115 277.626 128.115 277.772Z" fill="#E0E0E0"/>
<path d="M128.115 289.136C128.115 289.309 125.716 289.447 122.765 289.447C119.814 289.447 117.407 289.309 117.407 289.136C117.407 288.963 119.805 288.834 122.765 288.834C125.725 288.834 128.115 288.989 128.115 289.136Z" fill="#E0E0E0"/>
<path d="M128.115 300.482C128.115 300.655 125.716 300.793 122.765 300.793C119.814 300.793 117.407 300.655 117.407 300.482C117.407 300.31 119.805 300.172 122.765 300.172C125.725 300.172 128.115 300.31 128.115 300.482Z" fill="#E0E0E0"/>
<path d="M171.041 300.482C171.041 300.655 164.82 300.793 157.141 300.793C149.461 300.793 143.249 300.655 143.249 300.482C143.249 300.31 149.47 300.172 157.141 300.172C164.811 300.172 171.041 300.31 171.041 300.482Z" fill="#404040"/>
<path d="M180.644 140.019C180.644 140.191 174.423 140.33 166.752 140.33C159.082 140.33 152.852 140.191 152.852 140.019C152.852 139.846 159.073 139.708 166.752 139.708C174.432 139.708 180.644 139.846 180.644 140.019Z" fill="#404040"/>
<path d="M209.748 164.394C209.748 164.567 198.1 164.705 183.751 164.705C169.402 164.705 157.745 164.567 157.745 164.394C157.745 164.222 169.384 164.084 183.751 164.084C198.117 164.084 209.748 164.222 209.748 164.394Z" fill="#404040"/>
<path d="M269.871 164.394C269.871 164.567 258.232 164.705 243.874 164.705C229.516 164.705 217.876 164.567 217.876 164.394C217.876 164.222 229.516 164.084 243.874 164.084C258.232 164.084 269.871 164.222 269.871 164.394Z" fill="#E0E0E0"/>
<path d="M246.92 175.732C246.92 175.905 229.766 176.043 208.601 176.043C187.435 176.043 170.282 175.905 170.282 175.732C170.282 175.56 187.435 175.43 208.601 175.43C229.766 175.43 246.92 175.568 246.92 175.732Z" fill="#E0E0E0"/>
<path d="M246.92 187.078C246.92 187.251 229.766 187.389 208.601 187.389C187.435 187.389 170.282 187.251 170.282 187.078C170.282 186.906 187.435 186.768 208.601 186.768C229.766 186.768 246.92 186.906 246.92 187.078Z" fill="#E0E0E0"/>
<path d="M299.648 221.101C299.648 221.265 282.486 221.403 261.329 221.403C240.172 221.403 223.01 221.265 223.01 221.101C223.01 220.937 240.164 220.79 261.329 220.79C282.495 220.79 299.648 220.928 299.648 221.101Z" fill="#E0E0E0"/>
<path d="M276.886 198.39C276.886 198.563 259.724 198.701 238.567 198.701C217.41 198.701 200.248 198.563 200.248 198.39C200.248 198.218 217.402 198.08 238.567 198.08C259.733 198.08 276.886 198.244 276.886 198.39Z" fill="#E0E0E0"/>
<path d="M370.531 198.39C370.531 198.563 353.378 198.701 332.212 198.701C311.047 198.701 293.893 198.563 293.893 198.39C293.893 198.218 311.047 198.08 332.212 198.08C353.378 198.08 370.531 198.244 370.531 198.39Z" fill="#E0E0E0"/>
<path d="M337.968 175.732C337.968 175.905 320.806 176.043 299.649 176.043C278.492 176.043 261.33 175.905 261.33 175.732C261.33 175.56 278.483 175.43 299.649 175.43C320.814 175.43 337.968 175.568 337.968 175.732Z" fill="#FAFAFA"/>
<path d="M390.903 221.101C390.903 221.265 373.741 221.403 352.584 221.403C331.427 221.403 314.265 221.265 314.265 221.101C314.265 220.937 331.418 220.79 352.584 220.79C373.749 220.79 390.903 220.928 390.903 221.101Z" fill="#FAFAFA"/>
<path d="M380.333 187.078C380.333 187.251 353.688 187.389 320.797 187.389C287.905 187.389 261.26 187.251 261.26 187.078C261.26 186.906 287.896 186.768 320.797 186.768C353.697 186.768 380.333 186.906 380.333 187.078Z" fill="#455A64"/>
<path d="M171.041 289.136C171.041 289.309 164.82 289.447 157.141 289.447C149.461 289.447 143.249 289.309 143.249 289.136C143.249 288.963 149.47 288.834 157.141 288.834C164.811 288.834 171.041 288.989 171.041 289.136Z" fill="#FAFAFA"/>
<path d="M184.795 198.39C184.795 198.563 178.574 198.701 170.894 198.701C163.215 198.701 157.003 198.563 157.003 198.39C157.003 198.218 163.224 198.08 170.894 198.08C178.565 198.08 184.795 198.244 184.795 198.39Z" fill="#FAFAFA"/>
<path d="M407.556 198.39C407.556 198.563 401.334 198.701 393.664 198.701C385.993 198.701 379.798 198.589 379.798 198.39C379.798 198.192 386.019 198.08 393.698 198.08C401.378 198.08 407.556 198.244 407.556 198.39Z" fill="#404040"/>
<path d="M209.748 243.716C209.748 243.88 198.1 244.018 183.751 244.018C169.402 244.018 157.745 243.88 157.745 243.716C157.745 243.552 169.384 243.405 183.751 243.405C198.117 243.405 209.748 243.543 209.748 243.716Z" fill="#404040"/>
<path d="M269.871 243.716C269.871 243.88 258.232 244.018 243.874 244.018C229.516 244.018 217.876 243.88 217.876 243.716C217.876 243.552 229.516 243.405 243.874 243.405C258.232 243.405 269.871 243.543 269.871 243.716Z" fill="#E0E0E0"/>
<path d="M246.92 255.054C246.92 255.226 229.766 255.364 208.601 255.364C187.435 255.364 170.282 255.226 170.282 255.054C170.282 254.881 187.435 254.743 208.601 254.743C229.766 254.743 246.92 254.881 246.92 255.054Z" fill="#E0E0E0"/>
<path d="M246.92 266.391C246.92 266.564 229.766 266.702 208.601 266.702C187.435 266.702 170.282 266.564 170.282 266.391C170.282 266.219 187.435 266.081 208.601 266.081C229.766 266.081 246.92 266.219 246.92 266.391Z" fill="#E0E0E0"/>
<path d="M276.886 277.772C276.886 277.945 259.724 278.083 238.567 278.083C217.41 278.083 200.248 277.945 200.248 277.772C200.248 277.6 217.402 277.47 238.567 277.47C259.733 277.47 276.886 277.565 276.886 277.772Z" fill="#E0E0E0"/>
<path d="M370.531 277.772C370.531 277.945 353.378 278.083 332.212 278.083C311.047 278.083 293.893 277.945 293.893 277.772C293.893 277.6 311.047 277.47 332.212 277.47C353.378 277.47 370.531 277.565 370.531 277.772Z" fill="#E0E0E0"/>
<path d="M260.657 288.851C260.657 289.024 243.503 289.162 222.346 289.162C201.189 289.162 184.019 289.024 184.019 288.851C184.019 288.679 201.172 288.541 222.346 288.541C243.521 288.541 260.657 288.679 260.657 288.851Z" fill="#E0E0E0"/>
<path d="M234.141 150.071C234.141 150.244 216.979 150.382 195.822 150.382C174.665 150.382 157.503 150.244 157.503 150.071C157.503 149.899 174.656 149.76 195.822 149.76C216.988 149.76 234.141 149.924 234.141 150.071Z" fill="#E0E0E0"/>
<path d="M337.968 255.054C337.968 255.226 320.806 255.364 299.649 255.364C278.492 255.364 261.33 255.226 261.33 255.054C261.33 254.881 278.483 254.743 299.649 254.743C320.814 254.743 337.968 254.881 337.968 255.054Z" fill="#FAFAFA"/>
<path d="M380.333 266.391C380.333 266.564 353.688 266.702 320.797 266.702C287.905 266.702 261.26 266.564 261.26 266.391C261.26 266.219 287.896 266.081 320.797 266.081C353.697 266.081 380.333 266.219 380.333 266.391Z" fill="#455A64"/>
<path d="M184.795 277.772C184.795 277.945 178.574 278.083 170.894 278.083C163.215 278.083 157.003 277.945 157.003 277.772C157.003 277.6 163.224 277.47 170.894 277.47C178.565 277.47 184.795 277.565 184.795 277.772Z" fill="#FAFAFA"/>
<path d="M407.556 277.772C407.556 277.945 401.334 278.083 393.664 278.083C385.993 278.083 379.798 277.902 379.798 277.772C379.798 277.643 386.019 277.47 393.698 277.47C401.378 277.47 407.556 277.565 407.556 277.772Z" fill="#404040"/>
<path d="M302.08 66.824C302.08 66.824 302.08 66.5479 302.08 65.9612C302.08 65.3745 302.08 64.5806 302.08 63.5107C302.08 62.4408 302.08 61.0947 302.08 59.5244C302.048 58.6637 302.194 57.8057 302.511 57.0049C302.893 56.0975 303.506 55.3061 304.289 54.7097C305.159 54.0298 306.215 53.6296 307.317 53.5621C308.465 53.5621 309.647 53.5621 310.898 53.5621H319H338.742L453.018 53.4327H516.005H531.83C532.407 53.4117 532.985 53.4464 533.556 53.5362C534.695 53.7466 535.743 54.2982 536.561 55.1181C537.379 55.9379 537.929 56.9871 538.137 58.1266C538.223 58.6773 538.257 59.2348 538.241 59.7919V61.414C538.241 70.0425 538.241 78.0238 538.241 85.3493C538.241 100.018 538.189 111.804 538.172 120.001C538.172 124.082 538.172 127.258 538.172 129.424C538.172 130.493 538.172 131.313 538.172 131.874C538.172 132.435 538.172 132.737 538.172 132.737C538.172 132.737 538.172 132.452 538.172 131.874C538.172 131.296 538.172 130.493 538.172 129.424C538.172 127.258 538.172 124.082 538.129 120.001C538.129 111.804 538.129 99.9746 538.06 85.3493C538.06 78.0238 538.06 70.0166 538.06 61.414V59.7919C538.081 59.2579 538.049 58.7232 537.965 58.1956C537.772 57.122 537.256 56.1331 536.484 55.3618C535.713 54.5906 534.724 54.0739 533.65 53.8814C533.103 53.7972 532.548 53.7654 531.994 53.7864H515.979H452.992L338.647 53.7174H318.905H310.803C309.561 53.7174 308.361 53.7174 307.24 53.7174C306.172 53.7823 305.148 54.1638 304.297 54.8132C303.541 55.3918 302.947 56.1555 302.572 57.0307C302.261 57.8123 302.115 58.6493 302.14 59.4899C302.14 61.0602 302.14 62.389 302.14 63.4762C302.14 64.5461 302.14 65.3572 302.14 65.9267C302.14 66.4962 302.08 66.824 302.08 66.824Z" fill="#263238"/>
<path d="M540.286 132.754C540.286 133.193 540.156 133.621 539.913 133.986C539.669 134.351 539.323 134.635 538.917 134.803C538.512 134.971 538.066 135.015 537.636 134.929C537.206 134.843 536.811 134.632 536.501 134.322C536.191 134.012 535.979 133.617 535.894 133.187C535.808 132.757 535.852 132.311 536.02 131.906C536.188 131.5 536.472 131.154 536.837 130.91C537.202 130.667 537.63 130.537 538.069 130.537C538.657 130.537 539.221 130.77 539.637 131.186C540.053 131.602 540.286 132.166 540.286 132.754Z" fill="#263238"/>
<path d="M304.298 66.8241C304.3 67.2631 304.171 67.6926 303.928 68.0584C303.686 68.4242 303.34 68.7098 302.935 68.879C302.53 69.0481 302.084 69.0933 301.653 69.0087C301.222 68.9241 300.826 68.7136 300.515 68.4038C300.204 68.094 299.992 67.6989 299.906 67.2685C299.82 66.8382 299.863 66.3918 300.031 65.9861C300.198 65.5804 300.483 65.2336 300.847 64.9896C301.212 64.7455 301.641 64.6152 302.08 64.6152C302.667 64.6152 303.23 64.8477 303.645 65.2617C304.061 65.6757 304.296 66.2375 304.298 66.8241Z" fill="#263238"/>
<path d="M187.822 76.2378V265.883H358.252H379.452H501.993V76.2378H187.822Z" fill="#FAFAFA"/>
<path d="M501.993 76.2378H187.822V90.259H501.993V76.2378Z" fill="#E0E0E0"/>
<path d="M195.881 85.3148C196.886 85.3148 197.701 84.4997 197.701 83.4942C197.701 82.4887 196.886 81.6736 195.881 81.6736C194.875 81.6736 194.06 82.4887 194.06 83.4942C194.06 84.4997 194.875 85.3148 195.881 85.3148Z" fill="#263238"/>
<path d="M204.475 83.4942C204.475 83.8543 204.369 84.2063 204.168 84.5057C203.968 84.8051 203.684 85.0384 203.351 85.1762C203.019 85.314 202.653 85.3501 202.3 85.2798C201.946 85.2096 201.622 85.0362 201.367 84.7816C201.113 84.5269 200.939 84.2025 200.869 83.8494C200.799 83.4962 200.835 83.1301 200.973 82.7975C201.11 82.4648 201.344 82.1805 201.643 81.9804C201.943 81.7804 202.295 81.6736 202.655 81.6736C202.894 81.6736 203.131 81.7207 203.351 81.8122C203.572 81.9037 203.773 82.0378 203.942 82.2068C204.111 82.3759 204.245 82.5766 204.337 82.7975C204.428 83.0184 204.475 83.2551 204.475 83.4942Z" fill="#263238"/>
<path d="M209.428 85.3148C210.433 85.3148 211.248 84.4997 211.248 83.4942C211.248 82.4887 210.433 81.6736 209.428 81.6736C208.422 81.6736 207.607 82.4887 207.607 83.4942C207.607 84.4997 208.422 85.3148 209.428 85.3148Z" fill="#263238"/>
<path d="M340.106 106.412C340.106 106.515 333.695 106.601 325.792 106.601C317.888 106.601 311.468 106.515 311.468 106.412C311.468 106.308 317.879 106.222 325.792 106.222C333.704 106.222 340.106 106.308 340.106 106.412Z" fill="#263238"/>
<path d="M378.2 106.412C378.2 106.515 371.789 106.601 363.877 106.601C355.965 106.601 349.562 106.515 349.562 106.412C349.562 106.308 355.973 106.222 363.877 106.222C371.781 106.222 378.2 106.308 378.2 106.412Z" fill="#404040"/>
<path d="M416.287 106.412C416.287 106.515 409.876 106.601 401.972 106.601C394.068 106.601 387.657 106.515 387.657 106.412C387.657 106.308 394.06 106.222 401.972 106.222C409.884 106.222 416.287 106.308 416.287 106.412Z" fill="#263238"/>
<path d="M454.718 106.412C454.718 106.515 448.307 106.601 440.403 106.601C432.499 106.601 426.08 106.515 426.08 106.412C426.08 106.308 432.491 106.222 440.403 106.222C448.315 106.222 454.718 106.308 454.718 106.412Z" fill="#263238"/>
<path d="M488.101 110.967C488.101 110.967 488.343 110.967 488.783 110.846C489.425 110.691 490.001 110.338 490.431 109.837C490.74 109.498 490.97 109.094 491.104 108.655C491.218 108.087 491.253 107.506 491.208 106.929C491.13 105.73 491.492 104.168 490.405 103.029C489.879 102.448 489.15 102.09 488.369 102.028C487.506 102.028 486.643 102.028 485.78 102.028H479.947H466.53C465.978 102.033 465.437 102.188 464.965 102.477C464.494 102.766 464.111 103.177 463.855 103.668C463.613 104.157 463.5 104.701 463.527 105.247V106.972C463.486 107.509 463.521 108.05 463.631 108.577C463.761 109.076 464.02 109.531 464.382 109.897C464.733 110.258 465.169 110.525 465.65 110.674C466.138 110.792 466.642 110.836 467.143 110.803L478.049 110.846L485.409 110.907H487.402H487.929C487.986 110.896 488.044 110.896 488.101 110.907H487.929H487.402H485.409L478.049 110.967H467.143C466.606 111.003 466.068 110.953 465.547 110.821C465.007 110.656 464.518 110.36 464.123 109.958C463.512 109.332 463.166 108.494 463.156 107.619C463.156 107.343 463.156 107.059 463.156 106.757V105.031C463.135 104.434 463.262 103.841 463.527 103.305C463.817 102.755 464.249 102.293 464.779 101.968C465.309 101.643 465.917 101.467 466.539 101.459H479.896H485.729C486.643 101.459 487.506 101.459 488.377 101.459C489.235 101.529 490.03 101.932 490.595 102.58C491.127 103.152 491.434 103.897 491.458 104.677C491.458 105.376 491.458 106.04 491.458 106.653C491.492 107.232 491.445 107.813 491.32 108.379C491.183 108.856 490.938 109.296 490.604 109.664C490.148 110.168 489.543 110.513 488.878 110.648C488.639 110.797 488.376 110.905 488.101 110.967Z" fill="#263238"/>
<path d="M252.51 101.321H219.058C215.769 101.321 213.104 103.986 213.104 107.274C213.104 110.562 215.769 113.228 219.058 113.228H252.51C255.798 113.228 258.464 110.562 258.464 107.274C258.464 103.986 255.798 101.321 252.51 101.321Z" fill="#E0E0E0"/>
<path d="M281.294 140.813H214.475V205.457H281.294V140.813Z" fill="#404040"/>
<g opacity="0.3">
<path d="M219.662 199.927L238.144 166.655L253.269 187.924L262.45 176.63L276.118 199.927H219.662Z" fill="black"/>
</g>
<g opacity="0.3">
<path d="M259.706 160.184C259.707 161.137 259.426 162.069 258.898 162.862C258.369 163.655 257.617 164.274 256.737 164.639C255.857 165.005 254.888 165.101 253.954 164.915C253.019 164.73 252.16 164.271 251.486 163.597C250.812 162.923 250.354 162.065 250.168 161.13C249.983 160.195 250.079 159.226 250.444 158.346C250.81 157.466 251.428 156.714 252.221 156.186C253.014 155.657 253.946 155.376 254.899 155.378C256.173 155.38 257.395 155.887 258.295 156.788C259.196 157.689 259.703 158.91 259.706 160.184Z" fill="black"/>
</g>
<path opacity="0.3" d="M276.117 145.887L219.67 145.844L219.342 146.171V160.684C219.342 165.436 219.342 170.081 219.342 174.619C219.342 183.671 219.342 192.23 219.342 200.108V200.384H219.618L260.62 200.237L272.07 200.168H275.064H275.832H276.074C275.982 200.155 275.889 200.155 275.798 200.168H275.004H271.949L260.439 200.099L219.885 199.961C219.885 192.196 219.885 183.697 219.885 174.749V160.684C219.885 158.314 219.885 155.916 219.885 153.488V146.482L275.755 146.439C275.806 162.462 275.858 175.776 275.893 185.198C275.893 189.909 275.944 193.611 275.962 196.173C275.962 197.424 275.962 198.399 275.962 199.09C275.962 199.4 275.962 199.642 275.962 199.84C275.962 200.039 275.962 200.099 275.962 200.108C275.969 200.028 275.969 199.947 275.962 199.866C275.962 199.685 275.962 199.443 275.962 199.141C275.962 198.468 275.962 197.519 275.962 196.285C275.962 193.74 275.962 190.056 276.039 185.37C276.039 175.879 276.117 162.384 276.177 146.163V145.887H276.117Z" fill="black"/>
<path d="M272.925 215.389C272.925 215.51 261.708 215.613 247.833 215.613C233.958 215.613 222.759 215.51 222.759 215.389C222.759 215.268 233.976 215.165 247.85 215.165C261.725 215.165 272.925 215.259 272.925 215.389Z" fill="#263238"/>
<path d="M282.977 222.87C282.977 222.999 267.644 223.103 248.739 223.103C229.834 223.103 214.51 222.999 214.51 222.87C214.51 222.74 229.834 222.645 248.739 222.645C267.644 222.645 282.977 222.749 282.977 222.87Z" fill="#263238"/>
<path d="M282.977 230.126C282.977 230.247 267.644 230.351 248.739 230.351C229.834 230.351 214.51 230.247 214.51 230.126C214.51 230.005 229.834 229.902 248.739 229.902C267.644 229.902 282.977 229.997 282.977 230.126Z" fill="#263238"/>
<path d="M282.977 237.374C282.977 237.495 267.644 237.598 248.739 237.598C229.834 237.598 214.51 237.495 214.51 237.374C214.51 237.253 229.834 237.15 248.739 237.15C267.644 237.15 282.977 237.219 282.977 237.374Z" fill="#263238"/>
<path d="M242.768 244.622C242.768 244.743 236.435 244.846 228.635 244.846C220.835 244.846 214.51 244.743 214.51 244.622C214.51 244.501 220.835 244.398 228.635 244.398C236.435 244.398 242.768 244.493 242.768 244.622Z" fill="#263238"/>
<path d="M378.511 140.813H311.692V205.457H378.511V140.813Z" fill="#404040"/>
<g opacity="0.3">
<path d="M316.877 199.927L335.36 166.655L350.477 187.924L359.666 176.63L373.333 199.927H316.877Z" fill="black"/>
</g>
<g opacity="0.3">
<path d="M356.924 160.184C356.925 161.137 356.644 162.069 356.116 162.862C355.587 163.655 354.835 164.274 353.955 164.639C353.075 165.005 352.106 165.101 351.172 164.915C350.237 164.73 349.378 164.271 348.704 163.597C348.031 162.923 347.572 162.065 347.386 161.13C347.201 160.195 347.297 159.226 347.662 158.346C348.028 157.466 348.646 156.714 349.439 156.186C350.232 155.657 351.165 155.376 352.118 155.378C353.391 155.38 354.613 155.887 355.513 156.788C356.414 157.689 356.921 158.91 356.924 160.184Z" fill="black"/>
</g>
<path opacity="0.3" d="M373.334 145.887L316.887 145.844L316.559 146.171V160.684C316.559 165.436 316.559 170.081 316.559 174.619C316.559 183.671 316.559 192.23 316.559 200.108V200.384H316.835L357.838 200.237L369.288 200.168H372.282H373.05H373.291C373.2 200.155 373.107 200.155 373.015 200.168H372.221H369.167L357.656 200.099L317.103 199.961C317.103 192.196 317.103 183.697 317.103 174.749V160.684C317.103 158.314 317.103 155.916 317.103 153.488V146.482L372.972 146.439C373.024 162.462 373.075 175.776 373.11 185.198C373.11 189.909 373.162 193.611 373.179 196.173C373.179 197.424 373.179 198.399 373.179 199.09C373.179 199.4 373.179 199.642 373.179 199.84C373.179 200.039 373.179 200.099 373.179 200.108C373.187 200.028 373.187 199.947 373.179 199.866C373.179 199.685 373.179 199.443 373.179 199.141C373.179 198.468 373.179 197.519 373.179 196.285C373.179 193.74 373.222 190.056 373.257 185.37C373.257 175.879 373.334 162.384 373.395 146.163V145.887H373.334Z" fill="black"/>
<path d="M370.141 215.389C370.141 215.51 358.924 215.613 345.05 215.613C331.175 215.613 319.958 215.51 319.958 215.389C319.958 215.268 331.175 215.165 345.05 215.165C358.924 215.165 370.141 215.259 370.141 215.389Z" fill="#263238"/>
<path d="M380.193 222.87C380.193 222.999 364.861 223.103 345.956 223.103C327.051 223.103 311.727 222.999 311.727 222.87C311.727 222.74 327.051 222.645 345.956 222.645C364.861 222.645 380.193 222.749 380.193 222.87Z" fill="#263238"/>
<path d="M380.193 230.126C380.193 230.247 364.861 230.351 345.956 230.351C327.051 230.351 311.727 230.247 311.727 230.126C311.727 230.005 327.051 229.902 345.956 229.902C364.861 229.902 380.193 229.997 380.193 230.126Z" fill="#263238"/>
<path d="M380.193 237.374C380.193 237.495 364.861 237.598 345.956 237.598C327.051 237.598 311.727 237.495 311.727 237.374C311.727 237.253 327.051 237.15 345.956 237.15C364.861 237.15 380.193 237.219 380.193 237.374Z" fill="#263238"/>
<path d="M339.985 244.622C339.985 244.743 333.651 244.846 325.851 244.846C318.051 244.846 311.727 244.743 311.727 244.622C311.727 244.501 318.051 244.398 325.851 244.398C333.651 244.398 339.985 244.493 339.985 244.622Z" fill="#263238"/>
<path d="M473.925 140.813H407.106V205.457H473.925V140.813Z" fill="#404040"/>
<g opacity="0.3">
<path d="M412.283 199.927L430.774 166.655L445.891 187.924L455.08 176.63L468.748 199.927H412.283Z" fill="black"/>
</g>
<g opacity="0.3">
<path d="M452.328 160.184C452.328 161.135 452.046 162.064 451.518 162.854C450.99 163.644 450.239 164.26 449.361 164.624C448.483 164.988 447.517 165.083 446.584 164.898C445.652 164.712 444.796 164.255 444.124 163.582C443.452 162.91 442.994 162.054 442.808 161.122C442.623 160.189 442.718 159.223 443.082 158.345C443.446 157.467 444.062 156.716 444.852 156.188C445.642 155.66 446.572 155.378 447.522 155.378C448.797 155.378 450.019 155.884 450.921 156.786C451.822 157.687 452.328 158.909 452.328 160.184Z" fill="black"/>
</g>
<path opacity="0.3" d="M468.748 145.887L412.292 145.844L411.972 146.171V160.684C411.972 165.436 411.972 170.081 411.972 174.619C411.972 183.671 411.972 192.23 411.972 200.108V200.384H412.249L453.251 200.237L464.701 200.168H467.704H468.463H468.713C468.621 200.157 468.529 200.157 468.437 200.168H467.643H464.589L453.139 199.97L412.585 199.832C412.585 192.066 412.585 183.567 412.585 174.619C412.585 170.092 412.585 165.447 412.585 160.684V146.482L468.454 146.439C468.515 162.462 468.558 175.776 468.592 185.198C468.592 189.909 468.653 193.611 468.67 196.173C468.67 197.424 468.67 198.399 468.67 199.09C468.67 199.4 468.67 199.642 468.67 199.84C468.663 199.929 468.663 200.019 468.67 200.108C468.67 200.108 468.67 200.03 468.67 199.866C468.67 199.702 468.67 199.443 468.67 199.141C468.67 198.468 468.67 197.519 468.67 196.285C468.67 193.74 468.713 190.056 468.739 185.37C468.739 175.879 468.825 162.384 468.886 146.163V145.887H468.748Z" fill="black"/>
<path d="M465.546 215.389C465.546 215.51 454.329 215.613 440.463 215.613C426.597 215.613 415.372 215.51 415.372 215.389C415.372 215.268 426.589 215.165 440.463 215.165C454.338 215.165 465.546 215.259 465.546 215.389Z" fill="#263238"/>
<path d="M475.573 222.87C475.573 222.999 460.249 223.103 441.344 223.103C422.439 223.103 407.115 222.999 407.115 222.87C407.115 222.74 422.439 222.645 441.344 222.645C460.249 222.645 475.573 222.749 475.573 222.87Z" fill="#263238"/>
<path d="M475.573 230.126C475.573 230.247 460.249 230.351 441.344 230.351C422.439 230.351 407.115 230.247 407.115 230.126C407.115 230.005 422.439 229.902 441.344 229.902C460.249 229.902 475.573 229.997 475.573 230.126Z" fill="#263238"/>
<path d="M475.573 237.374C475.573 237.495 460.249 237.598 441.344 237.598C422.439 237.598 407.115 237.495 407.115 237.374C407.115 237.253 422.439 237.15 441.344 237.15C460.249 237.15 475.573 237.219 475.573 237.374Z" fill="#263238"/>
<path d="M435.389 244.622C435.389 244.743 429.065 244.846 421.265 244.846C413.465 244.846 407.14 244.743 407.14 244.622C407.14 244.501 413.456 244.398 421.265 244.398C429.073 244.398 435.389 244.493 435.389 244.622Z" fill="#263238"/>
<path d="M501.993 121.339C501.993 121.459 431.714 121.563 345.05 121.563C258.386 121.563 188.09 121.459 188.09 121.339C188.09 121.218 258.351 121.114 345.05 121.114C431.749 121.114 501.993 121.218 501.993 121.339Z" fill="#E0E0E0"/>
<path d="M187.822 76.2377L501.993 76.022H502.2V76.2377C502.2 134.575 502.2 198.684 502.2 265.857V266.107H501.976L187.805 266.055H187.632V265.883C187.736 149.7 187.805 77.6528 187.805 76.2377C187.805 77.6528 187.874 149.7 187.986 265.883L187.805 265.701L501.993 265.693L501.768 265.917C501.768 198.745 501.768 134.635 501.768 76.2981L501.976 76.5052L187.822 76.2377Z" fill="#263238"/>
<path d="M51.114 173.368H11.1815C10.5226 173.368 9.87008 173.238 9.2617 172.984C8.65331 172.731 8.10103 172.36 7.63667 171.893C7.1723 171.425 6.80503 170.87 6.556 170.26C6.30697 169.65 6.18111 168.997 6.18567 168.338V113.064C6.18567 111.739 6.71201 110.468 7.64892 109.531C8.58583 108.594 9.85655 108.068 11.1815 108.068H36.5061L56.1099 128.276V168.338C56.1145 168.997 55.9886 169.65 55.7396 170.26C55.4905 170.87 55.1233 171.425 54.6589 171.893C54.1945 172.36 53.6423 172.731 53.0339 172.984C52.4255 173.238 51.773 173.368 51.114 173.368Z" fill="#404040"/>
<g opacity="0.2">
<path d="M6.18555 153.523H56.1098V165.542C56.1098 167.602 55.2916 169.577 53.8353 171.033C52.379 172.49 50.4037 173.308 48.3442 173.308H14.0806C11.9912 173.308 9.98695 172.48 8.50708 171.005C7.02722 169.529 6.1924 167.528 6.18555 165.439V153.523Z" fill="black"/>
</g>
<g opacity="0.2">
<path d="M36.5068 108.068V123.599C36.5068 124.833 36.9968 126.015 37.869 126.888C38.7412 127.76 39.9241 128.25 41.1576 128.25H56.1107L36.5068 108.068Z" fill="white"/>
</g>
<g opacity="0.2">
<path d="M36.7128 124.988C36.7128 124.988 36.5144 128.759 40.8114 130.001C40.9723 130.051 41.1367 130.089 41.3032 130.114C43.2532 130.459 56.1096 132.754 56.1096 132.452V128.276H41.1565C41.1565 128.276 37.4204 128.146 36.7128 124.988Z" fill="black"/>
</g>
<path d="M20.4828 162.151C20.5601 161.329 20.8717 160.546 21.3807 159.896C21.8897 159.245 22.5746 158.755 23.3541 158.482C24.1337 158.21 24.9751 158.167 25.7784 158.358C26.5817 158.55 27.3132 158.968 27.886 159.562L26.7384 160.624C26.499 160.338 26.1993 160.108 25.8606 159.951C25.522 159.795 25.1529 159.715 24.7798 159.718C24.1207 159.718 23.4886 159.98 23.0226 160.446C22.5566 160.912 22.2948 161.544 22.2948 162.203C22.2948 162.862 22.5566 163.494 23.0226 163.96C23.4886 164.426 24.1207 164.688 24.7798 164.688C25.1547 164.692 25.5257 164.611 25.8649 164.451C26.2041 164.291 26.5028 164.056 26.7384 163.765L27.886 164.834C27.3155 165.452 26.5753 165.888 25.7582 166.087C24.9411 166.285 24.0836 166.239 23.293 165.952C22.5024 165.665 21.8141 165.152 21.3141 164.476C20.8142 163.8 20.525 162.991 20.4828 162.151Z" fill="#FAFAFA"/>
<path d="M28.4207 165.275L29.0246 163.92C29.7841 164.449 30.6877 164.732 31.6132 164.731C32.6831 164.731 33.1145 164.377 33.1145 163.868C33.1145 162.41 28.6019 163.411 28.6019 160.529C28.6019 159.209 29.6631 158.113 31.872 158.113C32.8143 158.094 33.7443 158.33 34.5641 158.795L34.0119 160.158C33.3588 159.777 32.6193 159.569 31.8634 159.554C30.7935 159.554 30.3879 159.951 30.3879 160.417C30.3879 161.841 34.9006 160.857 34.9006 163.704C34.9006 165.007 33.8221 166.112 31.6046 166.112C30.4826 166.166 29.3711 165.873 28.4207 165.275Z" fill="#FAFAFA"/>
<path d="M35.522 165.275L36.1346 163.92C36.8941 164.449 37.7976 164.732 38.7231 164.731C39.7931 164.731 40.2245 164.377 40.2245 163.868C40.2245 162.41 35.7032 163.411 35.7032 160.529C35.7032 159.209 36.7731 158.113 38.982 158.113C39.9242 158.095 40.8539 158.331 41.6741 158.795L41.1218 160.158C40.466 159.776 39.7235 159.568 38.9647 159.554C37.9034 159.554 37.4893 159.951 37.4893 160.417C37.4893 161.84 42.0106 160.857 42.0106 163.704C42.0106 165.007 40.932 166.112 38.7145 166.112C37.5899 166.164 36.4762 165.872 35.522 165.275Z" fill="#FAFAFA"/>
<path d="M23.011 137.034C23.8738 137.284 24.2103 137.793 24.2103 139.027V141.883C24.1923 142.058 24.2138 142.234 24.2732 142.399C24.3326 142.565 24.4284 142.715 24.5534 142.838C24.6785 142.961 24.8296 143.055 24.9957 143.112C25.1619 143.17 25.3387 143.189 25.5132 143.168H25.8325V145.343H24.797C22.5709 145.343 21.4233 144.204 21.4233 142.15V138.923C21.4233 138.354 21.1213 138.06 20.6468 138.06H20.0514V135.877H20.6468C21.1213 135.877 21.4233 135.61 21.4233 135.015V131.787C21.4233 129.734 22.5709 128.595 24.797 128.595H25.8325V130.769H25.5132C25.3355 130.748 25.1552 130.768 24.9862 130.827C24.8172 130.886 24.664 130.983 24.5383 131.11C24.4125 131.238 24.3176 131.392 24.2608 131.562C24.2039 131.732 24.1867 131.912 24.2103 132.089V134.946C24.2103 136.266 23.8393 136.783 23.011 137.034Z" fill="#FAFAFA"/>
<path d="M42.2433 135.938V138.121H41.6566C41.5441 138.111 41.4309 138.127 41.3258 138.168C41.2206 138.21 41.1264 138.274 41.0504 138.358C40.9744 138.441 40.9187 138.541 40.8877 138.65C40.8566 138.758 40.8511 138.873 40.8714 138.984V142.211C40.8714 144.264 39.7325 145.403 37.4977 145.403H36.4623V143.169H36.7902C36.966 143.192 37.1448 143.175 37.3131 143.119C37.4814 143.063 37.6349 142.97 37.7619 142.846C37.889 142.722 37.9864 142.571 38.0467 142.404C38.107 142.238 38.1288 142.059 38.1103 141.883V139.027C38.1103 137.793 38.4813 137.301 39.301 137.034C38.4382 136.784 38.1103 136.266 38.1103 135.032V132.176C38.134 131.998 38.1167 131.818 38.0599 131.648C38.003 131.478 37.9081 131.324 37.7823 131.197C37.6566 131.069 37.5034 130.972 37.3344 130.913C37.1654 130.854 36.9852 130.834 36.8074 130.856H36.4795V128.681H37.515C39.7497 128.681 40.8887 129.82 40.8887 131.874V135.101C40.8683 135.212 40.8739 135.326 40.9049 135.435C40.936 135.543 40.9917 135.643 41.0676 135.727C41.1436 135.81 41.2379 135.875 41.343 135.916C41.4482 135.957 41.5614 135.974 41.6739 135.964L42.2433 135.938Z" fill="#FAFAFA"/>
<path d="M82.3148 186.13C82.0304 186.182 81.7409 186.202 81.452 186.19L79.0101 186.233L70.1659 186.311H70.0365V186.121C70.0365 181.229 70.0365 175.146 70.0365 168.553C70.0365 164.455 70.0365 160.546 70.0365 156.983C70.0365 155.214 70.0365 153.531 70.0365 151.935C70.068 151.58 70.0157 151.222 69.8838 150.891C69.7519 150.56 69.5442 150.264 69.2772 150.028C69.0217 149.814 68.726 149.653 68.4073 149.556C68.0887 149.458 67.7537 149.425 67.4221 149.459L61.0543 149.39L59.3286 149.347C59.128 149.371 58.9252 149.371 58.7246 149.347C58.9235 149.308 59.1263 149.294 59.3286 149.303H61.0543L67.4221 149.234C67.7934 149.193 68.1693 149.225 68.5278 149.331C68.8863 149.436 69.2203 149.611 69.5102 149.847C69.8093 150.12 70.0424 150.458 70.1919 150.835C70.3414 151.212 70.4033 151.617 70.373 152.021C70.373 153.609 70.373 155.3 70.373 157.069C70.373 160.633 70.373 164.541 70.373 168.64C70.373 175.232 70.373 181.315 70.373 186.207L70.1918 186.026L79.036 186.104L81.4778 186.156C81.7558 186.126 82.0356 186.117 82.3148 186.13Z" fill="#263238"/>
<path d="M58.0079 222.412C58.1681 222.388 58.331 222.388 58.4911 222.412L59.8717 222.369L64.9625 222.3C66.0324 222.231 67.2663 222.481 68.3103 221.851C68.8648 221.528 69.3138 221.052 69.6032 220.479C69.8926 219.906 70.01 219.262 69.9411 218.624C69.9411 215.777 69.9411 212.653 69.9411 209.383C69.9411 202.851 69.9929 196.941 70.0101 192.592C70.0101 190.487 70.0619 188.761 70.0791 187.501C70.0791 186.941 70.0791 186.483 70.0791 186.121C70.0662 185.96 70.0662 185.798 70.0791 185.638C70.1186 185.796 70.136 185.958 70.1309 186.121C70.1309 186.483 70.1309 186.941 70.1309 187.501C70.1309 188.761 70.1309 190.487 70.1999 192.592C70.1999 196.906 70.2431 202.851 70.2603 209.383C70.2603 212.653 70.2603 215.777 70.2603 218.624C70.2756 218.988 70.2525 219.353 70.1913 219.711C70.1239 220.065 70.0016 220.405 69.8289 220.721C69.5156 221.312 69.0435 221.804 68.4656 222.141C67.8878 222.478 67.2274 222.646 66.5587 222.628H64.833L59.7423 222.559L58.3617 222.516C58.2402 222.495 58.1215 222.46 58.0079 222.412Z" fill="#263238"/>
<path d="M85.8353 186.129C85.8353 186.471 85.7341 186.804 85.5445 187.088C85.3548 187.372 85.0853 187.593 84.77 187.724C84.4547 187.854 84.1077 187.889 83.7729 187.822C83.4382 187.755 83.1307 187.591 82.8894 187.35C82.648 187.108 82.4837 186.801 82.4171 186.466C82.3505 186.131 82.3847 185.784 82.5153 185.469C82.6459 185.154 82.8671 184.884 83.1509 184.695C83.4347 184.505 83.7683 184.404 84.1096 184.404C84.5673 184.404 85.0062 184.586 85.3299 184.909C85.6535 185.233 85.8353 185.672 85.8353 186.129Z" fill="#263238"/>
<path d="M50.9842 254.018H12.3115C11.0277 254.018 9.79649 253.508 8.88871 252.601C7.98093 251.693 7.47095 250.462 7.47095 249.178V195.681C7.47095 194.398 7.98093 193.166 8.88871 192.259C9.79649 191.351 11.0277 190.841 12.3115 190.841H36.8336L55.8162 210.41V249.238C55.8003 250.51 55.2845 251.724 54.3803 252.619C53.4761 253.514 52.2562 254.016 50.9842 254.018Z" fill="#404040"/>
<g opacity="0.2">
<path d="M7.47119 234.837H55.7905V246.917C55.7905 248.796 55.0442 250.598 53.7157 251.926C52.3872 253.255 50.5854 254.001 48.7066 254.001H14.4516C12.6003 254.001 10.8248 253.266 9.51571 251.956C8.20662 250.647 7.47119 248.872 7.47119 247.021V234.837Z" fill="black"/>
</g>
<path d="M24.6071 247.21L25.8237 245.752C26.0055 246.052 26.2577 246.303 26.5584 246.483C26.8591 246.664 27.1992 246.768 27.5494 246.788C28.4122 246.788 28.8954 246.261 28.8954 245.226V240.722H25.5907V238.996H31.0957V245.131C31.0957 247.469 29.9136 248.625 27.6874 248.625C27.0997 248.642 26.5161 248.523 25.9818 248.278C25.4475 248.033 24.9771 247.667 24.6071 247.21Z" fill="#FAFAFA"/>
<path d="M32.3989 247.745L33.1065 246.235C33.8697 246.696 34.7434 246.94 35.6346 246.943C36.6096 246.943 36.972 246.684 36.972 246.278C36.972 245.088 32.5801 246.278 32.5801 243.397C32.5801 242.016 33.8226 241.041 35.9452 241.041C36.9151 241.024 37.8747 241.243 38.7408 241.68L38.0419 243.181C37.403 242.818 36.6798 242.631 35.9452 242.637C34.9961 242.637 34.5906 242.939 34.5906 243.319C34.5906 244.561 38.9824 243.319 38.9824 246.218C38.9824 247.573 37.7313 248.53 35.5311 248.53C34.4362 248.548 33.3561 248.277 32.3989 247.745Z" fill="#FAFAFA"/>
<path d="M17.7133 224.768L19.2319 222.99C19.6355 223.641 20.1966 224.178 20.8632 224.554C21.5299 224.929 22.2805 225.131 23.0456 225.139C25.1078 225.139 26.1864 223.879 26.1864 221.429V211.178H19.5684V208.9H28.7663V221.325C28.7663 225.398 26.7818 227.408 23.0456 227.408C22.0091 227.435 20.9818 227.208 20.0526 226.748C19.1234 226.288 18.3204 225.608 17.7133 224.768Z" fill="#FAFAFA"/>
<path d="M31.9844 225.734L33.037 223.75C34.482 224.692 36.17 225.192 37.8949 225.191C40.2245 225.191 41.1909 224.483 41.1909 223.31C41.1909 220.195 32.4331 222.887 32.4331 217.373C32.4331 214.888 34.6506 213.214 38.2055 213.214C39.9809 213.179 41.7342 213.614 43.2877 214.474L42.2177 216.459C41.0192 215.71 39.6271 215.329 38.2141 215.363C36.0225 215.363 34.9526 216.174 34.9526 217.27C34.9526 220.54 43.7363 217.874 43.7363 223.258C43.7363 225.769 41.4325 227.356 37.7482 227.356C35.706 227.42 33.6937 226.854 31.9844 225.734Z" fill="#FAFAFA"/>
<g opacity="0.3">
<path d="M36.8337 190.806V205.871C36.8337 207.066 37.3083 208.212 38.153 209.056C38.9976 209.901 40.1432 210.376 41.3378 210.376H55.825L36.8337 190.806Z" fill="white"/>
</g>
<g opacity="0.2">
<path d="M37.033 207.192C37.0417 208.333 37.44 209.436 38.1619 210.32C38.8838 211.203 39.8858 211.813 41.002 212.049L41.4766 212.162C43.3662 212.498 55.8257 214.75 55.8257 214.422V210.376H41.3386C41.3386 210.376 37.7232 210.255 37.033 207.192Z" fill="black"/>
</g>
</svg>
