<svg width="279" height="259" viewBox="0 0 279 259" fill="none" xmlns="http://www.w3.org/2000/svg">
<path d="M69.6967 148.24L94.5193 258.712L208.134 199.227L69.6967 148.24Z" fill="#7A6A67"/>
<path d="M187.13 56.652L69.6967 148.24L208.134 199.227L187.13 56.652Z" fill="#96837E"/>
<path d="M56.3299 26.4379L69.6967 148.24L187.13 56.652L56.3299 26.4379Z" fill="#AE9B94"/>
<path d="M187.13 0V56.652L56.3299 26.4379L187.13 0Z" fill="#D2B9AF"/>
<path d="M0 152.961L69.6967 148.24L56.3299 26.4379L0 152.961Z" fill="#D2B9AF"/>
<path d="M225.319 238.884L208.134 199.227L94.5193 258.712L225.319 238.884Z" fill="#635753"/>
<path d="M94.5193 258.712L0 152.961L69.6967 148.24L94.5193 258.712Z" fill="#AE9A94"/>
<path d="M187.13 56.652L278.785 111.416L208.134 199.227L187.13 56.652Z" fill="#7A6A67"/>
<path d="M187.13 0V56.652L278.785 111.416L187.13 0Z" fill="#96827F"/>
<path d="M208.134 199.227L225.319 238.884L278.785 111.416L208.134 199.227Z" fill="#725F5B"/>
</svg>
