<svg width="145" height="97" viewBox="0 0 145 97" fill="none" xmlns="http://www.w3.org/2000/svg">
<path d="M68.2305 13.0401C68.2081 12.972 68.1461 12.8726 68.1706 12.8427C68.2397 12.7585 68.3436 12.7018 68.4339 12.6345C68.4565 12.7021 68.5183 12.8019 68.4941 12.8314C68.4247 12.916 68.321 12.9723 68.2305 13.0401ZM142.183 71.8774C142.156 71.7962 142.133 71.7285 142.111 71.6609C142.224 71.6609 142.34 71.6435 142.447 71.6706C142.484 71.6797 142.494 71.7964 142.516 71.8643C142.404 71.8685 142.291 71.873 142.183 71.8774ZM128.509 78.5424C128.577 78.52 128.677 78.4584 128.706 78.4827C128.791 78.5517 128.847 78.6555 128.915 78.7458C128.847 78.7681 128.747 78.8301 128.718 78.8058C128.634 78.7373 128.577 78.633 128.509 78.5424ZM113.084 84.0017C113.151 83.9794 113.251 83.9178 113.281 83.9421C113.366 84.0112 113.422 84.1149 113.489 84.2052C113.421 84.2279 113.322 84.2891 113.292 84.2652C113.207 84.1958 113.151 84.0925 113.084 84.0017ZM112.143 83.2032C112.115 83.1214 112.092 83.0537 112.071 82.9863C112.183 82.9861 112.3 82.9697 112.407 82.9963C112.444 83.0054 112.454 83.1221 112.476 83.1892C112.364 83.1943 112.251 83.1988 112.143 83.2032ZM109.429 86.2292C109.497 86.207 109.597 86.1453 109.626 86.1692C109.71 86.2381 109.767 86.3424 109.835 86.4326C109.767 86.455 109.668 86.5166 109.638 86.4927C109.553 86.4233 109.497 86.3195 109.429 86.2292ZM104.344 84.8749C104.283 84.7852 104.22 84.6928 104.157 84.5998C104.224 84.5774 104.324 84.5159 104.353 84.5401C104.438 84.6086 104.494 84.7129 104.562 84.8032C104.494 84.826 104.427 84.8482 104.344 84.8749ZM92.928 69.3993C92.847 69.4265 92.7792 69.4488 92.7114 69.4712C92.7114 69.3585 92.6948 69.2413 92.7211 69.1351C92.7302 69.0981 92.8471 69.0878 92.9149 69.0655C92.919 69.1781 92.9232 69.2906 92.928 69.3993ZM98.4706 28.7865C98.4972 28.8677 98.5198 28.9354 98.5425 29.003C98.4295 29.0027 98.3131 29.02 98.2068 28.9929C98.1696 28.9838 98.1594 28.8672 98.1368 28.7996C98.2495 28.7951 98.3622 28.7905 98.4706 28.7865ZM98.9393 24.8146C98.8777 24.7253 98.814 24.6323 98.7502 24.5393C98.8179 24.517 98.9175 24.4554 98.9471 24.4797C99.0323 24.5487 99.0891 24.653 99.1559 24.7428C99.0881 24.7651 99.0212 24.7884 98.9393 24.8146ZM93.7871 30.2438C93.705 30.2705 93.6373 30.2928 93.5706 30.3156C93.5705 30.203 93.5536 30.0863 93.58 29.98C93.5893 29.9427 93.706 29.9328 93.7738 29.9105C93.7782 30.0226 93.7823 30.1351 93.7871 30.2438ZM69.9774 18.3031C70.0674 18.2419 70.16 18.1779 70.2536 18.1149C70.2751 18.182 70.337 18.2815 70.3127 18.3113C70.2444 18.3965 70.1396 18.4522 70.0504 18.5201C70.0277 18.4524 70.0051 18.3848 69.9774 18.3031ZM35.9912 69.3734C35.9298 69.2837 35.8671 69.1912 35.8033 69.0982C35.8711 69.0759 35.9707 69.0143 36.0002 69.0386C36.0844 69.1072 36.1412 69.2114 36.209 69.3017C36.1411 69.3244 36.0733 69.3467 35.9912 69.3734ZM31.4104 70.121C31.3838 70.0398 31.3612 69.9721 31.3385 69.9046C31.4515 69.9049 31.5679 69.8875 31.6745 69.9142C31.7116 69.9234 31.7216 70.0404 31.7442 70.1081C31.6315 70.1126 31.519 70.1166 31.4104 70.121ZM29.7909 67.2787C29.7643 67.1975 29.7417 67.1298 29.719 67.0622C29.832 67.0625 29.9484 67.0452 30.0549 67.0719C30.0921 67.0809 30.1021 67.198 30.1247 67.2656C30.012 67.2701 29.8995 67.2743 29.7909 67.2787ZM54.3303 14.9502C54.3981 14.9279 54.4976 14.8664 54.5272 14.8906C54.6125 14.9596 54.6682 15.0634 54.736 15.1537C54.6681 15.1764 54.5685 15.238 54.539 15.2137C54.4548 15.1452 54.3979 15.041 54.3303 14.9502ZM26.7642 66.0149C26.8463 65.9882 26.9132 65.9649 26.981 65.9426C26.9808 66.0557 26.9976 66.1725 26.9713 66.2787C26.9622 66.3157 26.8453 66.326 26.7775 66.3483C26.7734 66.2357 26.769 66.1236 26.7642 66.0149ZM25.9672 65.9419C25.9446 65.8743 25.8829 65.7744 25.9071 65.7449C25.9764 65.6604 26.0801 65.604 26.1707 65.5363C26.1933 65.6039 26.2539 65.7033 26.2298 65.7326C26.1615 65.8178 26.0575 65.8746 25.9672 65.9419ZM53.8172 9.03712C53.898 9.0103 53.9659 8.98755 54.0337 8.96523C54.0338 9.07786 54.0504 9.19504 54.0241 9.30128C54.0149 9.33832 53.898 9.3485 53.8303 9.37082C53.8261 9.25829 53.8207 9.14566 53.8172 9.03712ZM25.1558 65.535C25.1332 65.4674 25.0715 65.3675 25.0957 65.338C25.1651 65.2535 25.2688 65.1971 25.3593 65.1293C25.3819 65.197 25.4436 65.2969 25.4195 65.3263C25.3501 65.4109 25.2461 65.4677 25.1558 65.535ZM46.4427 5.739C46.504 5.82877 46.568 5.92133 46.6318 6.01433C46.5641 6.03665 46.4645 6.09822 46.4347 6.07439C46.3497 6.00495 46.294 5.90119 46.2261 5.81088C46.2939 5.78856 46.3617 5.76625 46.4427 5.739ZM42.3983 7.51688C42.4882 7.45573 42.5807 7.3921 42.6734 7.32814C42.6961 7.39579 42.7577 7.49568 42.7336 7.52504C42.6653 7.61024 42.5605 7.66611 42.471 7.73437C42.4486 7.66629 42.426 7.59864 42.3983 7.51688ZM41.1382 7.49987C41.0766 7.41064 41.0128 7.31764 40.9501 7.22507C41.0167 7.20233 41.1164 7.14064 41.1461 7.16458C41.2311 7.23402 41.2879 7.33833 41.3547 7.42799C41.287 7.45031 41.2203 7.47315 41.1382 7.49987ZM37.8185 7.25015C37.7374 7.2774 37.6697 7.29972 37.6017 7.32247C37.6019 7.20941 37.5851 7.09256 37.6114 6.98643C37.6207 6.94897 37.7374 6.93909 37.8052 6.91678C37.8093 7.02941 37.8137 7.1415 37.8185 7.25015ZM35.5734 7.32002C35.5508 7.25237 35.4891 7.15249 35.5133 7.12312C35.5827 7.03847 35.6863 6.98206 35.7768 6.91444C35.7984 6.98144 35.8601 7.08132 35.8359 7.1108C35.7676 7.19599 35.6637 7.25272 35.5734 7.32002ZM73.1188 18.9406C72.8813 18.8609 72.6761 18.819 72.5051 18.7195C72.4508 18.6881 72.4855 18.5035 72.4794 18.3895C72.6791 18.4317 72.888 18.4529 73.0736 18.5313C73.1227 18.5516 73.0998 18.7448 73.1188 18.9406ZM34.2143 70.1183C34.1136 69.9433 34.0442 69.8238 33.976 69.7048C34.1778 69.7213 34.3928 69.7008 34.5755 69.7687C34.6753 69.8061 34.7191 69.9928 34.7873 70.1117C34.5857 70.1136 34.3849 70.1166 34.2143 70.1183ZM47.1654 5.82052C47.3771 5.79579 47.5526 5.71966 47.6412 5.77673C47.805 5.88245 47.9181 6.06767 48.0523 6.21912C47.9151 6.23489 47.7479 6.3078 47.6493 6.2547C47.4775 6.16222 47.3487 5.99194 47.1654 5.82052ZM45.5406 8.05065C45.751 8.02571 45.9268 7.94915 46.0152 8.00665C46.1789 8.11248 46.2923 8.29716 46.4263 8.44904C46.289 8.46492 46.1229 8.53836 46.0232 8.48462C45.8525 8.39278 45.7227 8.22185 45.5406 8.05065ZM37.2696 70.6995C37.0244 70.415 36.9356 70.3126 36.8482 70.2103C37.0091 70.1795 37.1795 70.103 37.327 70.1338C37.432 70.1554 37.5073 70.322 37.595 70.4239C37.4615 70.5369 37.3283 70.6495 37.2696 70.6995ZM83.2045 17.9714C83.3049 18.1096 83.4236 18.2728 83.5418 18.4346C83.4057 18.451 83.2299 18.5276 83.1403 18.4699C82.9776 18.3647 82.8644 18.1795 82.7305 18.0277C82.8666 18.0113 83.0038 17.9955 83.2045 17.9714ZM28.5331 3.6857C28.7003 3.58329 28.8426 3.44995 28.8883 3.47703C29.0621 3.579 29.2039 3.73378 29.3572 3.86856C29.262 3.9323 29.1339 4.06954 29.0762 4.04481C28.8945 3.96686 28.738 3.82776 28.5331 3.6857ZM43.3391 7.5584C43.5062 7.45599 43.6485 7.32264 43.6941 7.34983C43.868 7.45168 44.0088 7.60594 44.1631 7.74126C44.067 7.80403 43.9398 7.94223 43.8822 7.9175C43.7004 7.83954 43.5428 7.70002 43.3391 7.5584ZM105.351 94.5685C105.43 94.3308 105.471 94.1266 105.571 93.9555C105.602 93.9011 105.787 93.9355 105.901 93.9298C105.859 94.1296 105.838 94.3382 105.76 94.5233C105.739 94.5729 105.546 94.5501 105.351 94.5685ZM105.361 85.4386C105.441 85.2014 105.483 84.9967 105.582 84.8261C105.614 84.7717 105.798 84.8061 105.912 84.7995C105.87 84.9996 105.849 85.2083 105.771 85.3933C105.75 85.4429 105.558 85.4207 105.361 85.4386ZM92.0986 29.1744C91.8533 28.89 91.7649 28.7872 91.6772 28.6854C91.8381 28.6546 92.0074 28.5774 92.1562 28.6083C92.2609 28.6304 92.3352 28.7966 92.4239 28.8989C92.2905 29.0119 92.1573 29.1244 92.0986 29.1744ZM78.4369 17.0613C78.3934 16.9868 78.2706 16.8154 78.2862 16.8005C78.4721 16.6365 78.6629 16.4414 78.887 16.3785C78.973 16.3548 79.1477 16.6508 79.2812 16.8009C79.0055 16.8861 78.73 16.971 78.4369 17.0613ZM27.8852 67.0048C27.7903 66.8209 27.6864 66.6199 27.5822 66.4194C27.7843 66.4623 28.0212 66.4544 28.1788 66.5618C28.3594 66.685 28.4695 66.9112 28.6104 67.0923C28.4059 67.0676 28.2015 67.0429 27.8852 67.0048ZM52.6403 8.07546C52.3541 8.17073 52.078 8.26214 51.8029 8.35409C51.8188 8.15319 51.7778 7.81331 51.8622 7.77938C52.0758 7.69189 52.3468 7.73152 52.5919 7.75023C52.6166 7.75209 52.625 7.96357 52.6403 8.07546ZM77.7303 19.8345C77.639 19.7639 77.3596 19.5476 77.079 19.331C77.5485 18.8837 77.8115 19.479 78.1729 19.564C78.4551 19.6298 78.7131 19.8108 78.9711 19.957C79.0194 19.9843 79.062 20.1329 79.0384 20.1558C78.9569 20.235 78.8193 20.3564 78.7512 20.3311C78.474 20.2285 78.2134 20.0768 77.7303 19.8345ZM80.8577 20.943C80.5513 20.7321 80.1359 20.4459 79.7206 20.1597C80.3489 19.801 80.7289 20.3913 81.1983 20.5805C81.66 20.7663 82.0606 21.1007 82.4883 21.3704C81.8601 21.7262 81.5078 21.0644 80.8577 20.943ZM74.3837 19.2971C74.1182 19.0182 73.9762 18.8692 73.8341 18.7201C74.0637 18.7215 74.338 18.8055 74.5153 18.7098C75.1698 18.3609 75.6299 18.7994 76.1373 19.0445C76.2503 19.0984 76.319 19.2435 76.4088 19.3463C76.2448 19.3752 76.0795 19.4363 75.9174 19.4266C75.3734 19.3941 74.83 19.3363 74.3837 19.2971ZM28.3472 69.7117C28.1068 69.5438 27.9254 69.4302 27.7672 69.2892C27.7467 69.271 27.8738 69.0256 27.8953 69.031C28.7721 69.2592 29.6476 69.4952 30.5145 69.7591C30.6128 69.7888 30.659 69.9867 30.7296 70.1063C30.5913 70.1216 30.4458 70.1728 30.3163 70.1463C29.6371 70.0076 28.9611 69.8491 28.3472 69.7117ZM28.9513 64.9007C28.6026 64.7258 28.4586 64.672 28.3361 64.5885C28.0669 64.4056 27.5381 64.394 27.7845 63.8409C28.0268 63.296 28.3804 63.6007 28.6873 63.7566C30.8147 64.8398 33.0597 65.3313 35.4485 65.1762C35.6113 65.1658 35.7892 65.3856 35.9593 65.4977C35.814 65.602 35.6769 65.7816 35.521 65.7997C33.1705 66.077 30.9174 65.6689 28.9513 64.9007ZM32.6058 3.34444C32.5593 3.16855 32.4938 2.95011 32.5034 2.94699C32.9971 2.77638 33.489 2.52589 33.9972 2.48461C37.5349 2.19503 41.2799 2.0346 44.8743 2.50462C46.0571 2.65969 47.1562 3.10776 48.3838 3.15468C49.5646 3.20089 50.4239 4.61601 51.8288 4.37371C51.8616 4.3675 52.0034 4.7721 52.0178 4.99037C52.0235 5.07049 51.7497 5.26732 51.7038 5.24056C49.4816 3.93308 46.9021 3.9178 44.4952 3.41616C40.7893 2.64494 36.9769 2.6579 33.2107 3.36541C33.0116 3.40275 32.7955 3.35285 32.6058 3.34444ZM26.2678 44.1171C27.4548 42.5855 28.5606 40.9794 29.8665 39.5569C30.3945 38.9821 30.798 38.3012 31.3801 37.793C31.9627 37.2865 32.5269 36.7067 33.1064 36.2735C34.2919 35.3839 34.9143 33.8528 36.4418 33.3957C38.659 31.3271 41.3037 29.8372 43.7316 28.0547C45.0985 27.0505 46.649 26.2898 48.1399 25.4625C50.3276 24.2502 52.8324 23.7778 55.015 22.5275C55.5571 22.2171 56.2873 22.2487 56.9197 22.0808C57.8551 21.8323 58.7888 21.5684 59.707 21.2628C59.9769 21.173 59.2979 20.3975 59.9591 20.6096C61.0634 20.9641 62.1726 21.5103 62.6326 22.6958C63.3503 24.5488 64.5572 26.1946 64.847 28.2349C65.0219 29.4626 65.4196 30.6568 65.6908 31.8723C66.2681 34.4565 65.8949 37.0644 65.7254 39.6472C65.6844 40.2795 65.5211 41.0535 65.2568 41.7094C64.9737 42.4082 64.575 43.0583 64.2567 43.744C63.9137 44.4816 63.3674 45.2298 63.3501 45.984C63.3329 46.6924 62.0817 46.8214 62.7338 47.6508C61.2884 48.5241 60.7479 50.1953 59.5013 51.2794C58.3425 52.2874 57.105 53.2324 56.0324 54.3106C52.5462 57.8167 48.2524 59.9897 43.8582 62.0141C41.6356 63.0383 39.1921 63.4449 36.8067 63.6253C33.9825 63.8376 31.1049 63.5818 28.5284 62.132C27.9195 61.7886 27.4651 61.1694 26.8553 60.8251C24.9651 59.7578 24.0162 57.9414 23.4408 56.0542C23.0261 54.6952 23.1539 53.1164 23.298 51.6609C23.4025 50.6121 23.9191 49.6008 24.2747 48.5802C24.53 47.8455 25.2249 47.2413 24.9258 46.3448C26.0165 46.0711 25.8631 44.8974 26.2678 44.1171ZM87.421 16.0031C89.7709 17.3811 92.0102 18.5902 94.1239 19.988C94.8915 20.4956 95.513 21.2408 96.4041 21.6151C96.4641 21.6404 96.45 22.0606 96.3427 22.1966C96.2566 22.3066 95.8225 22.3235 95.8068 22.2825C95.2796 20.8817 93.6311 20.9894 92.7298 19.9454C91.9085 18.9943 90.425 18.6118 89.2272 17.9901C88.4226 17.5723 87.6288 17.1195 86.7899 16.7835C85.9268 16.437 84.9948 16.2652 84.1297 15.925C82.5235 15.293 80.8775 14.821 79.1896 14.4727C77.055 14.0325 74.9541 13.4229 72.7633 13.2743C71.8571 13.2123 70.9579 13.0611 70.0573 12.934C69.9153 12.9138 69.7866 12.8052 69.651 12.7372C69.7561 12.6458 69.8738 12.4649 69.9663 12.4765C71.6483 12.6914 73.3706 11.9802 74.9977 12.5141C76.7672 13.0944 78.5872 13.2543 80.3934 13.5494C80.7357 13.6052 81.1298 13.472 81.4352 13.5909C83.495 14.3925 85.5368 15.2381 69.1604 12.7863C69.2631 12.7399 69.366 12.6932 69.4703 12.6465C69.5001 12.7373 69.5303 12.8276 69.5602 12.9184C69.4493 12.9406 69.338 12.972 69.2257 12.9758C69.2066 12.9762 69.1842 12.8571 87.421 16.0031ZM40.1575 4.83912C40.2603 4.79273 40.3634 4.7456 40.4674 4.69931C40.4975 4.78969 40.5273 4.88049 40.5575 4.97076C40.4467 4.99302 40.335 5.02497 40.223 5.02817C40.2037 5.02901 40.1813 4.90989 40.8289 4.88063C40.7687 4.85041 40.7084 4.82019 40.6482 4.78997C40.7385 4.70383 40.818 4.59637 40.9249 4.54428C40.9569 4.52881 41.0641 4.66675 41.1367 4.73413C41.0341 4.78311 40.9316 4.83166 40.1575 4.83912ZM55.1005 6.92136C55.0539 6.81815 55.0074 6.71483 54.9598 6.61098C55.0504 6.58072 55.1408 6.55079 55.2313 6.52085C55.2536 6.63211 55.2854 6.74326 55.2898 6.85536C55.2897 6.87431 55.1703 6.89754 55.0505 6.4302C54.916 6.36274 54.7804 6.29474 53.7239 5.99801C53.9268 6.01236 54.1194 5.98007 54.2606 6.05034C54.3865 6.11348 54.5596 6.36974 54.5335 6.40298C54.3919 6.58607 54.1951 6.72613 54.0174 6.88172C53.9284 6.6134 53.8404 6.34572 54.6459 6.22728C54.7463 6.13717 54.8467 6.04706 54.948 5.95792C54.9823 6.11506 55.0164 6.27262 55.1005 6.92136ZM102.678 90.161C102.631 90.0582 102.585 89.9545 102.537 89.8506C102.628 89.8208 102.718 89.7904 102.809 89.7605C102.831 89.8717 102.863 89.9829 102.867 90.0954C102.867 90.1144 102.748 90.1372 102.719 89.4891C102.688 89.5492 102.658 89.6098 102.628 89.6698C102.542 89.5801 102.434 89.4998 102.383 89.3933C102.366 89.3614 102.505 89.2543 102.573 89.1813C102.622 89.2844 102.67 89.3866 102.678 90.161ZM73.4971 20.2486C74.0784 19.5623 74.4397 20.4073 74.9163 20.4533C75.1537 20.4392 77.6803 20.882 77.91 20.9341C81.4605 21.7441 84.4267 23.8482 87.6626 25.3527C88.4914 25.7383 89.1804 26.4268 89.9385 26.9696C90.2901 27.2217 90.6534 27.4586 91.0121 27.7021C90.4346 28.0748 90.1252 27.4377 89.6711 27.3389C89.5289 27.3081 89.4057 27.1832 89.2627 27.1489C89.1317 27.1174 88.9841 27.1486 88.8435 27.1523C88.8925 27.2721 88.9082 27.4582 88.9956 27.5015C90.4278 28.2146 91.5773 29.2792 92.7292 30.3661C93.1305 30.7447 93.8113 31.063 94.3326 31.0198C94.9841 30.9667 94.9195 31.0873 94.7518 31.5399C94.7271 31.6053 94.9894 31.8584 95.0086 31.847C95.2237 31.7134 95.4169 31.5457 95.6153 31.3863C95.5473 31.6616 95.4221 31.9381 95.4278 32.2114C95.4334 32.442 95.6406 32.8746 95.674 32.8672C96.7 32.6179 96.9477 33.789 97.7599 34.0116C98.1766 34.126 97.5708 34.2972 97.4421 34.4599C97.3967 34.5155 97.5316 34.8321 97.6477 34.8824C99.3487 35.6207 100.114 36.4478 100.885 38.0115C101.354 38.962 102.335 39.6364 102.458 40.7967C104.252 42.797 105.154 45.3325 106.34 47.6613C107.493 49.925 108.092 52.4849 108.781 54.9568C108.885 55.3307 108.973 55.6384 109.141 56.0002C109.398 56.5545 109.887 57.1612 109.451 57.8976C109.328 58.1061 109.337 58.4849 109.439 58.7204C110.292 60.7051 109.895 62.8189 110.1 64.8676C110.219 66.0562 110.087 67.2863 110.337 68.4391C110.501 69.1934 110.404 69.8336 110.341 70.5549C110.157 72.6406 110.147 74.7407 110.019 76.8324C109.918 78.5047 109.743 80.1729 109.598 81.8424C109.526 82.6746 109.608 83.5172 110.033 84.2124C110.296 84.6451 110.098 84.5796 109.85 84.7603C109.516 85.0034 109.279 85.3777 108.999 85.6954C108.648 85.372 108.19 85.1105 107.965 84.7145C106.678 82.4378 104.917 80.4776 103.674 78.1634C103.017 76.9411 102.198 75.7152 101.166 74.8189C100.557 74.29 100.318 73.6917 99.927 73.1025C98.8778 71.5235 97.8788 69.893 96.6644 68.4475C95.4509 67.003 94.5425 65.3312 93.1203 64.0262C92.4655 63.4253 92.2684 62.3227 91.1843 62.1131C90.9868 62.0745 90.701 62.0159 90.5945 62.1155C90.4727 62.2296 90.4436 62.5213 90.4818 62.7135C90.5558 63.0815 90.7221 63.4295 90.8194 63.7939C90.8659 63.9672 90.8424 64.1589 90.8512 64.3428C90.6448 64.2845 90.4359 64.2365 90.2346 64.1651C90.093 64.1145 89.9685 64.019 89.8273 63.9677C89.1048 63.7031 89.0723 63.7384 89.0935 64.687C89.0965 64.8259 89.075 64.9656 89.0895 65.3501C89.0678 65.4927 89.0203 65.3889 88.9737 65.2857C89.0644 65.2553 89.1547 65.2255 89.2452 65.1955C89.2675 65.3067 89.2993 65.4178 89.3037 65.53C89.3036 65.5489 89.1842 65.5721 89.0895 65.3501C88.5044 64.8304 88.4201 65.3315 88.3077 65.6308C87.9499 66.5887 88.2551 67.5161 88.6546 68.3656C88.9145 68.919 89.3533 69.4242 89.8148 69.836C90.1663 70.1501 90.1247 70.9957 90.9409 70.7485C90.9935 70.7323 91.1801 70.908 91.1671 70.9635C90.9768 71.8155 91.1492 72.5406 91.8539 73.1012C91.5944 74.8002 93.1814 75.6557 93.6749 77.0268C93.9764 77.8624 94.4947 78.7837 95.1919 79.2706C96.1562 79.9446 95.9359 81.0283 96.4786 81.775C97.3165 82.9265 97.9462 84.2034 98.7249 85.3709C99.7308 86.8802 100.484 88.5851 101.838 89.8584C102.039 90.0468 102.122 90.3884 102.343 90.521C102.896 90.8542 103.63 91.0257 103.213 91.9399C103.809 92.242 104.006 92.6306 104.141 93.3742C104.266 94.0601 104.419 95.3219 105.702 95.3639C105.309 96.5803 106.427 96.5506 107.023 96.9323C107.153 97.0151 107.386 96.9329 107.573 96.9269C107.422 96.7819 107.119 96.5985 107.145 96.4962C107.276 95.9603 107.491 95.4453 107.678 94.9233C107.774 94.9682 107.922 94.9895 107.958 95.0646C108.113 95.3828 108.234 95.7174 108.367 96.0456C108.579 95.8633 108.789 95.6804 109 95.4976C109.036 95.6576 109.067 95.8188 109.109 95.9771C109.15 96.1295 109.201 96.2786 109.248 96.4291C110.315 95.986 111.583 95.7917 112.376 94.992C113.157 94.2044 113.8 93.368 114.963 93.1797C115.019 91.8678 116.119 92.1419 116.894 91.8257C117.802 91.4569 118.578 90.7752 119.47 90.3543C120.311 89.9572 120.842 88.9119 121.995 89.1253C122.068 89.139 122.369 88.6484 122.312 88.4781C122.171 88.0612 122.351 87.9108 122.67 87.928C124.013 88.002 124.603 86.7449 125.64 86.293C126.424 85.9526 126.809 84.8119 127.93 85.157C128.664 84.1653 129.909 84.0766 130.868 83.4904C131.822 82.9058 132.717 82.2229 133.63 81.5707C133.912 81.3681 134.316 81.1716 134.403 80.8915C134.63 80.1533 135.079 80.1426 135.72 80.1742C136.142 80.1953 136.79 80.0491 136.969 79.7539C137.625 78.6775 138.909 78.3971 139.642 77.4594C139.152 76.1393 140.484 77.3151 140.384 76.9644C140.17 76.2148 140.885 76.1245 141.132 75.7347C141.417 75.2834 141.958 75.0001 142.36 74.6146C142.864 74.1313 143.576 73.9189 143.909 73.1913C144.254 72.4364 144.103 72.3304 143.368 72.5183C143.305 72.5345 143.062 72.1262 143.024 71.8951C142.967 71.5565 143.019 71.1997 142.823 70.4526C142.787 70.254 142.954 70.4555 143.121 70.6581C142.961 70.6576 142.758 70.7193 142.648 70.645C142.395 70.4719 142.187 70.2331 141.96 70.0206C142.159 70.0312 142.357 70.0417 142.823 70.4526C143.3 70.9283 143.657 71.1524 143.831 71.0536C144.175 70.8559 144.285 70.5125 143.808 70.2188C143.288 69.8993 144.074 68.7871 142.96 68.7827C142.612 68.7812 142.218 68.5944 141.926 68.7053C140.905 69.0923 139.814 69.4254 138.937 70.0439C136.174 71.9943 133.317 73.7969 130.468 75.6104C128.681 76.7476 127.078 78.1826 125.09 79.0008C124.357 79.302 124.19 80.4219 123.178 80.3127C122.149 81.5439 120.52 81.9884 119.422 83.0075C118.469 83.8927 117.301 84.3927 116.385 85.2655C116.235 85.4086 116.006 85.4652 115.842 85.5969C115.451 85.9108 115.581 87.1472 114.781 86.5253C114.356 86.1956 114.221 84.9505 114.493 84.3691C115.391 82.4425 115.723 80.4062 115.869 78.3566C115.976 76.8678 116.466 75.4734 116.598 74.0001C116.728 72.5381 116.94 71.0727 117.264 69.6423C117.64 67.9827 117.464 66.296 117.679 64.6267C117.882 63.0449 117.776 61.4197 117.877 59.8142C117.92 59.1157 117.722 58.4045 117.65 57.6975C117.515 56.3684 117.758 55.0022 117.512 53.7107C117.269 52.4357 117.218 51.1065 116.897 49.8975C116.088 46.8491 115.661 43.6863 114.036 40.8462C113.186 39.3588 112.65 37.667 111.748 36.1659C110.478 34.0532 109.411 31.8028 107.463 30.1776C106.177 27.5052 103.902 25.6874 101.843 23.6863C100.413 22.296 99.02 20.8701 97.2053 19.9316C96.3871 19.5086 95.5458 18.9762 94.962 18.2847C93.8977 17.0233 92.3853 16.6015 91.0425 15.866C89.7177 15.1401 88.3585 14.4748 86.9908 13.832C86.1295 13.4279 85.2261 13.1159 84.3419 12.7602C83.5258 12.4326 82.6983 11.8134 81.8968 11.846C80.9233 11.8859 80.1589 11.0013 79.1886 11.4295C76.1523 10.3487 72.9907 10.2456 69.8225 10.3033C68.2717 10.3315 66.7147 10.4797 65.1779 10.6975C64.1906 10.8373 63.5441 10.5851 62.8225 9.86759C61.718 8.7697 60.4114 7.86517 59.1902 6.89236C56.749 4.9473 53.9077 3.82966 51.1728 2.5318C49.2124 1.60171 46.9787 1.19793 44.8043 0.906631C42.7326 0.628276 40.6472 0.463062 38.5279 0.531897C36.8262 0.587026 35.1444 0.777307 33.4713 0.966094C31.9493 1.13826 30.452 1.62928 28.9761 2.08545C23.2711 3.85014 18.0973 6.63138 13.4784 10.4142C11.2538 12.2372 9.15837 14.1813 7.31023 16.4298C6.4928 17.426 6.15843 18.7077 5.28277 19.5085C4.23378 20.4669 3.63214 21.6424 3.22326 22.8498C2.22133 25.8063 1.10618 28.7522 0.811188 31.9023C0.707336 33.0144 0.60479 34.1292 0.590952 35.2444C0.587558 35.56 0.85963 36.1104 1.0723 36.1456C1.43654 36.2061 2.04057 36.0651 2.21323 35.796C2.68228 35.0648 3.2166 34.4022 3.7332 33.7159C4.25776 33.019 4.5668 31.965 4.52177 31.0907C4.48144 30.2903 4.63197 29.6277 4.89686 28.9383C5.1872 28.1849 5.49814 27.4386 5.8121 26.6944C6.02499 26.1894 6.55263 25.669 5.69788 25.2519C5.74591 25.1561 5.76819 25.0231 5.84445 24.9704C6.87421 24.2731 7.09797 24.1922 7.46832 23.298C7.68391 22.7795 8.24641 22.6461 8.40438 22.0572C8.51351 21.6489 9.11961 21.3695 9.5134 21.0435C10.4261 20.2844 11.2493 19.3169 12.295 18.8539C12.9808 18.5497 11.5547 17.4215 12.9363 17.7388C13.2816 17.8183 13.8061 17.3822 14.1657 17.0839C14.9188 16.4604 15.9632 16.1772 16.3682 15.0956C16.4298 14.9325 17.023 14.0746 17.7874 14.5537C17.9494 14.655 18.3681 14.4351 18.6225 14.285C19.529 13.7475 20.01 12.6945 21.3618 12.6333C22.3799 12.5878 23.376 11.8449 24.3622 11.3714C25.1311 11.0037 24.3639 10.9519 24.232 10.7475C24.194 10.689 24.371 10.3763 24.4365 10.3802C26.5304 10.5149 26.6359 10.49 28.2282 9.76669C28.6358 9.58231 29.1079 9.33091 29.5097 9.38921C30.3944 9.51831 30.9681 9.13697 31.6629 8.67793C32.2011 8.32175 32.979 7.82868 33.7463 8.43376C33.8467 8.34365 33.9471 8.25354 34.0483 8.1644C34.0824 8.32197 34.1168 8.47911 34.1509 8.63668C34.4892 8.73012 34.8271 9.22723 35.1656 8.63801C35.0761 8.53733 34.9865 8.43665 34.8968 8.3363C35.0542 8.30171 35.2116 8.26702 35.3691 8.23232C36.046 7.90839 36.7226 7.85633 37.3974 8.23475C37.7371 7.64597 38.0737 8.14308 38.4122 8.23609C38.7508 7.64676 39.0885 8.14431 39.4268 8.23775C40.0081 7.55127 40.3696 8.39598 40.8462 8.44189C41.9106 7.76159 42.7832 8.41428 43.6861 8.8508C43.7199 8.78355 43.7702 8.65364 43.7856 8.65775C44.8862 8.94453 45.9998 9.1947 47.0776 9.5537C48.032 9.87141 48.8141 10.6939 49.956 10.4902C50.1351 10.4579 50.349 10.7108 50.5631 10.7699C51.1852 10.9393 51.1822 12.2798 52.2203 11.6493C52.4113 12.5627 53.3476 12.5193 53.8978 12.9688C54.3115 13.3068 54.1183 13.6034 53.7175 13.8012C51.5801 14.8513 49.4407 15.8975 47.3024 16.9468C47.045 17.0733 46.7744 17.1833 46.538 17.3431C44.7342 18.5632 42.9313 19.7844 41.1408 21.0238C40.2777 21.6222 39.4282 22.2419 38.5973 22.8837C37.7696 23.5244 36.9409 24.1698 36.1677 24.8737C33.6823 27.1362 31.1617 29.3452 28.9966 31.9572C27.3927 33.8905 25.9206 35.8888 24.44 37.9092C22.5572 40.4765 21.3342 43.3341 19.9917 46.1319C19.1133 47.9613 18.684 50.023 18.2735 52.0633C17.7474 54.6698 17.6096 57.2274 18.1266 59.8244C18.2941 60.6692 18.4267 61.5326 18.7095 62.3411C19.0191 63.2275 19.2891 64.2788 19.9343 64.856C20.5921 65.4431 21.156 66.04 21.5514 66.7875C21.911 67.467 22.9493 66.5353 23.0886 67.4874C23.1974 68.2264 23.7858 68.3904 24.3034 68.658C24.9079 68.97 25.4976 69.3247 26.1316 69.559C26.7931 69.8029 27.5052 69.9055 28.1848 70.1053C28.8667 70.3057 29.4017 71.049 30.2544 70.6403C30.3377 70.6005 30.5168 70.8181 30.6533 70.8197C31.3038 70.8251 30.9865 72.1453 31.9182 71.7403C31.5273 70.8198 32.1252 71.1718 32.5867 71.1591C33.372 71.1374 34.1169 71.0458 34.893 71.3941C35.3723 71.6092 36.0231 71.6489 36.542 71.5299C38.329 71.1193 40.0969 70.6233 41.8608 70.1217C43.1233 69.7633 44.3059 69.2017 45.472 68.598C47.0707 67.7706 48.8458 67.3166 50.3553 66.2966C50.8795 65.9414 51.4456 65.6398 51.9363 65.2441C53.352 64.0996 54.8461 63.0619 56.2778 61.9417C56.7363 61.5835 57.7145 61.545 57.3823 60.5155C57.3554 60.4322 57.6476 60.2067 57.8246 60.1035C59.4563 59.1458 61.0859 57.3816 62.1504 56.1316C63.4871 54.5619 64.4765 52.726 65.9774 51.2882C66.2842 50.9933 66.4307 50.5239 66.631 50.1246C67.6512 48.101 68.6703 46.0769 69.6784 44.048C70.097 43.2052 70.5968 42.4048 70.5295 41.3789C70.472 40.4999 70.869 39.711 71.2102 38.9016C71.503 38.205 71.5897 37.401 71.6598 36.6356C71.9974 32.9092 71.8494 29.1842 71.3092 25.4948C71.1042 24.0963 70.4394 22.766 69.9949 21.402C69.7215 20.5642 69.9603 20.3136 70.9086 20.4798C71.6031 20.6014 72.2851 20.7882 72.9791 20.9138C73.0654 20.9296 73.1875 20.7452 73.2937 20.6543C72.9601 20.487 72.6237 20.3252 72.2959 20.1465C72.2472 20.1201 72.1991 19.9796 72.2214 19.954C72.2959 19.8699 72.4343 19.7362 72.4913 19.7595C72.835 19.9013 73.1635 20.0813 73.4971 20.2486Z" fill="#E85E28"/>
</svg>
