<svg width="10" height="15" viewBox="0 0 10 15" fill="none" xmlns="http://www.w3.org/2000/svg">
<path d="M9.57813 6.61216L2.44709 0.367312C2.31411 0.25086 2.15624 0.158485 1.9825 0.0954616C1.80875 0.0324381 1.62254 0 1.43448 0C1.05468 0 0.69043 0.132126 0.42187 0.367312C0.288893 0.483764 0.183409 0.622013 0.111442 0.774165C0.0394746 0.926317 0.00243465 1.08939 0.00243465 1.25408C0.00243465 1.58668 0.15331 1.90566 0.42187 2.14085L6.55457 7.49893L0.42187 12.857C0.288194 12.9731 0.182092 13.1113 0.109686 13.2635C0.0372789 13.4157 0 13.5789 0 13.7438C0 13.9087 0.0372789 14.0719 0.109686 14.2241C0.182092 14.3763 0.288194 14.5144 0.42187 14.6306C0.554455 14.7476 0.712195 14.8405 0.885992 14.9039C1.05979 14.9674 1.2462 15 1.43448 15C1.62275 15 1.80917 14.9674 1.98296 14.9039C2.15676 14.8405 2.3145 14.7476 2.44709 14.6306L9.57813 8.3857C9.7118 8.2696 9.81791 8.13146 9.89032 7.97926C9.96272 7.82706 10 7.66381 10 7.49893C10 7.33406 9.96272 7.17081 9.89032 7.01861C9.81791 6.86641 9.7118 6.72827 9.57813 6.61216Z" fill="#F3F0E6"/>
</svg>
