<svg width="85" height="85" viewBox="0 0 85 85" fill="none" xmlns="http://www.w3.org/2000/svg">
<circle cx="42.5" cy="42.5" r="42.5" fill="#E85E28"/>
<path d="M54.6111 43C53.7713 43 52.9658 42.6664 52.3719 42.0725C51.7781 41.4786 51.4444 40.6732 51.4444 39.8333C51.4444 38.9935 51.7781 38.188 52.3719 37.5942C52.9658 37.0003 53.7713 36.6667 54.6111 36.6667C55.451 36.6667 56.2564 37.0003 56.8503 37.5942C57.4441 38.188 57.7778 38.9935 57.7778 39.8333C57.7778 40.6732 57.4441 41.4786 56.8503 42.0725C56.2564 42.6664 55.451 43 54.6111 43ZM48.2778 34.5556C47.4379 34.5556 46.6325 34.2219 46.0386 33.6281C45.4447 33.0342 45.1111 32.2287 45.1111 31.3889C45.1111 30.549 45.4447 29.7436 46.0386 29.1497C46.6325 28.5559 47.4379 28.2222 48.2778 28.2222C49.1176 28.2222 49.9231 28.5559 50.517 29.1497C51.1108 29.7436 51.4444 30.549 51.4444 31.3889C51.4444 32.2287 51.1108 33.0342 50.517 33.6281C49.9231 34.2219 49.1176 34.5556 48.2778 34.5556ZM37.7222 34.5556C36.8824 34.5556 36.0769 34.2219 35.4831 33.6281C34.8892 33.0342 34.5556 32.2287 34.5556 31.3889C34.5556 30.549 34.8892 29.7436 35.4831 29.1497C36.0769 28.5559 36.8824 28.2222 37.7222 28.2222C38.5621 28.2222 39.3675 28.5559 39.9614 29.1497C40.5553 29.7436 40.8889 30.549 40.8889 31.3889C40.8889 32.2287 40.5553 33.0342 39.9614 33.6281C39.3675 34.2219 38.5621 34.5556 37.7222 34.5556ZM31.3889 43C30.549 43 29.7436 42.6664 29.1497 42.0725C28.5559 41.4786 28.2222 40.6732 28.2222 39.8333C28.2222 38.9935 28.5559 38.188 29.1497 37.5942C29.7436 37.0003 30.549 36.6667 31.3889 36.6667C32.2287 36.6667 33.0342 37.0003 33.6281 37.5942C34.2219 38.188 34.5556 38.9935 34.5556 39.8333C34.5556 40.6732 34.2219 41.4786 33.6281 42.0725C33.0342 42.6664 32.2287 43 31.3889 43ZM43 24C37.9609 24 33.1282 26.0018 29.565 29.565C26.0018 33.1282 24 37.9609 24 43C24 48.0391 26.0018 52.8718 29.565 56.435C33.1282 59.9982 37.9609 62 43 62C43.8399 62 44.6453 61.6664 45.2392 61.0725C45.833 60.4786 46.1667 59.6732 46.1667 58.8333C46.1667 58.01 45.85 57.2711 45.3433 56.7222C44.8578 56.1522 44.5411 55.4133 44.5411 54.6111C44.5411 53.7713 44.8747 52.9658 45.4686 52.3719C46.0625 51.7781 46.8679 51.4444 47.7078 51.4444H51.4444C54.244 51.4444 56.9288 50.3323 58.9083 48.3528C60.8879 46.3732 62 43.6884 62 40.8889C62 31.5578 53.4922 24 43 24Z" fill="#FFFEFB"/>
</svg>
