<svg width="72" height="73" viewBox="0 0 72 73" fill="none" xmlns="http://www.w3.org/2000/svg">
<path d="M61.5075 10.9762C58.19 7.64296 54.2389 5.00006 49.8845 3.20149C45.53 1.40292 40.8594 0.484653 36.1447 0.500194C16.3899 0.500194 0.289448 16.5202 0.289448 36.1761C0.289448 42.4761 1.95377 48.5961 5.06533 53.9961L0 72.5L18.995 67.532C24.2412 70.376 30.1387 71.888 36.1447 71.888C55.8995 71.888 72 55.868 72 36.2121C72 26.6721 68.2734 17.7081 61.5075 10.9762ZM36.1447 65.84C30.7899 65.84 25.5437 64.4 20.9487 61.7L19.8633 61.052L8.57487 64.004L11.5779 53.0601L10.8543 51.9441C7.87856 47.2175 6.29882 41.7535 6.29548 36.1761C6.29548 19.8321 19.6824 6.51218 36.1085 6.51218C44.0683 6.51218 51.5578 9.60817 57.1658 15.2242C59.9431 17.9741 62.144 21.2453 63.6408 24.8481C65.1377 28.4509 65.9006 32.3136 65.8854 36.2121C65.9578 52.5561 52.5709 65.84 36.1447 65.84ZM52.4985 43.6641C51.594 43.2321 47.1799 41.0721 46.3839 40.7481C45.5518 40.4601 44.9729 40.3161 44.3578 41.1801C43.7427 42.0801 42.0422 44.0961 41.5357 44.6721C41.0291 45.2841 40.4864 45.3561 39.5819 44.8881C38.6774 44.4561 35.7829 43.4841 32.3819 40.4601C29.7045 38.0841 27.9317 35.1681 27.3889 34.2681C26.8824 33.3681 27.3166 32.9001 27.7869 32.4321C28.1849 32.0361 28.6915 31.3881 29.1256 30.8841C29.5598 30.3801 29.7407 29.9841 30.0301 29.4081C30.3196 28.7961 30.1749 28.2921 29.9578 27.8601C29.7407 27.4281 27.9317 23.0361 27.208 21.2361C26.4844 19.5081 25.7246 19.7241 25.1819 19.6881H23.4452C22.8301 19.6881 21.8894 19.9041 21.0573 20.8041C20.2613 21.7041 17.9457 23.8641 17.9457 28.2561C17.9457 32.6481 21.1658 36.8961 21.6 37.4721C22.0342 38.0841 27.9317 47.0841 36.9045 50.9361C39.0392 51.8721 40.7035 52.4121 42.006 52.8081C44.1407 53.4921 46.0945 53.384 47.6502 53.1681C49.3869 52.916 52.9688 51.0081 53.6925 48.9201C54.4523 46.8321 54.4523 45.0681 54.199 44.6721C53.9457 44.2761 53.403 44.0961 52.4985 43.6641Z" fill="#0D0D0D"/>
</svg>
