<?xml version="1.0" encoding="UTF-8"?>
<svg id="_18" data-name="18" xmlns="http://www.w3.org/2000/svg" viewBox="0 0 1000 1000">
  <defs>
    <style>
      .cls-1 {
        fill: #0c0d0d;
      }
    </style>
  </defs>
  <path class="cls-1" d="M288.34,598.56l-170.4-61.81v-59.47l170.4-61.81v56.8l-149.01,51.12v-32.74l149.01,51.12v56.8Z"/>
  <path class="cls-1" d="M293.36,657.37l110.26-314.74h66.82l-110.26,314.74h-66.82Z"/>
  <path class="cls-1" d="M587.03,629.3c-18.71,0-36.03-2.96-51.95-8.86-15.93-5.9-29.74-14.31-41.43-25.23-11.69-10.91-20.77-23.83-27.23-38.76-6.46-14.92-9.69-31.41-9.69-49.45s3.23-34.53,9.69-49.45c6.46-14.92,15.54-27.84,27.23-38.76,11.69-10.91,25.5-19.32,41.43-25.23,15.92-5.9,33.24-8.85,51.95-8.85,22.94,0,43.26,4.01,60.98,12.03,17.71,8.02,32.35,19.6,43.93,34.75l-49.78,44.44c-6.91-8.69-14.53-15.42-22.89-20.22-8.35-4.79-17.76-7.18-28.23-7.18-8.24,0-15.7,1.34-22.38,4.01-6.68,2.67-12.42,6.57-17.21,11.69-4.79,5.13-8.52,11.31-11.19,18.54-2.67,7.24-4.01,15.32-4.01,24.22s1.34,16.99,4.01,24.22c2.67,7.24,6.4,13.42,11.19,18.54,4.79,5.13,10.52,9.02,17.21,11.69,6.68,2.67,14.14,4.01,22.38,4.01,10.47,0,19.88-2.39,28.23-7.18,8.35-4.79,15.98-11.53,22.89-20.22l49.78,44.43c-11.58,14.93-26.22,26.45-43.93,34.58-17.71,8.13-38.04,12.2-60.98,12.2Z"/>
  <path class="cls-1" d="M711.66,598.56v-56.8l149.02-51.12v32.74l-149.02-51.12v-56.8l170.4,61.81v59.47l-170.4,61.81Z"/>
</svg>