<?xml version="1.0" encoding="UTF-8"?>
<svg id="_8" data-name="8" xmlns="http://www.w3.org/2000/svg" viewBox="0 0 1000 1000">
  <defs>
    <style>
      .cls-1 {
        fill: #f3f0e5;
      }

      .cls-2 {
        fill: #0c0d0d;
      }
    </style>
  </defs>
  <rect class="cls-1" width="1000" height="1000"/>
  <g>
    <path class="cls-2" d="M196.18,533.91l-71.18-25.82v-24.84l71.18-25.82v23.73l-62.24,21.35v-13.68l62.24,21.35v23.73Z"/>
    <path class="cls-2" d="M198.27,558.48l46.05-131.47h27.91l-46.05,131.47h-27.91Z"/>
    <path class="cls-2" d="M320.95,546.75c-7.81,0-15.05-1.23-21.7-3.7-6.65-2.46-12.42-5.98-17.3-10.54-4.88-4.56-8.68-9.95-11.38-16.19-2.7-6.23-4.05-13.12-4.05-20.66s1.35-14.42,4.05-20.65c2.7-6.23,6.49-11.63,11.38-16.19,4.88-4.56,10.65-8.07,17.3-10.54,6.65-2.46,13.89-3.7,21.7-3.7,9.58,0,18.07,1.67,25.47,5.02,7.4,3.35,13.51,8.19,18.35,14.51l-20.79,18.56c-2.88-3.63-6.07-6.44-9.56-8.44-3.49-2-7.42-3-11.79-3-3.44,0-6.56.56-9.35,1.67s-5.19,2.75-7.19,4.88c-2,2.14-3.56,4.72-4.67,7.75-1.12,3.02-1.67,6.4-1.67,10.12s.56,7.1,1.67,10.12c1.12,3.02,2.67,5.61,4.67,7.75,2,2.14,4.4,3.77,7.19,4.88,2.79,1.12,5.91,1.67,9.35,1.67,4.37,0,8.3-1,11.79-3,3.49-2,6.67-4.81,9.56-8.44l20.79,18.56c-4.84,6.23-10.96,11.05-18.35,14.44-7.4,3.4-15.89,5.09-25.47,5.09Z"/>
    <path class="cls-2" d="M410.54,545.92c-8.65,0-16.31-1.7-22.96-5.09-6.65-3.4-11.89-8.07-15.7-14.03-3.82-5.95-5.72-12.79-5.72-20.52s1.91-14.56,5.72-20.52c3.81-5.95,9.05-10.61,15.7-13.96,6.65-3.35,14.3-5.02,22.96-5.02s16.33,1.67,23.03,5.02c6.7,3.35,11.93,8,15.7,13.96,3.77,5.96,5.65,12.79,5.65,20.52s-1.88,14.56-5.65,20.52c-3.77,5.96-9,10.63-15.7,14.03-6.7,3.4-14.38,5.09-23.03,5.09ZM410.54,521.35c2.32,0,4.42-.56,6.28-1.67,1.86-1.12,3.35-2.81,4.47-5.09,1.12-2.28,1.67-5.05,1.67-8.3s-.56-6.12-1.67-8.3c-1.12-2.18-2.61-3.84-4.47-4.95-1.86-1.12-3.96-1.67-6.28-1.67s-4.42.56-6.28,1.67c-1.86,1.12-3.35,2.77-4.47,4.95-1.12,2.19-1.67,4.95-1.67,8.3s.56,6.02,1.67,8.3c1.12,2.28,2.6,3.98,4.47,5.09,1.86,1.12,3.95,1.67,6.28,1.67Z"/>
    <path class="cls-2" d="M498.33,545.92c-6.61,0-12.72-1.6-18.35-4.81-5.63-3.21-10.12-7.77-13.47-13.68-3.35-5.91-5.02-12.96-5.02-21.14s1.67-15.23,5.02-21.14c3.35-5.91,7.84-10.44,13.47-13.61,5.63-3.16,11.75-4.75,18.35-4.75s12.19,1.42,16.47,4.26c4.28,2.84,7.44,7.17,9.49,12.98,2.05,5.82,3.07,13.24,3.07,22.26s-.96,16.61-2.86,22.47c-1.91,5.86-4.98,10.19-9.21,12.98-4.23,2.79-9.89,4.19-16.96,4.19ZM505.86,521.35c2.32,0,4.42-.56,6.28-1.67,1.86-1.12,3.35-2.81,4.46-5.09,1.12-2.28,1.68-5.05,1.68-8.3s-.56-6.12-1.68-8.3c-1.12-2.18-2.61-3.84-4.46-4.95-1.86-1.12-3.96-1.67-6.28-1.67s-4.42.56-6.28,1.67c-1.86,1.12-3.35,2.77-4.47,4.95-1.12,2.19-1.67,4.95-1.67,8.3s.56,6.02,1.67,8.3c1.12,2.28,2.6,3.98,4.47,5.09,1.86,1.12,3.95,1.67,6.28,1.67ZM519.26,544.52v-10.33l-.14-27.91-1.39-27.91v-37.4h31.54v103.55h-30Z"/>
    <path class="cls-2" d="M563.22,544.52v-76.34h30.01v23.03l-4.88-6.56c2.32-5.95,6.05-10.42,11.17-13.4,5.12-2.98,11.26-4.47,18.42-4.47v27.91c-1.4-.19-2.63-.33-3.7-.42-1.07-.09-2.16-.14-3.28-.14-4.75,0-8.63,1.23-11.65,3.7-3.02,2.47-4.54,6.72-4.54,12.77v33.91h-31.54Z"/>
    <path class="cls-2" d="M651,548.01l-33.22-79.83h32.38l22.89,59.45-22.05,20.38ZM643.6,572.99c-4.19,0-8.44-.63-12.77-1.88-4.33-1.26-7.79-2.91-10.4-4.95l10.47-21.63c1.58,1.21,3.37,2.19,5.37,2.93,2,.74,3.93,1.12,5.79,1.12,2.79,0,4.93-.58,6.42-1.74,1.49-1.16,2.7-2.91,3.63-5.23l3.21-8.09,2.23-3.07,24.42-62.24h29.87l-31.4,77.87c-2.79,6.98-6.02,12.42-9.7,16.33-3.68,3.91-7.77,6.65-12.28,8.23-4.51,1.58-9.47,2.37-14.86,2.37Z"/>
    <path class="cls-2" d="M738.51,545.92c-6.23,0-11.44-1.07-15.63-3.21-4.19-2.14-7.35-5-9.49-8.58-2.14-3.58-3.21-7.56-3.21-11.93,0-4.93,1.26-9.12,3.77-12.56,2.51-3.44,6.35-6.05,11.51-7.82,5.16-1.77,11.7-2.65,19.61-2.65h15.91v15.21h-10.89c-3.35,0-5.79.54-7.33,1.6-1.54,1.07-2.3,2.68-2.3,4.81,0,1.77.67,3.23,2.02,4.4,1.35,1.16,3.19,1.74,5.51,1.74,2.14,0,4.12-.58,5.93-1.74,1.81-1.16,3.14-3,3.98-5.51l4.05,9.35c-1.21,5.68-3.77,9.91-7.68,12.7-3.91,2.79-9.17,4.19-15.77,4.19ZM760.14,544.52v-13.54l-2.23-3.63v-25.68c0-3.72-1.14-6.56-3.42-8.51-2.28-1.95-5.98-2.93-11.1-2.93-3.44,0-6.93.54-10.47,1.6-3.54,1.07-6.56,2.54-9.07,4.4l-10.05-20.79c4.46-2.79,9.81-4.93,16.05-6.42,6.23-1.49,12.33-2.23,18.28-2.23,13.12,0,23.28,2.93,30.49,8.79,7.21,5.86,10.82,15.17,10.82,27.91v41.03h-29.31Z"/>
    <path class="cls-2" d="M803.82,533.91v-23.73l62.24-21.35v13.68l-62.24-21.35v-23.73l71.18,25.82v24.84l-71.18,25.82Z"/>
  </g>
</svg>