<svg width="20" height="21" viewBox="0 0 20 21" fill="none" xmlns="http://www.w3.org/2000/svg">
<g clip-path="url(#clip0_657_78)">
<path d="M10 1.91871C12.67 1.91871 12.9867 1.92871 14.0417 1.97704C16.7517 2.10038 18.0175 3.38621 18.1408 6.07621C18.1892 7.13038 18.1983 7.44704 18.1983 10.117C18.1983 12.7879 18.1883 13.1037 18.1408 14.1579C18.0167 16.8454 16.7542 18.1337 14.0417 18.257C12.9867 18.3054 12.6717 18.3154 10 18.3154C7.33 18.3154 7.01333 18.3054 5.95917 18.257C3.2425 18.1329 1.98333 16.8412 1.86 14.157C1.81167 13.1029 1.80167 12.787 1.80167 10.1162C1.80167 7.44621 1.8125 7.13038 1.86 6.07538C1.98417 3.38621 3.24667 2.09954 5.95917 1.97621C7.01417 1.92871 7.33 1.91871 10 1.91871ZM10 0.116211C7.28417 0.116211 6.94417 0.127878 5.8775 0.176211C2.24583 0.342878 0.2275 2.35788 0.0608333 5.99288C0.0116667 7.06038 0 7.40038 0 10.1162C0 12.832 0.0116667 13.1729 0.06 14.2395C0.226667 17.8712 2.24167 19.8895 5.87667 20.0562C6.94417 20.1045 7.28417 20.1162 10 20.1162C12.7158 20.1162 13.0567 20.1045 14.1233 20.0562C17.7517 19.8895 19.775 17.8745 19.9392 14.2395C19.9883 13.1729 20 12.832 20 10.1162C20 7.40038 19.9883 7.06038 19.94 5.99371C19.7767 2.36538 17.7592 0.343711 14.1242 0.177044C13.0567 0.127878 12.7158 0.116211 10 0.116211ZM10 4.98121C7.16417 4.98121 4.865 7.28038 4.865 10.1162C4.865 12.952 7.16417 15.252 10 15.252C12.8358 15.252 15.135 12.9529 15.135 10.1162C15.135 7.28038 12.8358 4.98121 10 4.98121ZM10 13.4495C8.15917 13.4495 6.66667 11.9579 6.66667 10.1162C6.66667 8.27538 8.15917 6.78288 10 6.78288C11.8408 6.78288 13.3333 8.27538 13.3333 10.1162C13.3333 11.9579 11.8408 13.4495 10 13.4495ZM15.3383 3.57871C14.675 3.57871 14.1375 4.11621 14.1375 4.77871C14.1375 5.44121 14.675 5.97871 15.3383 5.97871C16.0008 5.97871 16.5375 5.44121 16.5375 4.77871C16.5375 4.11621 16.0008 3.57871 15.3383 3.57871Z" fill="#0D0D0D"/>
</g>
<defs>
<clipPath id="clip0_657_78">
<rect width="20" height="20" fill="white" transform="translate(0 0.116211)"/>
</clipPath>
</defs>
</svg>
